<?xml version="1.0" encoding="UTF-8" standalone="no"?>
<!-- Uploaded to: SVG Repo, www.svgrepo.com, Generator: SVG Repo Mixer Tools -->

<svg
   fill="#000000"
   width="800px"
   height="800px"
   viewBox="0 0 24 24"
   role="img"
   version="1.1"
   id="svg1"
   sodipodi:docname="1password-svgrepo-com.svg"
   inkscape:version="1.3.2 (091e20e, 2023-11-25)"
   xmlns:inkscape="http://www.inkscape.org/namespaces/inkscape"
   xmlns:sodipodi="http://sodipodi.sourceforge.net/DTD/sodipodi-0.dtd"
   xmlns="http://www.w3.org/2000/svg"
   xmlns:svg="http://www.w3.org/2000/svg">
  <defs
     id="defs1" />
  <sodipodi:namedview
     id="namedview1"
     pagecolor="#ffffff"
     bordercolor="#000000"
     borderopacity="0.25"
     inkscape:showpageshadow="2"
     inkscape:pageopacity="0.0"
     inkscape:pagecheckerboard="0"
     inkscape:deskcolor="#d1d1d1"
     inkscape:zoom="1.08125"
     inkscape:cx="400"
     inkscape:cy="400"
     inkscape:window-width="1392"
     inkscape:window-height="1212"
     inkscape:window-x="1150"
     inkscape:window-y="1320"
     inkscape:window-maximized="0"
     inkscape:current-layer="svg1" />
  <path
     d="M10.51 10.013V7.299c0-.306.248-.554.554-.554h1.911c.306 0 .554.248.554.554v4.968c0 .076-.038.134-.076.191l-.478.478c-.115.115-.115.287 0 .382l.478.478a.246.246 0 0 1 .076.191V16.7a.554.554 0 0 1-.554.554h-1.911a.554.554 0 0 1-.554-.554v-4.968c0-.076.038-.134.076-.191l.478-.478c.115-.115.115-.287 0-.382l-.478-.478a.244.244 0 0 1-.076-.19zM19.127 12a7.127 7.127 0 1 0-14.254 0 7.127 7.127 0 0 0 14.254 0zm2.255 0c0 5.178-4.204 9.363-9.363 9.363-5.178 0-9.363-4.204-9.363-9.363 0-5.178 4.204-9.363 9.363-9.363S21.382 6.822 21.382 12zM.764 12c0 6.21 5.025 11.236 11.236 11.236S23.236 18.21 23.236 12 18.21.764 12 .764.764 5.79.764 12zM0 12C0 5.369 5.369 0 12 0s12 5.369 12 12-5.369 12-12 12S0 18.631 0 12z"
     id="path1"
     style="fill:#808080;fill-opacity:1" />
</svg>
