<?xml version="1.0" encoding="UTF-8" standalone="no"?>
<svg
   width="1000.265"
   height="1000.265"
   viewBox="-0.082 -42.217 1000.265 1000.265"
   version="1.1"
   id="svg1"
   sodipodi:docname="AT&amp;T_logo_2016.svg"
   inkscape:version="1.3.2 (091e20e, 2023-11-25)"
   xmlns:inkscape="http://www.inkscape.org/namespaces/inkscape"
   xmlns:sodipodi="http://sodipodi.sourceforge.net/DTD/sodipodi-0.dtd"
   xmlns="http://www.w3.org/2000/svg"
   xmlns:svg="http://www.w3.org/2000/svg">
  <defs
     id="defs1" />
  <sodipodi:namedview
     id="namedview1"
     pagecolor="#ffffff"
     bordercolor="#000000"
     borderopacity="0.25"
     inkscape:showpageshadow="2"
     inkscape:pageopacity="0.0"
     inkscape:pagecheckerboard="0"
     inkscape:deskcolor="#d1d1d1"
     inkscape:zoom="0.37989932"
     inkscape:cx="450.11926"
     inkscape:cy="417.2158"
     inkscape:window-width="1392"
     inkscape:window-height="1212"
     inkscape:window-x="564"
     inkscape:window-y="1291"
     inkscape:window-maximized="0"
     inkscape:current-layer="svg1" />
  <g
     id="g3"
     style="display:inline;fill:#808080"
     transform="matrix(2.42802,0,0,2.42802,0.11566962,60.281009)">
    <path
       fill="#00a8e0"
       d="m 79.446,325.647 c 34.859,26.984 78.613,43.197 126.084,43.197 51.949,0 99.308,-19.287 135.452,-50.947 0.438,-0.387 0.222,-0.643 -0.21,-0.387 -16.219,10.832 -62.445,34.477 -135.24,34.477 -63.262,0 -103.241,-14.115 -125.818,-26.717 -0.432,-0.213 -0.592,0.111 -0.268,0.377 m 140.041,10.506 c 50.598,0 106.199,-13.793 139.453,-41.096 9.1,-7.439 17.768,-17.34 25.531,-30.646 4.469,-7.656 8.84,-16.752 12.4,-25.693 0.158,-0.436 -0.111,-0.648 -0.439,-0.158 -30.924,45.508 -120.473,73.893 -212.937,73.893 -65.357,0 -135.68,-20.9 -163.212,-60.807 -0.271,-0.369 -0.542,-0.211 -0.377,0.213 25.648,54.514 103.458,84.294 199.581,84.294 M 164.204,245.717 C 58.97,245.717 9.35,196.705 0.349,163.258 c -0.111,-0.484 -0.43,-0.378 -0.43,0.057 0,11.26 1.127,25.791 3.066,35.436 0.925,4.695 4.746,12.063 10.348,17.936 25.482,26.561 89.012,63.779 199.036,63.779 149.903,0 184.178,-49.934 191.177,-66.355 5.005,-11.744 7.598,-32.967 7.598,-50.795 0,-4.314 -0.108,-7.76 -0.271,-11.143 0,-0.549 -0.318,-0.594 -0.428,-0.059 -7.491,40.181 -135.566,93.603 -246.241,93.603 M 19.741,75.143 C 13.711,87.11 7.027,107.299 5.04,117.748 c -0.871,4.477 -0.5,6.627 1.07,9.968 12.613,26.761 76.412,69.579 225.23,69.579 90.79,0 161.318,-22.305 172.744,-63.008 2.104,-7.493 2.217,-15.404 -0.486,-26.064 -3.02,-11.912 -8.676,-25.803 -13.463,-35.557 -0.158,-0.318 -0.437,-0.271 -0.38,0.105 1.778,53.386 -147.099,87.793 -222.216,87.793 -81.365,0 -149.246,-32.418 -149.246,-73.352 0,-3.933 0.814,-7.867 1.83,-11.961 0.102,-0.374 -0.218,-0.436 -0.382,-0.108 M 341.315,9.596 c 0.864,1.354 1.295,2.799 1.295,4.744 0,22.836 -69.891,63.234 -181.148,63.234 -81.748,0 -97.053,-30.326 -97.053,-49.612 0,-6.894 2.644,-13.948 8.467,-21.112 0.318,-0.426 0.048,-0.59 -0.319,-0.273 -10.62,9 -20.378,19.127 -28.938,30.059 -4.09,5.17 -6.629,9.75 -6.629,12.494 0,39.967 100.216,68.945 193.921,68.945 99.844,0 144.404,-32.594 144.404,-61.238 0,-10.237 -3.985,-16.213 -14.179,-27.799 -6.617,-7.537 -12.876,-13.674 -19.501,-19.715 -0.32,-0.264 -0.543,-0.049 -0.32,0.273 m -30.609,-22.831 c -30.814,-18.47 -66.597,-28.978 -105.174,-28.978 -38.846,0 -75.707,10.875 -106.632,29.834 -9.276,5.709 -14.497,10.284 -14.497,16.165 0,17.336 40.515,35.976 112.394,35.976 71.133,0 126.305,-20.417 126.305,-40.07 0,-4.691 -4.1,-7.973 -12.396,-12.927"
       id="path9"
       style="fill:#808080" />
  </g>
</svg>
