<?xml version="1.0" encoding="UTF-8" standalone="no"?>
<!-- Uploaded to: SVG Repo, www.svgrepo.com, Generator: SVG Repo Mixer Tools -->

<svg
   fill="#000000"
   width="800px"
   height="800px"
   viewBox="0 0 256 256"
   version="1.1"
   id="svg1"
   sodipodi:docname="automation-4p-svgrepo-com.svg"
   inkscape:version="1.3.2 (091e20e, 2023-11-25)"
   xmlns:inkscape="http://www.inkscape.org/namespaces/inkscape"
   xmlns:sodipodi="http://sodipodi.sourceforge.net/DTD/sodipodi-0.dtd"
   xmlns="http://www.w3.org/2000/svg"
   xmlns:svg="http://www.w3.org/2000/svg">
  <defs
     id="defs1" />
  <sodipodi:namedview
     id="namedview1"
     pagecolor="#ffffff"
     bordercolor="#000000"
     borderopacity="0.25"
     inkscape:showpageshadow="2"
     inkscape:pageopacity="0.0"
     inkscape:pagecheckerboard="0"
     inkscape:deskcolor="#d1d1d1"
     inkscape:zoom="0.95"
     inkscape:cx="400"
     inkscape:cy="399.47368"
     inkscape:window-width="1392"
     inkscape:window-height="1212"
     inkscape:window-x="451"
     inkscape:window-y="1269"
     inkscape:window-maximized="0"
     inkscape:current-layer="svg1" />
  <path
     d="M144.282 145.51A32.19 32.19 0 0 1 150 145c4.032 0 7.89.746 11.444 2.107L175.584 127l.54.306A31.88 31.88 0 0 1 168 106c0-17.673 14.327-32 32-32 17.673 0 32 14.327 32 32 0 17.673-14.327 32-32 32-3.672 0-7.2-.619-10.485-1.757l-14.31 21.038A31.863 31.863 0 0 1 182 177c0 17.673-14.327 32-32 32-17.673 0-32-14.327-32-32 0-9.767 4.376-18.512 11.274-24.382l-20.764-41.28A32.14 32.14 0 0 1 102 112a32.05 32.05 0 0 1-8.16-1.05l-14.716 25.93C85.21 142.705 89 150.91 89 160c0 17.673-14.327 32-32 32-17.673 0-32-14.327-32-32 0-17.673 14.327-32 32-32 2.655 0 5.234.323 7.7.932l14.809-26.17C73.638 96.963 70 88.907 70 80c0-17.673 14.327-32 32-32 17.673 0 32 14.327 32 32 0 9.563-4.195 18.146-10.844 24.01l21.126 41.5zM200 122c8.837 0 16-7.163 16-16s-7.163-16-16-16-16 7.163-16 16 7.163 16 16 16zM57 176c8.837 0 16-7.163 16-16s-7.163-16-16-16-16 7.163-16 16 7.163 16 16 16zm45-80c8.837 0 16-7.163 16-16s-7.163-16-16-16-16 7.163-16 16 7.163 16 16 16zm48 97c8.837 0 16-7.163 16-16s-7.163-16-16-16-16 7.163-16 16 7.163 16 16 16z"
     fill-rule="evenodd"
     id="path1"
     style="fill:#808080" />
</svg>
