<?xml version="1.0" encoding="UTF-8" standalone="no"?>
<svg
   viewBox="0 0 128 128"
   version="1.1"
   id="svg3"
   sodipodi:docname="Bash.svg"
   inkscape:version="1.3.2 (091e20e, 2023-11-25)"
   xmlns:inkscape="http://www.inkscape.org/namespaces/inkscape"
   xmlns:sodipodi="http://sodipodi.sourceforge.net/DTD/sodipodi-0.dtd"
   xmlns="http://www.w3.org/2000/svg"
   xmlns:svg="http://www.w3.org/2000/svg">
  <defs
     id="defs3" />
  <sodipodi:namedview
     id="namedview3"
     pagecolor="#ffffff"
     bordercolor="#000000"
     borderopacity="0.25"
     inkscape:showpageshadow="2"
     inkscape:pageopacity="0.0"
     inkscape:pagecheckerboard="0"
     inkscape:deskcolor="#d1d1d1"
     inkscape:zoom="5.1379808"
     inkscape:cx="78.824739"
     inkscape:cy="81.452231"
     inkscape:window-width="1392"
     inkscape:window-height="1212"
     inkscape:window-x="730"
     inkscape:window-y="1208"
     inkscape:window-maximized="0"
     inkscape:current-layer="svg3" />
  <path
     fill="none"
     d="M 4.24,4.24 H 123.77 V 123.77 H 4.24 Z"
     id="path1"
     style="display:inline" />
  <path
     id="path2"
     style="display:inline;fill:#808080;fill-opacity:1"
     d="m 64,4.2402344 c -2.509994,0 -5.029301,0.6697682 -7.279297,2.0097656 L 18.980469,28.650391 c -4.499992,2.669994 -7.28125,7.608994 -7.28125,12.958984 v 44.800781 c 0,5.34999 2.771258,10.288989 7.28125,12.958985 l 37.730469,22.400389 c 2.249994,1.34 4.759302,2 7.279296,2 2.509996,0 5.029301,-0.67 7.279297,-2 L 109.00977,99.369141 c 4.49998,-2.669996 7.27929,-7.618995 7.27929,-12.958985 V 41.599609 c 0,-5.339988 -2.76931,-10.28899 -7.27929,-12.958984 L 71.279297,6.2402344 c -2.249996,-1.3299974 -4.769303,-2 -7.279297,-2 z m 0.146484,2.6445312 c 0.223382,0.00807 0.441861,0.040146 0.66211,0.060547 0.915534,0.063695 1.817123,0.2287278 2.691406,0.5039063 0.572512,0.1487234 1.144235,0.2938564 1.720703,0.4667968 4.919059,3.1154033 29.974463,17.3325743 37.519527,22.4375003 l 0.97071,0.576172 c 1.36861,0.814128 2.52638,1.899124 3.46094,3.152343 0.0909,0.10563 0.14141,0.195723 0.2246,0.298828 0.0543,0.07765 0.11545,0.149612 0.16797,0.228516 1.19686,1.56077 1.56633,2.797393 1.63477,3.568359 0.12736,0.453013 0.23351,0.914096 0.31055,1.382813 -0.0946,-0.198879 -0.21484,-0.364053 -0.32618,-0.541016 -8.6e-4,0.0033 -0.004,0.05469 -0.004,0.05469 -2.38702,-2.705285 -4.45806,-2.096084 -6.10157,-1.453125 -0.20075,0.08876 -0.40431,0.191429 -0.60937,0.300781 -2.43414,1.72479 -27.366401,16.900544 -35.048828,21.607422 l -0.990234,0.611328 c -4.449992,2.599994 -7.730235,5.518682 -7.740235,10.888672 v 43.990231 c 0,1.78571 0.413409,3.20648 1.113281,4.23438 0.491513,0.56328 1.009484,1.03056 1.50586,1.38671 0.214262,0.11209 0.437498,0.20746 0.671875,0.2793 -0.65,0.11 -1.320471,0.18945 -1.980469,0.18946 -0.0026,0 -0.0052,0 -0.0078,0 -0.0013,-1e-5 -0.0026,0 -0.0039,0 -1.7419,0.0647 -3.003317,-0.30766 -4.082031,-0.76954 -0.642145,-0.24114 -1.271494,-0.51699 -1.867188,-0.86914 l -0.191406,-0.11328 c -0.363406,-0.17637 -0.723359,-0.34036 -1.089844,-0.45312 -0.690782,-0.46052 -3.972609,-2.47604 -8.177734,-5.04883 L 20.310547,97.070312 c -0.991963,-0.588725 -1.872155,-1.324 -2.644531,-2.15625 -0.01201,-0.0082 -0.140616,-0.08691 -0.150391,-0.09375 -1.540034,-1.34753 -2.224213,-3.122989 -2.648437,-4.847656 -0.194314,-0.656851 -0.349848,-1.326927 -0.435547,-2.015625 -0.09512,-0.547589 -0.185765,-1.092813 -0.285157,-1.55664 C 14.314905,80.337239 14.316406,42.61075 14.316406,39.916016 14.653249,36.042335 17.009602,33.684209 18.525391,32 22.062229,29.305266 54.230884,10.441424 58.441406,8.2519531 60.546668,7.1572174 62.399118,6.8216078 64.146484,6.8847656 Z m 15.1875,63.1035154 c 0.199688,0.0084 0.345703,0.189922 0.345704,0.482422 l 0.03125,3.25 c 1.359996,-0.539998 2.539378,-0.691406 3.609374,-0.441406 0.23,0.06 0.340235,0.38 0.240235,0.75 l -0.720703,2.880859 c -0.06,0.22 -0.18008,0.44008 -0.330078,0.580078 a 0.77,0.77 0 0 1 -0.189454,0.140625 c -0.1,0.05 -0.19125,0.05883 -0.28125,0.04883 -0.489998,-0.11 -1.648519,-0.359452 -3.478515,0.560546 -1.919996,0.969998 -2.590078,2.638909 -2.580078,3.878907 0.02,1.479996 0.768676,1.930703 3.388672,1.970703 3.489992,0.06 4.99125,1.57985 5.03125,5.089844 0.05,3.439992 -1.791333,7.15016 -4.611329,9.410156 l 0.06055,3.220705 c 0,0.39 -0.248828,0.83023 -0.548828,0.99023 l -1.910156,1.09961 c -0.3,0.15 -0.560547,-0.0299 -0.560547,-0.41992 l -0.0293,-3.16992 c -1.629996,0.68 -3.289847,0.83992 -4.339843,0.41992 -0.2,-0.08 -0.290938,-0.37094 -0.210938,-0.71094 l 0.689453,-2.910154 c 0.06,-0.23 0.179844,-0.459611 0.339844,-0.599609 0.06,-0.06 0.121641,-0.09891 0.181641,-0.128907 0.109998,-0.06 0.218593,-0.07125 0.308593,-0.03125 1.139998,0.38 2.590237,0.2 3.990235,-0.5 1.779996,-0.899998 2.97117,-2.719535 2.951172,-4.519531 C 80.690904,89.690081 79.810152,89.02 77.660156,89 c -2.739994,0.01 -5.299844,-0.530322 -5.339844,-4.570312 -0.03,-3.319994 1.689694,-6.778989 4.429688,-8.958985 l -0.0293,-3.25 c 0,-0.399998 0.23883,-0.84 0.548828,-1 l 1.84961,-1.181641 c 0.075,-0.0375 0.148281,-0.05359 0.214843,-0.05078 z m 19.960938,20.683594 c 0.161718,-0.01125 0.27539,0.112891 0.27539,0.337891 v 2.169922 c 10e-7,0.299998 -0.04102,0.570703 -0.291015,0.720703 l -9.539063,5.798828 c -0.249998,0.15 -0.451172,0.0207 -0.451172,-0.279297 v -2.458984 c 0,-0.3 0.181641,-0.461329 0.431641,-0.611329 l 9.398438,-5.61914 c 0.0625,-0.035 0.121875,-0.05484 0.175781,-0.05859 z" />
</svg>
