<?xml version="1.0" encoding="UTF-8" standalone="no"?>
<!-- Uploaded to: SVG Repo, www.svgrepo.com, Generator: SVG Repo Mixer Tools -->

<svg
   fill="#000000"
   width="800px"
   height="800px"
   viewBox="0 0 512 512"
   version="1.1"
   id="svg2"
   sodipodi:docname="bookmarks.svg"
   inkscape:version="1.3.2 (091e20e, 2023-11-25)"
   xmlns:inkscape="http://www.inkscape.org/namespaces/inkscape"
   xmlns:sodipodi="http://sodipodi.sourceforge.net/DTD/sodipodi-0.dtd"
   xmlns="http://www.w3.org/2000/svg"
   xmlns:svg="http://www.w3.org/2000/svg"
   xmlns:rdf="http://www.w3.org/1999/02/22-rdf-syntax-ns#"
   xmlns:cc="http://creativecommons.org/ns#"
   xmlns:dc="http://purl.org/dc/elements/1.1/">
  <defs
     id="defs2" />
  <sodipodi:namedview
     id="namedview2"
     pagecolor="#ffffff"
     bordercolor="#000000"
     borderopacity="0.25"
     inkscape:showpageshadow="2"
     inkscape:pageopacity="0.0"
     inkscape:pagecheckerboard="0"
     inkscape:deskcolor="#d1d1d1"
     inkscape:zoom="0.95"
     inkscape:cx="400"
     inkscape:cy="399.47368"
     inkscape:window-width="1392"
     inkscape:window-height="1212"
     inkscape:window-x="842"
     inkscape:window-y="1388"
     inkscape:window-maximized="0"
     inkscape:current-layer="svg2" />
  <title
     id="title1">ionicons-v5-h</title>
  <path
     d="M400,0H176a64.11,64.11,0,0,0-62,48H342a74,74,0,0,1,74,74V426.89l22,17.6a16,16,0,0,0,19.34.5A16.41,16.41,0,0,0,464,431.57V64A64,64,0,0,0,400,0Z"
     id="path1"
     style="fill:#808080" />
  <path
     d="M320,80H112a64,64,0,0,0-64,64V495.62A16.36,16.36,0,0,0,54.6,509a16,16,0,0,0,19.71-.71L216,388.92,357.69,508.24a16,16,0,0,0,19.6.79A16.4,16.4,0,0,0,384,495.59V144A64,64,0,0,0,320,80Z"
     id="path2"
     style="fill:#808080" />
  <metadata
     id="metadata2">
    <rdf:RDF>
      <cc:Work
         rdf:about="">
        <dc:title>ionicons-v5-h</dc:title>
      </cc:Work>
    </rdf:RDF>
  </metadata>
</svg>
