<?xml version="1.0" encoding="UTF-8" standalone="no"?>
<svg
   viewBox="0 0 128 128"
   version="1.1"
   id="svg4"
   sodipodi:docname="C++ (CPlusPlus).svg"
   inkscape:version="1.3.2 (091e20e, 2023-11-25)"
   xmlns:inkscape="http://www.inkscape.org/namespaces/inkscape"
   xmlns:sodipodi="http://sodipodi.sourceforge.net/DTD/sodipodi-0.dtd"
   xmlns="http://www.w3.org/2000/svg"
   xmlns:svg="http://www.w3.org/2000/svg">
  <defs
     id="defs4" />
  <sodipodi:namedview
     id="namedview4"
     pagecolor="#ffffff"
     bordercolor="#000000"
     borderopacity="0.25"
     inkscape:showpageshadow="2"
     inkscape:pageopacity="0.0"
     inkscape:pagecheckerboard="0"
     inkscape:deskcolor="#d1d1d1"
     inkscape:zoom="5.9375"
     inkscape:cx="64"
     inkscape:cy="63.915789"
     inkscape:window-width="1392"
     inkscape:window-height="1212"
     inkscape:window-x="889"
     inkscape:window-y="1331"
     inkscape:window-maximized="0"
     inkscape:current-layer="svg4" />
  <path
     id="path3"
     style="display:inline;fill:#808080;fill-opacity:1"
     d="M 63.443359,0 C 61.661111,0 59.878842,0.39037578 58.527344,1.171875 L 11.59375,28.269531 C 8.8897527,29.82753 6.6796875,33.6593 6.6796875,36.779297 v 54.197265 c 0,1.561999 0.5504071,3.298799 1.4414063,4.841797 L 30.6875,82.791016 c -3.227426,-5.56874 -5.085938,-12.025671 -5.085938,-18.91211 0,-20.866979 16.976771,-37.84375 37.84375,-37.84375 v -0.002 c 13.464987,0 26.019538,7.246168 32.769532,18.910156 L 82.96875,52.609375 118.76562,31.941406 c -0.89099,-1.545998 -2.12065,-2.894876 -3.47265,-3.671875 L 68.359375,1.171875 C 67.007876,0.39037578 65.225608,0 63.443359,0 Z m 0.002,44.955078 c -10.431989,0 -18.921874,8.489839 -18.921874,18.923828 0,3.444313 0.94004,6.666292 2.554687,9.451172 l 16.367187,-9.449219 16.388672,-9.46289 C 76.460458,48.584187 70.173853,44.955078 63.445312,44.955078 Z" />
  <path
     id="path2"
     style="display:inline;fill:#404040;fill-opacity:1"
     d="M 63.445312 63.880859 L 47.078125 73.330078 C 50.354792 78.981543 56.456305 82.800781 63.445312 82.800781 C 70.177398 82.800781 76.454898 79.179311 79.835938 73.34375 L 63.445312 63.880859 z M 87.439453 77.734375 L 96.214844 82.8125 C 89.46885 94.475488 76.910299 101.72266 63.445312 101.72266 C 49.464772 101.72266 37.239675 94.096421 30.6875 82.791016 L 8.1191406 95.820312 C 9.0091397 97.363311 10.241751 98.710188 11.59375 99.492188 L 58.525391 126.58594 C 61.228388 128.14794 65.655425 128.14794 68.357422 126.58594 L 68.359375 126.58594 L 115.29297 99.492188 C 116.64497 98.711188 117.87463 97.363311 118.76562 95.820312 L 87.439453 77.734375 z " />
  <path
     id="path1"
     style="display:inline;fill:#606060;fill-opacity:1"
     d="M 118.76562 31.939453 L 83.494141 52.304688 L 79.835938 54.421875 C 79.835209 54.420615 79.834713 54.419228 79.833984 54.417969 L 63.445312 63.880859 L 79.835938 73.34375 C 79.837398 73.34123 79.838385 73.338459 79.839844 73.335938 L 87.439453 77.734375 L 118.76562 95.820312 C 119.65562 94.277314 120.20703 92.539561 120.20703 90.976562 L 120.20703 36.779297 C 120.20703 35.221298 119.65662 33.482452 118.76562 31.939453 z M 92.880859 57.570312 L 97.082031 57.570312 L 97.082031 61.777344 L 101.28516 61.777344 L 101.28516 65.980469 L 97.082031 65.980469 L 97.082031 70.1875 L 92.880859 70.1875 L 92.880859 65.980469 L 88.673828 65.980469 L 88.673828 61.777344 L 92.880859 61.777344 L 92.880859 57.570312 z M 108.64648 57.570312 L 112.85352 57.570312 L 112.85352 61.777344 L 117.05664 61.777344 L 117.05664 65.980469 L 112.85352 65.980469 L 112.85352 70.1875 L 108.64648 70.1875 L 108.64648 65.980469 L 104.44141 65.980469 L 104.44141 61.777344 L 108.64648 61.777344 L 108.64648 57.570312 z " />
</svg>
