<?xml version="1.0" encoding="UTF-8" standalone="no"?>
<svg
   viewBox="0 0 128 128"
   version="1.1"
   id="svg3"
   sodipodi:docname="C.svg"
   inkscape:version="1.3.2 (091e20e, 2023-11-25)"
   xmlns:inkscape="http://www.inkscape.org/namespaces/inkscape"
   xmlns:sodipodi="http://sodipodi.sourceforge.net/DTD/sodipodi-0.dtd"
   xmlns="http://www.w3.org/2000/svg"
   xmlns:svg="http://www.w3.org/2000/svg">
  <defs
     id="defs3" />
  <sodipodi:namedview
     id="namedview3"
     pagecolor="#ffffff"
     bordercolor="#000000"
     borderopacity="0.25"
     inkscape:showpageshadow="2"
     inkscape:pageopacity="0.0"
     inkscape:pagecheckerboard="0"
     inkscape:deskcolor="#d1d1d1"
     inkscape:zoom="5.9375"
     inkscape:cx="64"
     inkscape:cy="63.915789"
     inkscape:window-width="1392"
     inkscape:window-height="1212"
     inkscape:window-x="764"
     inkscape:window-y="1301"
     inkscape:window-maximized="0"
     inkscape:current-layer="svg3" />
  <path
     id="path2"
     style="display:inline;fill:#606060;fill-opacity:1"
     d="M 117.30078,33.300781 98.232422,44.390625 c 0.02147,0.0373 0.047,0.072 0.06836,0.109375 l -13,7.5 c -0.0123,-0.02196 -0.0267,-0.04254 -0.03906,-0.06445 L 42.964844,76.535156 C 47.249052,83.691904 55.077011,88.5 64,88.5 c 9.099991,0 17.100785,-5.000398 21.300781,-12.400391 l 12.898438,7.59961 C 91.399226,95.499207 78.599985,103.5 64,103.5 49.530475,103.5 36.874355,95.696829 29.994141,84.078125 L 10.699219,95.300781 c 0.499999,0.799999 1.200391,1.498438 1.90039,1.898438 l 48.201172,27.900391 c 0.799999,0.5 1.899611,0.70117 3.09961,0.70117 1.199998,0 2.29961,-0.30117 3.099609,-0.70117 l 48,-27.900391 c 1.7,-0.999999 2.90039,-3.49844 2.90039,-5.398438 V 36.099609 c 0,-0.899999 -0.0996,-1.898829 -0.59961,-2.798828 z" />
  <path
     id="path1"
     style="display:inline;fill:#808080;fill-opacity:1"
     d="m 64,2.1992188 c -1.199999,0 -2.29961,0.3011722 -3.099609,0.7011718 l -48,27.9003904 C 11.200392,31.80078 10,34.299221 10,36.199219 v 55.701172 c 0,1.099999 0.200001,2.400001 1,3.5 L 30.121094,84.298828 C 26.555121,78.364377 24.5,71.421304 24.5,64 24.5,42.200022 42.200022,24.5 64,24.5 c 14.699985,0 27.500788,8.100012 34.300781,20 l -13,7.5 C 81.100785,44.500008 73.099991,39.5 64,39.5 50.500014,39.5 39.5,50.500014 39.5,64 c 0,4.672365 1.320616,9.042632 3.603516,12.763672 L 117.80078,33.400391 c -0.6,-1.199999 -1.50039,-2.101173 -2.40039,-2.701172 L 67.099609,2.9003906 C 66.29961,2.4003911 65.199999,2.1992187 64,2.1992188 Z" />
</svg>
