<?xml version="1.0" encoding="UTF-8" standalone="no"?>
<!-- Uploaded to: SVG Repo, www.svgrepo.com, Generator: SVG Repo Mixer Tools -->

<svg
   width="329.41177"
   height="273.67059"
   viewBox="0 -168 210.82354 175.14918"
   version="1.1"
   preserveAspectRatio="xMidYMid"
   id="svg15"
   sodipodi:docname="certbot-svgrepo-com.svg"
   inkscape:version="1.3.2 (091e20e, 2023-11-25)"
   xmlns:inkscape="http://www.inkscape.org/namespaces/inkscape"
   xmlns:sodipodi="http://sodipodi.sourceforge.net/DTD/sodipodi-0.dtd"
   xmlns="http://www.w3.org/2000/svg"
   xmlns:svg="http://www.w3.org/2000/svg">
  <defs
     id="defs15" />
  <sodipodi:namedview
     id="namedview15"
     pagecolor="#ffffff"
     bordercolor="#000000"
     borderopacity="0.25"
     inkscape:showpageshadow="2"
     inkscape:pageopacity="0.0"
     inkscape:pagecheckerboard="0"
     inkscape:deskcolor="#d1d1d1"
     inkscape:zoom="0.95"
     inkscape:cx="147.36842"
     inkscape:cy="182.10526"
     inkscape:window-width="1688"
     inkscape:window-height="1237"
     inkscape:window-x="672"
     inkscape:window-y="1363"
     inkscape:window-maximized="0"
     inkscape:current-layer="svg15" />
  <g
     id="g15"
     transform="translate(0,-168.10123)">
    <path
       d="m 126.9166,175.2504 c -0.99974,-6.55644 -6.66771,-11.66891 -13.5588,-11.66891 -6.89024,0 -12.55822,5.0012 -13.558793,11.66891 h 1.556083 z"
       fill="#000000"
       id="path1"
       style="fill:#808080;fill-opacity:1" />
    <path
       d="m 96.353882,175.2504 c -0.999738,-6.55644 -6.667712,-11.66891 -13.558797,-11.66891 -6.891085,0 -12.558222,5.0012 -13.558797,11.66891 h 25.560679 z"
       fill="#000000"
       id="path2"
       style="fill:#808080;fill-opacity:1" />
    <path
       d="m 78.572758,152.00895 v 19.24083 H 93.35383 V 122.79467 H 78.572758 v 19.90927 c -0.909924,1.33426 -1.44481,2.93838 -1.44481,4.6525 0,1.71413 0.534886,3.31825 1.44481,4.65251 z m 6.890249,-9.76581 c -2.778353,0 -5.111635,2.22285 -5.111635,5.11247 0,2.88962 2.22285,5.11163 5.111635,5.11163 2.88962,0 5.11247,-2.22201 5.11247,-5.11163 0,-2.88962 -2.334117,-5.11247 -5.11247,-5.11247 z"
       fill="#ed1c24"
       id="path3"
       style="fill:#808080;fill-opacity:1" />
    <path
       d="m 117.24716,142.54474 v -19.75007 h -14.78107 v 48.45511 h 14.78107 v -19.0813 c 0.97747,-1.36505 1.55608,-3.02903 1.55608,-4.81204 0,-1.78286 -0.57865,-3.44672 -1.55608,-4.8117 z m -6.77898,-0.3016 c -2.77835,0 -5.11247,2.22285 -5.11247,5.11247 0,2.88962 2.22285,5.11163 5.11247,5.11163 2.88962,0 5.11164,-2.22201 5.11164,-5.11163 0,-2.88962 -2.33328,-5.11247 -5.11164,-5.11247 z"
       fill="#ed1c24"
       id="path4"
       style="fill:#808080;fill-opacity:1" />
    <path
       d="m 142.88478,75.111055 2.70225,-41.780022 h 4.33443 l 2.08527,41.91168 c 1.58009,1.323362 2.58213,3.312308 2.58213,5.542856 0,3.887268 -3.04255,7.040754 -6.88583,7.216343 -5.05789,5.866536 -13.9174,13.998348 -27.12117,18.900678 v -20.449048 0 c 0,0 12.22278,1.658798 19.56729,-5.315234 -0.006,-0.116858 -0.008,-0.234459 -0.008,-0.352739 0,-2.305805 1.07079,-4.353429 2.74402,-5.674514 z m 4.48003,1.896422 c -2.11158,0 -3.88936,1.777778 -3.88936,3.88936 0,2.111581 1.77778,3.889359 3.88936,3.889359 2.11158,0 3.88936,-1.777778 3.88936,-3.889359 0,-2.111582 -1.66651,-3.88936 -3.88936,-3.88936 z"
       fill="#ed1c24"
       id="path5"
       style="fill:#808080;fill-opacity:1" />
    <path
       d="M 52.935138,75.111055 50.232889,33.331033 h -4.334432 l -1.976668,41.82251 c -1.642639,1.322274 -2.69073,3.350797 -2.69073,5.632026 0,3.887538 3.043762,7.041192 6.886703,7.21638 5.057896,5.866533 13.917394,13.998321 27.12114,18.900641 V 86.453542 c 0,0 -12.223672,1.658918 -19.568092,-5.315994 0.0055,-0.116608 0.0084,-0.233955 0.0084,-0.351979 0,-2.305805 -1.070795,-4.353429 -2.744025,-5.674514 z m -4.480027,1.896422 c -2.111582,0 -3.889359,1.777778 -3.889359,3.88936 0,2.111581 1.777777,3.889359 3.889359,3.889359 2.111582,0 3.88936,-1.777778 3.88936,-3.889359 0,-2.111582 -1.777778,-3.88936 -3.88936,-3.88936 z"
       fill="#ed1c24"
       id="path6"
       style="fill:#808080;fill-opacity:1" />
    <path
       d="M 53.455477,18.328261 V 30.553516 H 43.342641 V 18.328261 c -3.112157,1.777778 -5.223739,5.112471 -5.223739,8.890562 0,5.667974 4.556967,10.224105 10.224941,10.224105 5.667974,0 10.224105,-4.556131 10.224105,-10.224105 0.111268,-3.778091 -2.000314,-7.112784 -5.112471,-8.890562 z"
       fill="#000000"
       id="path7"
       style="fill:#808080;fill-opacity:1" />
    <path
       d="m 143.03122,18.328261 v 12.225255 h 10.11283 V 18.328261 c 3.11216,1.777778 5.22374,5.112471 5.22374,8.890562 0,5.667974 -4.55613,10.224105 -10.2241,10.224105 -5.66798,0 -10.22495,-4.556131 -10.22495,-10.224105 -0.11126,-3.778091 2.00032,-7.112784 5.11248,-8.890562 z"
       fill="#000000"
       id="path8"
       style="fill:#808080;fill-opacity:1" />
    <path
       d="m 76.242341,83.284205 0.218835,-23.169382 c 0.111268,-5.890509 2.44455,-11.335947 6.667713,-15.447843 4.223163,-4.111895 9.779869,-6.334745 15.669542,-6.223477 5.890509,0.111268 11.335949,2.444549 15.447839,6.667713 4.1119,4.223163 6.33475,9.779869 6.22348,15.670379 l -0.28407,22.186016 c 4.66803,5.195684 7.50812,12.066864 7.50812,19.601379 0,16.20382 -13.13579,29.33961 -29.339604,29.33961 -16.203818,0 -29.339608,-13.13579 -29.339608,-29.33961 0,-7.382464 2.72662,-14.128096 7.227753,-19.284785 z M 112.704,76.97207 112.91273,60.670327 c 0,-3.88936 -1.44481,-7.55702 -4.11189,-10.335373 -2.66709,-2.778353 -6.33475,-4.334431 -10.224945,-4.334431 -3.890196,0 -7.557019,1.44481 -10.335372,4.111895 -2.778353,2.667085 -4.334431,6.334745 -4.334431,10.224105 l -0.238407,16.827652 c 4.319239,-2.502344 9.335592,-3.934789 14.686511,-3.934789 5.212454,0 10.107434,1.35927 14.349814,3.742687 z M 90.908444,69.005386 c 1.779787,0 3.222589,-1.442802 3.222589,-3.222589 0,-1.779786 -1.442802,-3.222588 -3.222589,-3.222588 -1.779786,0 -3.222588,1.442802 -3.222588,3.222588 0,1.779787 1.442802,3.222589 3.222588,3.222589 z m 15.114036,0 c 1.77979,0 3.22259,-1.442802 3.22259,-3.222589 0,-1.779786 -1.4428,-3.222588 -3.22259,-3.222588 -1.77978,0 -3.22258,1.442802 -3.22258,3.222588 0,1.779787 1.4428,3.222589 3.22258,3.222589 z"
       fill="#000000"
       id="path9"
       style="fill:#808080;fill-opacity:1" />
    <path
       d="m 95.687111,97.790327 -1.111843,21.003713 h 8.224632 l -1.66735,-21.114981 c 2.00031,-1.000575 3.33385,-3.000889 3.33385,-5.446275 0,-3.333856 -2.77835,-6.112209 -6.112204,-6.112209 -3.333856,0 -6.112209,2.778353 -6.112209,6.112209 0.111268,2.556654 1.44481,4.556131 3.445124,5.557543 z"
       fill="#ed1c24"
       id="path10"
       style="fill:#808080;fill-opacity:1" />
    <path
       d="M 27.783529,11.548444 C 24.78264,7.1035817 20.559477,4.5469281 16.114614,4.5469281 c -4.556967,0 -8.6688624,2.444549 -11.7810192,6.8902489 C 1.5560784,15.549909 0,20.995346 0,26.66332 c 0,5.667138 1.5560784,11.113412 4.3344314,15.225307 3.0008889,4.444863 7.2240526,6.890249 11.6689146,6.890249 4.4457,0 8.668863,-2.444549 11.78102,-6.890249 2.000314,-2.889621 3.333856,-6.334745 3.889359,-10.113673 0.111268,-0.666771 0.77804,-1.222274 1.444811,-1.222274 l 176.148914,0.111268 c 0.77804,0 1.44481,-0.666772 1.55608,-1.444811 v -4.668235 c 0,-0.778039 -0.66677,-1.44481 -1.44481,-1.555242 h -5.33417 c -0.77804,0 -1.44481,-0.666771 -1.44481,-1.556078 V 1.6573072 c 0,-0.77803923 -0.66677,-1.44481047 -1.44481,-1.55607844 H 178.9281 c -0.77804,0 -1.44481,0.66677124 -1.55607,1.44481044 V 21.328314 c 0,0.778039 -0.66678,1.44481 -1.55608,1.44481 h -1.33355 c -0.77803,0 -1.44481,-0.666771 -1.44481,-1.555242 V 6.1038431 c 0,-0.7780392 -0.66677,-1.4448104 -1.44481,-1.5560784 h -3.44512 c -0.77804,0 -1.44481,0.6667712 -1.55608,1.4448105 V 21.106614 c 0,0.77804 -0.66677,1.444811 -1.55524,1.444811 H 33.229804 c -0.778039,0 -1.333543,-0.555503 -1.444811,-1.222275 -0.778875,-3.445961 -2.000313,-7.002353 -4.001464,-9.780706 z M 16.003346,42.555399 c -5.334169,0 -9.8911369,-7.335321 -9.8911369,-15.892079 0,-8.557595 4.5569679,-15.892915 10.0024049,-15.892915 5.445438,0 9.891138,7.33532 9.891138,15.892915 0,8.557595 -4.668236,15.892079 -10.002406,15.892079 z"
       fill="#ed1c24"
       id="path11"
       style="fill:#808080;fill-opacity:1" />
    <path
       d="M 55.790431,33.331033 C 55.012392,32.219189 54.234353,31.663686 53.456314,30.55268 v 0 H 43.342641 V 18.327425 c -3.112157,1.777778 -5.223739,5.11247 -5.223739,8.890562 0,5.667974 4.556967,10.224104 10.224941,10.224104 3.11132,0 5.89051,-1.44481 7.779556,-3.556392 0,-0.220862 -0.222536,-0.33213 -0.332968,-0.554666 z"
       fill="#000000"
       id="path12"
       style="fill:#808080;fill-opacity:1" />
    <path
       d="m 140.80837,33.331033 c 0.77804,-1.111844 0.99973,-1.667347 1.77777,-2.778353 h 0.55551 10.11283 V 18.327425 c 3.11216,1.777778 5.22374,5.11247 5.22374,8.890562 0,5.667974 -4.55613,10.224104 -10.2241,10.224104 -3.11216,0 -5.89051,-1.44481 -7.77956,-3.556392 8.4e-4,-0.220862 0.11127,-0.33213 0.33381,-0.554666 z"
       fill="#000000"
       id="path13"
       style="fill:#808080;fill-opacity:1" />
  </g>
</svg>
