<?xml version="1.0" encoding="UTF-8" standalone="no"?>
<!-- Uploaded to: SVG Repo, www.svgrepo.com, Generator: SVG Repo Mixer Tools -->

<svg
   aria-label="Cloudflare"
   role="img"
   viewBox="0 0 512 512"
   version="1.1"
   id="svg2"
   sodipodi:docname="cloudflare-svgrepo-com.svg"
   inkscape:version="1.3.2 (091e20e, 2023-11-25)"
   xmlns:inkscape="http://www.inkscape.org/namespaces/inkscape"
   xmlns:sodipodi="http://sodipodi.sourceforge.net/DTD/sodipodi-0.dtd"
   xmlns="http://www.w3.org/2000/svg"
   xmlns:svg="http://www.w3.org/2000/svg">
  <defs
     id="defs2" />
  <sodipodi:namedview
     id="namedview2"
     pagecolor="#ffffff"
     bordercolor="#000000"
     borderopacity="0.25"
     inkscape:showpageshadow="2"
     inkscape:pageopacity="0.0"
     inkscape:pagecheckerboard="0"
     inkscape:deskcolor="#d1d1d1"
     inkscape:zoom="1.6894531"
     inkscape:cx="256"
     inkscape:cy="256"
     inkscape:window-width="1392"
     inkscape:window-height="1212"
     inkscape:window-x="961"
     inkscape:window-y="1300"
     inkscape:window-maximized="0"
     inkscape:current-layer="svg2" />
  <path
     fill="#f38020"
     d="M331 326c11-26-4-38-19-38l-148-2c-4 0-4-6 1-7l150-2c17-1 37-15 43-33 0 0 10-21 9-24a97 97 0 0 0-187-11c-38-25-78 9-69 46-48 3-65 46-60 72 0 1 1 2 3 2h274c1 0 3-1 3-3z"
     id="path1"
     style="fill:#808080;fill-opacity:1" />
  <path
     fill="#faae40"
     d="M381 224c-4 0-6-1-7 1l-5 21c-5 16 3 30 20 31l32 2c4 0 4 6-1 7l-33 1c-36 4-46 39-46 39 0 2 0 3 2 3h113l3-2a81 81 0 0 0-78-103"
     id="path2"
     style="fill:#808080;fill-opacity:1" />
</svg>
