<?xml version="1.0" encoding="UTF-8" standalone="no"?>
<!-- Uploaded to: SVG Repo, www.svgrepo.com, Generator: SVG Repo Mixer Tools -->

<svg
   fill="#000000"
   version="1.1"
   id="Layer_1"
   width="800px"
   height="800px"
   viewBox="0 0 256 249"
   enable-background="new 0 0 256 249"
   xml:space="preserve"
   sodipodi:docname="developer-svgrepo-com.svg"
   inkscape:version="1.3.2 (091e20e, 2023-11-25)"
   xmlns:inkscape="http://www.inkscape.org/namespaces/inkscape"
   xmlns:sodipodi="http://sodipodi.sourceforge.net/DTD/sodipodi-0.dtd"
   xmlns="http://www.w3.org/2000/svg"
   xmlns:svg="http://www.w3.org/2000/svg"><defs
   id="defs1" /><sodipodi:namedview
   id="namedview1"
   pagecolor="#ffffff"
   bordercolor="#000000"
   borderopacity="0.25"
   inkscape:showpageshadow="2"
   inkscape:pageopacity="0.0"
   inkscape:pagecheckerboard="0"
   inkscape:deskcolor="#d1d1d1"
   inkscape:zoom="1.08125"
   inkscape:cx="400.46243"
   inkscape:cy="400"
   inkscape:window-width="1392"
   inkscape:window-height="1212"
   inkscape:window-x="1003"
   inkscape:window-y="1465"
   inkscape:window-maximized="0"
   inkscape:current-layer="Layer_1" />
<path
   d="M47.522,170.287l11.172,76.681h138.612l11.172-76.681H47.522z M128,215.249c-5.748,0-10.407-3.063-10.407-6.84  s4.659-6.84,10.407-6.84c5.748,0,10.407,3.062,10.407,6.84S133.748,215.249,128,215.249z M233.315,233.054h-26.028l10.292-70.639  H38.421l10.292,70.639H22.685c-14.848,0-24.85-15.195-18.978-28.834l36.809-85.489c7.149-16.605,23.493-27.362,41.571-27.362h14.486  l22.885,34.061l4.665-22.254l-7.809-11.807h23.491l-7.81,11.807l4.655,22.098l22.78-33.905h14.486  c18.078,0,34.422,10.757,41.571,27.362l36.808,85.489C258.165,217.858,248.164,233.054,233.315,233.054z M128,2.033  c22.496,0,40.733,18.237,40.733,40.733S150.496,83.498,128,83.498S87.267,65.261,87.267,42.765S105.504,2.033,128,2.033z"
   id="path1"
   style="fill:#808080;fill-opacity:1" />
</svg>
