<?xml version="1.0" encoding="UTF-8" standalone="no"?>
<!-- Generator: Adobe Illustrator 26.0.3, SVG Export Plug-In . SVG Version: 6.00 Build 0)  -->

<svg
   version="1.0"
   id="katman_1"
   x="0px"
   y="0px"
   viewBox="0 0 450 450"
   xml:space="preserve"
   sodipodi:docname="DNS Icon.svg"
   inkscape:version="1.3.2 (091e20e, 2023-11-25)"
   width="450"
   height="450"
   xmlns:inkscape="http://www.inkscape.org/namespaces/inkscape"
   xmlns:sodipodi="http://sodipodi.sourceforge.net/DTD/sodipodi-0.dtd"
   xmlns="http://www.w3.org/2000/svg"
   xmlns:svg="http://www.w3.org/2000/svg"><defs
   id="defs6" /><sodipodi:namedview
   id="namedview6"
   pagecolor="#ffffff"
   bordercolor="#000000"
   borderopacity="0.25"
   inkscape:showpageshadow="2"
   inkscape:pageopacity="0.0"
   inkscape:pagecheckerboard="0"
   inkscape:deskcolor="#d1d1d1"
   inkscape:zoom="1.2666667"
   inkscape:cx="300"
   inkscape:cy="224.60526"
   inkscape:window-width="1392"
   inkscape:window-height="1212"
   inkscape:window-x="856"
   inkscape:window-y="1250"
   inkscape:window-maximized="0"
   inkscape:current-layer="katman_1" />
<style
   type="text/css"
   id="style1">
	.st0{fill:#1E77BD;}
	.st1{fill:#3F95D1;}
	.st2{fill:#FFFFFF;}
	.st3{fill:#D8EBF1;}
</style>
<path
   id="path1"
   style="display:inline;fill:#808080;fill-opacity:1;stroke-width:1.55143"
   class="st0"
   d="M 225.09961,0.27446522 C 101.14082,0.27446522 0.763158,100.65213 0.763158,224.61092 c 0,3.91519 0.101308,7.80591 0.299985,11.6721 0.05275,1.02491 0.166825,2.03316 0.23332,3.05439 0.181952,2.79845 0.364586,5.59651 0.648452,8.36622 0.150023,1.46196 0.376486,2.90079 0.554512,4.35431 0.288737,2.36008 0.556546,4.7263 0.918138,7.06325 0.171387,1.10653 0.400316,2.19265 0.587837,3.29377 0.449357,2.64114 0.895394,5.28455 1.436285,7.89351 0.227657,1.09685 0.510887,2.17261 0.754508,3.26345 0.572463,2.56573 1.143297,5.13135 1.802935,7.66324 0.292538,1.12193 0.639034,2.22117 0.948436,3.33618 0.694902,2.50616 1.390595,5.01128 2.169585,7.48141 0.299814,0.95011 0.642417,1.87952 0.954487,2.8241 0.854994,2.58944 1.720647,5.17386 2.666524,7.7208 0.328888,0.88504 0.696624,1.75043 1.03631,2.63016 0.992916,2.57289 1.997577,5.14003 3.081656,7.66626 0.370389,0.86269 0.779687,1.70341 1.160548,2.56047 1.116163,2.51304 2.246489,5.01795 3.451331,7.4814 0.389642,0.79635 0.813292,1.57252 1.212057,2.36352 1.258596,2.49786 2.536406,4.98343 3.884626,7.42687 0.41165,0.74574 0.85284,1.4715 1.27266,2.212 1.37733,2.43029 2.77182,4.84798 4.23614,7.22083 0.46706,0.75653 0.96359,1.49181 1.43932,2.2423 1.4888,2.34965 2.9938,4.68582 4.56643,6.9754 0.45201,0.65776 0.92899,1.29567 1.3878,1.94836 1.64529,2.34164 3.31383,4.66421 5.04518,6.93903 0.44302,0.5818 0.90592,1.14686 1.35447,1.72415 1.79,2.30503 3.60801,4.5856 5.48455,6.81782 0.44095,0.52418 0.89977,1.03139 1.34539,1.55143 1.93027,2.25414 3.88902,4.48176 5.90574,6.65722 0.41417,0.44638 0.84283,0.87818 1.26054,1.32114 2.09508,2.22367 4.22237,4.41445 6.40572,6.55116 0.0991,0.0968 0.19165,0.2003 0.29089,0.29695 l 0.009,-0.009 c 40.43729,39.4298 95.65413,63.77234 156.531,63.77234 123.95879,0 224.33645,-100.37766 224.33645,-224.33645 0,-116.27419 -88.31917,-211.797106 -201.57404,-223.194092 -0.003,-3.01e-4 -0.006,3.009e-4 -0.009,0 -0.30283,-0.030641 -0.61186,-0.040267 -0.9151,-0.069692 -3.43971,-0.3319304 -6.8947,-0.60979958 -10.37823,-0.78480738 -0.003,-1.505e-4 -0.006,1.505e-4 -0.009,0 -3.79263,-0.1915801 -7.61111,-0.2878635 -11.4509,-0.2878635 z m 0,16.90818478 c 56.93749,0 108.44512,22.963661 145.8346,59.887694 6.51602,6.671157 12.56842,13.495643 18.15357,20.63223 27.15003,35.062336 43.28374,79.122476 43.74917,126.596246 0,48.71491 -16.91124,93.24169 -44.83699,128.61431 -5.7403,7.13657 -11.94664,13.96228 -18.46264,20.32315 -36.61376,34.90719 -85.63667,57.0927 -140.24703,58.1787 -1.86172,0 -3.87918,0.3121 -6.05119,0.3121 -2.01686,0 -4.49976,-0.15635 -6.8269,-0.46664 -51.66264,-2.172 -98.36082,-23.27211 -133.42315,-56.47272 C 76.31789,368.73713 69.95763,361.91325 64.21733,354.77666 35.20558,319.2489 17.828909,273.78945 17.828909,224.29882 17.828909,175.89419 34.74015,131.06015 62.6659,95.687527 68.4062,88.550956 74.61254,81.722204 81.12854,75.361349 118.36288,39.368159 169.24812,17.18265 225.09961,17.18265 Z m -2.01505,24.513836 c -24.51259,0 -46.23268,25.44474 -60.50584,65.626784 20.47888,4.18887 42.35352,6.5148 65.31468,6.5148 19.70317,0 38.63067,-1.8605 56.62726,-4.96337 -14.73858,-41.112901 -36.6132,-67.178214 -61.4361,-67.178214 z m 55.85155,7.29052 c 12.41144,13.962872 22.96,32.426153 31.33772,53.991044 13.80773,-3.723444 26.99493,-8.377735 38.7858,-13.96289 C 329.20131,70.863422 305.31042,56.899293 278.93611,48.987006 Z m -113.41209,1.863533 c -23.11632,7.912303 -44.52369,20.633455 -62.67543,36.613189 10.54972,4.964582 21.87278,9.463735 33.97394,13.187172 7.91229,-19.703171 17.68634,-36.613205 28.70149,-49.800361 z M 84.23141,107.01117 C 60.18424,135.40234 44.97836,171.55016 42.03064,211.11165 h 21.41097 v 27.6167 H 42.03064 c 3.10287,40.02689 19.2396,76.48683 43.7522,105.18829 13.49744,-6.05057 27.92337,-11.32545 43.28253,-15.51432 -2.79258,-9.92915 -5.42759,-20.16863 -7.5996,-31.02864 h 28.38939 c 1.70658,8.68802 3.41255,16.91063 5.58455,24.82291 22.80602,-4.49915 47.01084,-6.8269 72.29915,-6.8269 22.03032,0 43.1274,1.86232 63.45115,5.27547 1.86171,-7.44686 3.41496,-15.35917 4.96639,-23.27148 h 28.70149 c -1.86172,9.92915 -4.18947,19.54806 -6.8269,28.70149 16.91059,4.49916 33.20126,9.77404 47.93985,16.29004 23.89204,-28.39117 39.25183,-64.07478 41.73412,-103.01569 h -22.9624 v -27.92577 h 23.27148 C 405.22146,172.638 390.48162,137.26588 367.21017,108.8747 c -15.20402,6.67116 -31.80195,12.40904 -49.48826,16.90819 2.48229,7.91229 4.49855,16.29247 6.36027,24.98047 h -28.70149 c -1.08601,-6.82628 -2.63925,-13.1896 -4.19068,-19.55046 -20.1686,3.41315 -41.57598,5.27548 -63.45115,5.27548 -25.13317,0 -49.33799,-2.32776 -72.29915,-6.82691 -1.86172,6.82629 -3.56769,13.65504 -4.80883,21.10189 h -28.38939 c 1.86172,-9.46371 4.18644,-18.77415 6.82388,-27.46216 -15.82459,-4.49915 -30.87109,-9.92916 -44.83396,-16.29003 z m 248.14426,62.30575 c 15.76822,-0.0446 26.45919,5.18154 26.45919,5.18154 l 1.08479,21.87458 c 0,0 -18.46083,-7.44626 -27.45914,-7.91169 -9.77399,-0.46543 -13.03384,3.41315 -12.72355,10.86002 0.46543,11.01513 13.96413,13.9647 24.51383,18.92928 10.54971,4.96459 24.82231,13.65082 21.87459,37.69798 -2.94772,24.20228 -24.82415,29.47721 -39.25244,29.47721 -12.10114,0 -30.562,-7.44506 -30.562,-7.44506 l -1.24235,-25.59862 c 0,0 18.30874,9.46313 25.91072,11.01456 7.44688,1.39629 17.99601,1.55019 19.54744,-11.32667 1.55143,-13.18714 -11.32548,-17.6845 -24.04719,-22.18366 -12.72172,-4.80944 -22.49698,-13.03448 -22.18669,-32.73763 0.15514,-14.58343 11.0152,-25.28713 31.02864,-27.45914 2.4435,-0.2521 4.80157,-0.36634 7.05416,-0.3727 z m -250.16234,3.63011 h 45.92178 c 24.04708,0 43.4401,19.39235 43.4401,43.59463 v 19.23836 c 0,23.89193 -19.39302,43.44009 -43.4401,43.44009 H 82.21333 Z m 108.1336,0 h 28.23788 l 38.78579,68.72964 v -68.72964 h 21.87459 V 279.22011 H 252.40421 L 211.7579,207.23307 v 71.98704 h -21.41097 z m -84.39548,17.68693 v 70.89922 h 18.77172 c 13.18711,0 23.7351,-10.54798 23.7351,-23.73509 v -23.42602 c 0,-13.18711 -10.54799,-23.73811 -23.7351,-23.73811 z m 121.78741,147.69511 c -22.80602,0 -44.68368,2.32896 -65.31771,6.51782 12.10116,32.89033 29.01422,55.85095 48.25196,62.98754 4.65429,0.15514 9.46192,0.46664 14.4265,0.46664 2.94772,0 6.05179,-0.002 8.99952,-0.31211 20.01345,-6.51601 37.70041,-30.56203 50.26699,-64.6935 -17.84145,-3.10286 -36.92409,-4.96639 -56.62726,-4.96639 z m 82.53497,10.3964 c -7.75716,20.01346 -17.37727,37.07864 -28.39242,50.57608 24.5126,-7.91229 46.5454,-20.7886 65.31771,-37.3889 -11.63573,-5.27487 -24.04842,-9.46374 -36.92529,-13.18718 z m -173.29374,2.63623 c -11.17029,3.41315 -21.87762,7.29294 -31.96192,12.10238 16.75545,14.58344 36.30474,26.06467 57.86962,33.97696 -9.774,-12.41144 -18.77111,-28.08275 -25.9077,-46.07934 z" />





</svg>
