<?xml version="1.0" encoding="UTF-8" standalone="no"?>
<!-- Uploaded to: SVG Repo, www.svgrepo.com, Generator: SVG Repo Mixer Tools -->

<svg
   aria-label="Docker"
   role="img"
   viewBox="0 0 512 512"
   version="1.1"
   id="svg2"
   sodipodi:docname="docker-svgrepo-com.svg"
   inkscape:version="1.3.2 (091e20e, 2023-11-25)"
   xmlns:inkscape="http://www.inkscape.org/namespaces/inkscape"
   xmlns:sodipodi="http://sodipodi.sourceforge.net/DTD/sodipodi-0.dtd"
   xmlns="http://www.w3.org/2000/svg"
   xmlns:svg="http://www.w3.org/2000/svg">
  <defs
     id="defs2" />
  <sodipodi:namedview
     id="namedview2"
     pagecolor="#ffffff"
     bordercolor="#000000"
     borderopacity="0.25"
     inkscape:showpageshadow="2"
     inkscape:pageopacity="0.0"
     inkscape:pagecheckerboard="0"
     inkscape:deskcolor="#d1d1d1"
     inkscape:zoom="1.6894531"
     inkscape:cx="256"
     inkscape:cy="256"
     inkscape:window-width="1392"
     inkscape:window-height="1212"
     inkscape:window-x="1042"
     inkscape:window-y="1306"
     inkscape:window-maximized="0"
     inkscape:current-layer="svg2" />
  <rect
     width="512"
     height="512"
     rx="15%"
     fill="#ffffff"
     id="rect1"
     style="fill:#ffffff;fill-opacity:0" />
  <path
     stroke="#066da5"
     stroke-width="38"
     d="M296 226h42m-92 0h42m-91 0h42m-91 0h41m-91 0h42m8-46h41m8 0h42m7 0h42m-42-46h42"
     id="path1"
     style="fill:#000000;fill-opacity:1;stroke:#808080;stroke-opacity:1" />
  <path
     fill="#066da5"
     d="m472 228s-18-17-55-11c-4-29-35-46-35-46s-29 35-8 74c-6 3-16 7-31 7H68c-5 19-5 145 133 145 99 0 173-46 208-130 52 4 63-39 63-39"
     id="path2"
     style="fill:#808080;fill-opacity:1" />
</svg>
