<?xml version="1.0" encoding="UTF-8" standalone="no"?>
<!-- Uploaded to: SVG Repo, www.svgrepo.com, Generator: SVG Repo Mixer Tools -->

<svg
   width="30"
   height="30"
   viewBox="0 0 30 30"
   version="1.1"
   id="svg822"
   inkscape:version="1.3.2 (091e20e, 2023-11-25)"
   sodipodi:docname="hdr-boxed-svgrepo-com.svg"
   inkscape:export-filename="hdr-boxed-svgrepo-com.png"
   inkscape:export-xdpi="5760"
   inkscape:export-ydpi="5760"
   xmlns:inkscape="http://www.inkscape.org/namespaces/inkscape"
   xmlns:sodipodi="http://sodipodi.sourceforge.net/DTD/sodipodi-0.dtd"
   xmlns="http://www.w3.org/2000/svg"
   xmlns:svg="http://www.w3.org/2000/svg"
   xmlns:rdf="http://www.w3.org/1999/02/22-rdf-syntax-ns#"
   xmlns:cc="http://creativecommons.org/ns#"
   xmlns:dc="http://purl.org/dc/elements/1.1/">
  <defs
     id="defs816" />
  <sodipodi:namedview
     id="base"
     pagecolor="#ffffff"
     bordercolor="#666666"
     borderopacity="1.0"
     inkscape:pageopacity="0.0"
     inkscape:pageshadow="2"
     inkscape:zoom="12.56293"
     inkscape:cx="14.964662"
     inkscape:cy="22.884789"
     inkscape:document-units="px"
     inkscape:current-layer="layer1"
     showgrid="true"
     units="px"
     inkscape:window-width="1392"
     inkscape:window-height="1212"
     inkscape:window-x="903"
     inkscape:window-y="1314"
     inkscape:window-maximized="0"
     showguides="false"
     inkscape:guide-bbox="true"
     inkscape:showpageshadow="2"
     inkscape:pagecheckerboard="0"
     inkscape:deskcolor="#d1d1d1">
    <sodipodi:guide
       position="21.126168,22.794393"
       orientation="1,0"
       id="guide1575"
       inkscape:locked="false" />
    <sodipodi:guide
       position="22.682243,23.285047"
       orientation="1,0"
       id="guide1635"
       inkscape:locked="false" />
    <sodipodi:guide
       position="22.682243,7.6455921"
       orientation="0,1"
       id="guide1639"
       inkscape:locked="false" />
    <sodipodi:guide
       position="18.859863,18.859863"
       orientation="1,0"
       id="guide1242"
       inkscape:locked="false" />
    <inkscape:grid
       type="xygrid"
       id="grid1103"
       originx="0"
       originy="0"
       spacingy="1"
       spacingx="1"
       units="px"
       visible="true" />
  </sodipodi:namedview>
  <metadata
     id="metadata819">
    <rdf:RDF>
      <cc:Work
         rdf:about="">
        <dc:format>image/svg+xml</dc:format>
        <dc:type
           rdf:resource="http://purl.org/dc/dcmitype/StillImage" />
      </cc:Work>
    </rdf:RDF>
  </metadata>
  <g
     inkscape:label="Layer 1"
     inkscape:groupmode="layer"
     id="layer1"
     transform="translate(0,-289.0625)">
    <g
       aria-label="HDR"
       style="font-style:normal;font-weight:normal;font-size:12.9047px;line-height:1.25;font-family:sans-serif;letter-spacing:0px;word-spacing:0px;display:inline;fill:#000000;fill-opacity:1;stroke:none;stroke-width:1.2"
       id="text823"
       transform="matrix(0.83333326,0,0,0.83333326,2.5000011,50.677103)" />
    <path
       style="display:inline;opacity:1;fill:#808080;fill-opacity:1;stroke:none;stroke-width:1.45946;stroke-miterlimit:4;stroke-dasharray:none;stroke-opacity:0.715556"
       d="m 3.1155558,289.52534 c -1.6459954,0 -2.97111099,1.27897 -2.97111099,2.86764 v 22.94106 c 0,1.58866 1.32511559,2.86762 2.97111099,2.86762 H 26.884445 c 1.645994,0 2.97111,-1.27896 2.97111,-2.86762 v -22.94106 c 0,-1.58867 -1.325116,-2.86764 -2.97111,-2.86764 z m 1.2389302,10.07033 h 1.8685501 l -0.4990537,3.36889 h 2.8608555 l 0.499053,-3.36889 h 1.8540431 l -1.2389299,8.53568 h -1.854043 l 0.5367735,-3.73857 H 5.5179777 l -0.5483789,3.73857 h -1.854043 z m 8.437491,0 h 2.274758 c 1.201363,-2e-5 2.165642,0.23712 2.889868,0.7141 0.724227,0.46873 1.085153,1.3087 1.085153,2.51758 0,0.98683 -0.166761,1.87952 -0.499053,2.6772 -0.323773,0.78945 -0.854546,1.4275 -1.595813,1.91269 -0.732746,0.47697 -1.69394,0.71411 -2.878264,0.71411 h -2.515579 z m 8.187965,0 h 2.721583 c 1.048,-2e-5 1.842432,0.19317 2.37921,0.57967 0.536781,0.38652 0.80371,0.9368 0.80371,1.65225 0,0.58388 -0.15769,1.10772 -0.472941,1.56824 -0.306732,0.4523 -0.837502,0.81817 -1.595811,1.09776 l 1.697362,3.63776 h -2.045539 l -1.392709,-3.34091 H 22.0796 l -0.472939,3.34091 h -1.86565 z m 1.659643,1.30778 -0.368487,2.6016 h 0.995206 c 0.596423,0 1.027026,-0.15517 1.291157,-0.46767 0.264129,-0.32072 0.397502,-0.70113 0.397502,-1.13697 0,-0.35362 -0.11522,-0.60547 -0.345276,-0.76172 -0.230049,-0.15625 -0.596959,-0.23524 -1.099658,-0.23524 z m -8.185063,0.0225 -0.844329,5.87528 h 0.742777 c 0.996879,0 1.706568,-0.39792 2.132585,-1.18739 0.426016,-0.78945 0.641227,-1.71736 0.641227,-2.78641 0,-0.7319 -0.172749,-1.22947 -0.513561,-1.49262 -0.332292,-0.27138 -0.805359,-0.40886 -1.418823,-0.40886 z"
       id="rect838" />
    <g
       aria-label="HDR"
       style="font-style:normal;font-weight:normal;font-size:12.9047px;line-height:1.25;font-family:sans-serif;letter-spacing:0px;word-spacing:0px;display:inline;fill:#000000;fill-opacity:1;stroke:none;stroke-width:1.5"
       id="text823-2"
       transform="matrix(0.66666666,0,0,0.66666666,5.0000001,101.35417)" />
  </g>
</svg>
