<?xml version="1.0" encoding="UTF-8" standalone="no"?>
<svg
   version="1.1"
   viewBox="0.00 0.00 282.00 282.00"
   id="svg1"
   sodipodi:docname="hipflask.svg"
   inkscape:version="1.3.2 (091e20e, 2023-11-25)"
   xmlns:inkscape="http://www.inkscape.org/namespaces/inkscape"
   xmlns:sodipodi="http://sodipodi.sourceforge.net/DTD/sodipodi-0.dtd"
   xmlns="http://www.w3.org/2000/svg"
   xmlns:svg="http://www.w3.org/2000/svg">
  <defs
     id="defs1" />
  <sodipodi:namedview
     id="namedview1"
     pagecolor="#ffffff"
     bordercolor="#000000"
     borderopacity="0.25"
     inkscape:showpageshadow="2"
     inkscape:pageopacity="0.0"
     inkscape:pagecheckerboard="0"
     inkscape:deskcolor="#d1d1d1"
     inkscape:zoom="2.6950355"
     inkscape:cx="141"
     inkscape:cy="140.81447"
     inkscape:window-width="1392"
     inkscape:window-height="1212"
     inkscape:window-x="846"
     inkscape:window-y="1325"
     inkscape:window-maximized="0"
     inkscape:current-layer="svg1" />
  <path
     fill="#000000"
     d="   M 179.69 17.34   Q 178.16 21.36 175.95 26.20   Q 174.99 28.31 175.00 31.59   Q 175.06 49.17 175.03 65.96   Q 175.03 66.83 175.36 67.63   Q 223.55 184.62 244.86 236.32   Q 248.98 246.32 249.30 250.65   C 250.16 262.61 244.94 273.93 233.52 278.49   Q 230.32 279.76 227.76 279.75   Q 201.92 279.63 61.53 279.64   Q 55.42 279.65 52.18 278.37   Q 44.72 275.42 40.57 268.03   Q 33.54 255.53 39.13 242.03   Q 43.99 230.31 110.85 67.60   A 4.45 4.34 56.7 0 0 111.17 65.95   Q 111.21 46.17 111.19 31.25   Q 111.19 28.60 110.28 26.83   Q 108.33 23.02 105.65 17.46   A 1.78 1.77 -13.8 0 0 103.99 16.46   C 101.68 16.54 99.24 16.84 97.21 15.99   C 90.33 13.11 92.16 3.40 99.81 3.38   Q 123.05 3.34 182.99 3.37   Q 186.44 3.37 187.88 4.12   C 192.18 6.36 192.32 12.48 188.42 15.22   C 186.19 16.79 183.82 16.67 181.17 16.42   A 1.44 1.44 0.0 0 0 179.69 17.34   Z   M 124.39 29.40   Q 124.34 30.35 124.32 68.05   Q 124.32 69.36 123.82 70.58   Q 88.93 156.31 52.76 242.99   Q 50.14 249.27 49.98 252.16   C 49.71 257.18 52.20 266.00 58.27 266.07   Q 60.88 266.09 109.64 266.12   A 0.59 0.58 -11.6 0 0 110.18 265.31   Q 107.11 258.03 107.71 250.46   Q 108.05 246.15 112.06 236.48   Q 141.67 164.99 171.29 93.57   Q 171.54 92.97 171.29 92.38   L 162.37 70.70   A 6.36 6.30 -56.5 0 1 161.89 68.28   Q 161.92 30.70 161.87 29.72   C 161.64 25.05 163.75 20.83 165.60 17.48   A 0.66 0.66 0.0 0 0 165.02 16.50   L 120.66 16.50   A 0.67 0.67 0.0 0 0 120.11 17.54   Q 121.00 18.87 123.30 23.31   Q 124.60 25.81 124.39 29.40   Z   M 183.35 265.13   C 180.98 260.64 180.48 254.60 180.96 249.54   Q 181.32 245.83 184.76 237.53   Q 196.30 209.73 207.82 182.02   A 1.29 1.26 45.7 0 0 207.82 181.05   L 179.04 111.12   A 0.34 0.33 59.7 0 0 178.53 110.98   Q 178.17 111.26 177.98 111.73   Q 175.80 117.16 123.68 242.84   Q 121.09 249.09 120.85 251.71   C 120.31 257.64 122.92 266.12 130.25 266.11   Q 165.84 266.08 182.75 266.12   A 0.68 0.68 0.0 0 0 183.35 265.13   Z   M 215.06 266.10   Q 227.01 266.10 227.74 266.05   C 233.76 265.59 236.41 257.95 236.28 253.18   Q 236.18 249.72 233.23 242.63   Q 223.95 220.33 215.70 200.07   Q 215.46 199.48 215.10 199.48   Q 214.73 199.48 214.49 200.07   Q 206.22 220.32 196.91 242.61   Q 193.96 249.70 193.85 253.16   C 193.72 257.93 196.36 265.57 202.38 266.03   Q 203.11 266.09 215.06 266.10   Z"
     id="path1"
     style="fill:#808080" />
</svg>
