<?xml version="1.0" encoding="UTF-8" standalone="no"?>
<svg
   viewBox="0 0 128 128"
   version="1.1"
   id="svg5"
   sodipodi:docname="Homebrew.svg"
   inkscape:version="1.3.2 (091e20e, 2023-11-25)"
   xmlns:inkscape="http://www.inkscape.org/namespaces/inkscape"
   xmlns:sodipodi="http://sodipodi.sourceforge.net/DTD/sodipodi-0.dtd"
   xmlns="http://www.w3.org/2000/svg"
   xmlns:svg="http://www.w3.org/2000/svg">
  <defs
     id="defs5" />
  <sodipodi:namedview
     id="namedview5"
     pagecolor="#ffffff"
     bordercolor="#000000"
     borderopacity="0.25"
     inkscape:showpageshadow="2"
     inkscape:pageopacity="0.0"
     inkscape:pagecheckerboard="0"
     inkscape:deskcolor="#d1d1d1"
     inkscape:zoom="5.9375"
     inkscape:cx="64"
     inkscape:cy="63.915789"
     inkscape:window-width="1392"
     inkscape:window-height="1212"
     inkscape:window-x="885"
     inkscape:window-y="1208"
     inkscape:window-maximized="0"
     inkscape:current-layer="svg5" />
  <path
     d="m 39.676,32.972 c -4.6,0 -8.45,3.142 -9.603,7.39 -4.063,0.571 -7.218,4.031 -7.218,8.246 0,4.1 2.954,7.523 6.84,8.293 a 1.144,1.144 0 0 0 0.018,0.002 46.59,46.59 0 0 1 4.273,0.993 A 1.144,1.144 0 0 0 34,57.9 c 5.603,1.511 16.502,3.582 28.568,3.279 0.77,1.573 1.95,2.907 3.441,3.809 l -0.014,-0.01 c 0.523,0.325 0.946,1.19 0.946,1.696 a 5.444,5.444 0 0 0 5.425,5.427 c 1.417,0 2.756,-0.427 3.77,-1.285 1.015,-0.858 1.66,-2.173 1.66,-3.664 l -0.003,-0.808 a 1.144,1.144 0 0 0 -0.004,-0.092 8.749,8.749 0 0 1 1.004,-4.75 V 61.5 c 0.434,-0.804 0.707,-1.697 0.884,-2.621 1.963,-0.514 3.917,-1.088 5.83,-1.809 a 1.144,1.144 0 0 0 0.005,-0.002 9.541,9.541 0 0 1 2.08,-0.54 l 0.004,-10e-4 a 8.39,8.39 0 0 0 7.23,-8.3 c 0,-4.612 -3.765,-8.378 -8.378,-8.378 -1.33,0 -2.567,0.355 -3.683,0.907 -1.606,-3.64 -5.225,-6.192 -9.447,-6.192 -4.792,0 -8.802,3.298 -9.973,7.73 -1.763,-2.057 -4.318,-3.42 -7.232,-3.42 -2.579,0 -4.847,1.098 -6.577,2.76 -0.66,-4.875 -4.811,-8.663 -9.862,-8.663 z m 0,2.288 a 7.692,7.692 0 0 1 7.267,10.265 1.144,1.144 0 0 0 0.894,1.506 l 0.028,0.005 A 1.144,1.144 0 0 0 49.1,46.279 l 10e-4,0.003 0.002,-0.005 a 1.144,1.144 0 0 0 0.037,-0.023 7.321,7.321 0 0 1 6.977,-5.095 7.319,7.319 0 0 1 6.958,5.042 1.144,1.144 0 0 0 2.224,-0.476 8.046,8.046 0 0 1 8.023,-8.876 8.06,8.06 0 0 1 7.688,5.629 1.144,1.144 0 0 0 1.38,0.762 l 0.801,-0.21 a 1.144,1.144 0 0 0 0.274,-0.111 6.044,6.044 0 0 1 2.986,-0.784 6.073,6.073 0 0 1 6.09,6.09 6.081,6.081 0 0 1 -5.255,6.034 1.144,1.144 0 0 0 -0.005,0 11.812,11.812 0 0 0 -2.585,0.672 56.773,56.773 0 0 1 -6.272,1.944 1.144,1.144 0 0 0 -0.862,0.995 6.805,6.805 0 0 1 -0.78,2.548 1.144,1.144 0 0 0 -10e-4,0.004 11.039,11.039 0 0 0 -1.27,5.996 l -0.002,-0.094 0.004,0.826 c 0,0.875 -0.313,1.465 -0.85,1.918 -0.535,0.454 -1.34,0.746 -2.293,0.746 a 3.123,3.123 0 0 1 -3.14,-3.14 4.281,4.281 0 0 0 -2.024,-3.639 1.144,1.144 0 0 0 -0.01,-0.01 6.852,6.852 0 0 1 -2.839,-3.394 1.144,1.144 0 0 0 -1.105,-0.732 C 51.198,59.305 40.13,57.179 34.614,55.692 L 34.6,55.688 A 48.032,48.032 0 0 0 30.128,54.65 l 0.02,0.003 c -2.84,-0.563 -4.999,-3.046 -4.999,-6.049 a 6.071,6.071 0 0 1 5.873,-6.08 1.144,1.144 0 0 0 1.085,-0.938 7.695,7.695 0 0 1 7.578,-6.331 z M 42.134,0.018 a 1.144,1.144 0 0 0 -0.9,0.811 c -1.682,5.888 0.956,11.472 4.474,15.656 a 32.248,32.248 0 0 0 2.54,2.679 10.852,10.852 0 0 0 -3.55,0.1 c -6.317,1.244 -11.696,5.254 -14.618,13.505 -1.198,3.384 -1.251,6.903 -0.865,10.1 a 6.127,6.127 0 0 1 1.8,-0.339 1.144,1.144 0 0 0 0.437,-0.172 c -0.32,-2.887 -0.225,-5.978 0.784,-8.827 2.713,-7.662 7.224,-10.906 12.902,-12.024 1.956,-0.384 3.544,-0.057 5.28,0.508 0.868,0.284 1.763,0.633 2.724,0.966 l 0.178,0.055 c 0.91,0.31 1.875,0.604 2.934,0.807 a 1.144,1.144 0 0 0 1.344,-1.311 12.959,12.959 0 0 1 -0.003,-4.198 c 0.047,-0.28 0.088,-0.563 0.148,-0.837 0.35,-1.56 0.947,-2.992 1.65,-4.268 a 19.764,19.764 0 0 1 3.535,-4.598 c 0.376,0.285 0.753,0.54 1.128,0.96 0.183,0.205 0.172,0.215 0.312,0.388 -1.77,1.643 -5.705,6.102 -5.078,13.084 a 1.144,1.144 0 0 0 1.181,1.039 c 2.503,-0.09 4.174,-0.92 5.634,-1.593 1.46,-0.673 2.712,-1.216 4.968,-1.146 4.667,0.147 8.737,3.814 10.339,6.051 1.73,2.634 3.858,5.908 3.513,14.883 v 0.038 a 6.05,6.05 0 0 1 1.524,-0.197 c 0.259,0 0.513,0.02 0.764,0.054 0.316,-9.267 -2.162,-13.403 -3.908,-16.06 a 1.144,1.144 0 0 0 -0.023,-0.038 c -1.945,-2.722 -6.366,-6.837 -12.137,-7.017 -2.681,-0.083 -4.49,0.66 -5.996,1.354 -1.161,0.535 -2.246,0.944 -3.571,1.175 0.009,-6.858 5.037,-10.568 5.037,-10.568 a 1.144,1.144 0 0 0 0.261,-1.584 c 0,0 -0.461,-0.654 -1.112,-1.385 -0.65,-0.73 -1.438,-1.575 -2.507,-2.021 a 1.144,1.144 0 0 0 -1.201,0.2 22.99,22.99 0 0 0 -4.665,5.877 c -0.256,0.464 -0.48,0.971 -0.705,1.48 -0.493,-1.63 -1.16,-3.144 -2.035,-4.54 C 52.236,5.215 48.334,2.323 42.761,0.083 A 1.144,1.144 0 0 0 42.134,0.018 Z m 1.036,2.775 c 4.533,2.018 7.624,4.428 9.541,7.486 1.4,2.23 2.21,4.867 2.548,7.989 0.014,0.151 0.024,0.311 0.038,0.466 v 10e-4 c 0.085,0.902 0.137,1.834 0.148,2.818 -0.33,-0.175 -0.724,-0.428 -1.097,-0.655 -0.243,-0.148 -0.457,-0.254 -0.712,-0.423 -1.952,-1.284 -4.252,-3.17 -6.178,-5.46 C 44.514,11.511 42.468,7.231 43.17,2.792 Z m 44.049,51.484 a 11.797,11.797 0 0 0 -2.527,0.66 52.968,52.968 0 0 1 -1.928,0.681 c -0.061,0.115 -0.088,0.172 -0.153,0.298 -0.033,0.064 -0.148,0.236 -0.191,0.313 h 2.847 v 3.36 a 3.07,3.07 0 0 0 3.055,3.052 h 7.085 a 7.452,7.452 0 0 1 7.45,7.45 v 30.956 a 7.456,7.456 0 0 1 -2.192,5.277 7.455,7.455 0 0 1 -3.822,2.034 7.448,7.448 0 0 1 -1.464,0.14 1.144,1.144 0 0 0 -0.005,0 c -2.39,0.005 -4.898,0 -6.988,-0.028 a 3.055,3.055 0 0 0 -3.116,3.05 c 0,2.5 0,6.735 -0.01,8.553 a 1.144,1.144 0 0 0 0,0.005 0.76,0.76 0 0 1 -0.265,0.571 c -1.157,0.863 -4.513,2.628 -10.991,3.83 a 64.93,64.93 0 0 1 -4.268,0.64 c -3.104,0.367 -6.737,0.597 -10.957,0.597 -16.572,0 -24.463,-2.779 -26.608,-4.01 a 0.762,0.762 0 0 1 -0.35,-0.633 L 31.683,56.23 h 4.063 C 35.689,56.125 35.66,56.054 35.604,55.95 35.278,55.867 34.905,55.78 34.608,55.7 l -0.014,-0.003 a 48.032,48.032 0 0 0 -4.472,-1.038 l 0.018,0.004 a 6.212,6.212 0 0 1 -0.517,-0.128 1.144,1.144 0 0 0 -0.228,0.554 c 0,0 0.123,57.552 0.14,65.988 a 3.057,3.057 0 0 0 1.412,2.569 1.144,1.144 0 0 0 0.042,0.023 c 2.862,1.657 10.915,4.332 27.789,4.332 17.268,0 25.067,-3.613 27.63,-5.55 a 1.144,1.144 0 0 0 0.037,-0.032 3.047,3.047 0 0 0 1.101,-2.342 c 0.01,-1.837 0.01,-6.06 0.01,-8.558 a 0.764,0.764 0 0 1 0.228,-0.546 1.144,1.144 0 0 0 0,-0.001 0.764,0.764 0 0 1 0.553,-0.218 1.144,1.144 0 0 0 0.01,0 c 2.11,0.028 4.628,0.032 7.025,0.028 a 9.739,9.739 0 0 0 9.772,-9.737 l 10e-4,-30.955 a 9.74,9.74 0 0 0 -9.739,-9.739 h -7.084 a 0.748,0.748 0 0 1 -0.765,-0.764 v -4.503 a 1.144,1.144 0 0 0 -0.336,-0.81 z m 1.58,13.728 a 3.53,3.53 0 0 0 -1.351,0.269 3.53,3.53 0 0 0 -1.147,0.764 1.144,1.144 0 0 0 0,0.001 3.53,3.53 0 0 0 -0.764,1.145 3.538,3.538 0 0 0 -0.269,1.352 v 27.78 a 3.53,3.53 0 0 0 0.27,1.352 3.53,3.53 0 0 0 0.763,1.146 3.53,3.53 0 0 0 1.147,0.764 3.538,3.538 0 0 0 1.351,0.27 h 6.082 a 3.53,3.53 0 0 0 1.352,-0.27 3.53,3.53 0 0 0 1.145,-0.764 3.53,3.53 0 0 0 0.764,-1.146 3.538,3.538 0 0 0 0.27,-1.351 v -27.78 a 3.53,3.53 0 0 0 -0.27,-1.352 3.53,3.53 0 0 0 -0.763,-1.145 1.144,1.144 0 0 0 -0.001,0 3.53,3.53 0 0 0 -1.147,-0.765 3.538,3.538 0 0 0 -1.35,-0.27 z m 0,2.288 h 6.082 a 1.244,1.244 0 0 1 1.243,1.242 v 27.782 a 1.243,1.243 0 0 1 -1.243,1.243 H 88.8 a 1.243,1.243 0 0 1 -0.879,-0.363 H 87.92 a 1.241,1.241 0 0 1 -0.363,-0.88 v -27.78 a 1.244,1.244 0 0 1 0.767,-1.15 c 0.15,-0.06 0.31,-0.093 0.476,-0.093 z"
     id="path1"
     style="display:inline;fill:#808080;fill-opacity:1;stroke:#808080;stroke-opacity:1" />
  <path
     id="path2"
     style="display:inline;fill:#808080;fill-opacity:1;stroke:#808080;stroke-opacity:1"
     d="m 43.171875,2.7949219 c -0.700102,4.4373066 1.344492,8.7182141 4.289063,12.2207031 2.566997,3.052997 5.79733,5.386111 7.986328,6.537109 -0.052,-4.603995 -0.868424,-8.299487 -2.732422,-11.271484 C 50.794846,7.2232531 47.70487,4.8109199 43.171875,2.7949219 Z m 19.759766,5.8359375 a 19.783,19.783 0 0 0 -3.535157,4.5976566 c -1.407998,2.551997 -2.391874,5.729738 -1.796875,9.302734 a 1.144,1.144 0 0 1 -1.34375,1.3125 c -2.252997,-0.431 -4.099939,-1.262126 -5.835937,-1.828125 -1.734998,-0.566999 -3.322299,-0.892812 -5.279297,-0.507813 -5.679994,1.116999 -10.190346,4.360446 -12.902344,12.023438 -0.448999,1.269999 -0.707844,2.590017 -0.839843,3.916016 1.779998,-2.692998 4.8163,-4.47461 8.279296,-4.47461 5.050995,0 9.200282,3.791068 9.863282,8.664063 1.727998,-1.659999 3.997174,-2.759766 6.576172,-2.759766 2.912997,0 5.468423,1.362924 7.232421,3.419922 1.170999,-4.430996 5.179661,-7.730469 9.972657,-7.730469 4.221995,0 7.839267,2.55341 9.447265,6.191406 a 8.866,8.866 0 0 1 2.171875,-0.740234 c -0.076,-7.240993 -1.956345,-10.209565 -3.527344,-12.601562 -1.602998,-2.236998 -5.670895,-5.904735 -10.33789,-6.052735 -2.255998,-0.069 -3.510752,0.474485 -4.96875,1.146485 -1.459999,0.672999 -3.129815,1.50475 -5.632813,1.59375 A 1.144,1.144 0 0 1 59.294922,23.0625 c -0.629999,-6.981993 3.30522,-11.439986 5.074219,-13.0839844 -0.14,-0.1719998 -0.126594,-0.1817189 -0.308594,-0.3867187 -0.376,-0.4199996 -0.752907,-0.6749378 -1.128906,-0.9609375 z" />
  <path
     id="path3"
     style="display:inline;fill:#808080;fill-opacity:1"
     d="m 36.042969,58.419922 v 55.308598 a 1.91,1.91 0 0 0 0.953125,1.65625 c 2.416997,1.15099 9.427809,3.90039 21.716797,3.90039 12.371987,0 19.173174,-3.34076 21.451171,-4.71875 a 1.903,1.903 0 0 0 0.873047,-1.59766 c 0.005,-7.31599 0.0059,-48.471615 0.0059,-54.474609 -0.456,0.127999 -0.910141,0.267718 -1.369141,0.386718 a 10.814,10.814 0 0 1 -0.345703,1.355469 c -0.143,0.44 -0.319156,0.863626 -0.535156,1.265625 l -0.0039,0.0039 a 8.758,8.758 0 0 0 -1.001953,4.75 1.144,1.144 0 0 1 0.0039,0.09375 l 0.002,0.804688 a 4.824,4.824 0 0 1 -0.449219,2.070312 4.693,4.693 0 0 1 -0.523438,0.871094 4.577,4.577 0 0 1 -0.6875,0.722656 5.067,5.067 0 0 1 -0.816406,0.564453 5.498,5.498 0 0 1 -0.917968,0.400391 6.043,6.043 0 0 1 -0.990235,0.240235 c -0.34,0.054 -0.690922,0.08203 -1.044922,0.08203 A 5.387,5.387 0 0 1 69.337891,71.175781 5.498,5.498 0 0 1 67.365234,68.785156 5.375,5.375 0 0 1 66.9375,66.677734 c 0,-0.125999 -0.02822,-0.27564 -0.07422,-0.43164 A 2.623,2.623 0 0 0 66.660156,65.763672 2.613,2.613 0 0 0 66.359375,65.3125 1.585,1.585 0 0 0 65.992188,64.982422 l 0.01367,0.0078 a 8.686,8.686 0 0 1 -1.058593,-0.753906 8.942,8.942 0 0 1 -0.931641,-0.898437 9.265,9.265 0 0 1 -0.798828,-1.023438 9.59,9.59 0 0 1 -0.652344,-1.130859 c -1.507998,0.038 -2.997939,0.03777 -4.460937,0.0098 A 104.01,104.01 0 0 1 53.798828,61.013672 109.19,109.19 0 0 1 49.699219,60.679688 111.58,111.58 0 0 1 42.316406,59.6875 104.06,104.06 0 0 1 39.126953,59.097656 90.492,90.492 0 0 1 36.337891,58.494141 Z m 6.617187,3.503906 a 2.63,2.63 0 0 1 2.632813,2.63086 v 45.748042 a 2.63,2.63 0 0 1 -0.03711,0.41211 2.63,2.63 0 0 1 0,0.002 2.63,2.63 0 0 1 0,0.004 2.63,2.63 0 0 1 -0.08789,0.36914 2.63,2.63 0 0 1 -0.0078,0.0293 2.63,2.63 0 0 1 -0.01758,0.0449 2.63,2.63 0 0 1 -0.107422,0.25977 2.63,2.63 0 0 1 -0.03125,0.0781 2.63,2.63 0 0 1 -0.03125,0.0508 2.63,2.63 0 0 1 -0.160156,0.25586 2.63,2.63 0 0 1 -0.02734,0.0449 2.63,2.63 0 0 1 -0.0098,0.0117 2.63,2.63 0 0 1 -0.21875,0.25977 2.63,2.63 0 0 1 -0.03516,0.0391 2.63,2.63 0 0 1 -0.002,0.004 2.63,2.63 0 0 1 -0.06055,0.0527 2.63,2.63 0 0 1 -0.230468,0.19532 2.63,2.63 0 0 1 -0.02344,0.0195 2.63,2.63 0 0 1 -0.0918,0.0566 2.63,2.63 0 0 1 -0.189453,0.11523 2.63,2.63 0 0 1 -0.07227,0.0449 2.63,2.63 0 0 1 -0.103515,0.043 2.63,2.63 0 0 1 -0.177735,0.0723 2.63,2.63 0 0 1 -0.09961,0.041 2.63,2.63 0 0 1 -0.07031,0.0176 2.63,2.63 0 0 1 -0.185547,0.0449 2.63,2.63 0 0 1 -0.146485,0.0352 2.63,2.63 0 0 1 -0.05664,0.004 2.63,2.63 0 0 1 -0.0078,0.002 2.63,2.63 0 0 1 -0.11914,0.008 2.63,2.63 0 0 1 -0.226563,0.0176 2.63,2.63 0 0 1 -1.009765,-0.19922 2.63,2.63 0 0 1 -0.851563,-0.57031 2.63,2.63 0 0 1 -0.570313,-0.85352 2.63,2.63 0 0 1 -0.201171,-1.00781 V 64.560547 a 2.63,2.63 0 0 1 0.002,-0.0059 2.63,2.63 0 0 1 0.199218,-1.001954 2.63,2.63 0 0 1 0.002,-0.002 2.63,2.63 0 0 1 2.43164,-1.626953 z" />
</svg>
