<?xml version="1.0" encoding="UTF-8" standalone="no"?>
<!-- Uploaded to: SVG Repo, www.svgrepo.com, Generator: SVG Repo Mixer Tools -->

<svg
   fill="#000000"
   height="800px"
   width="800px"
   version="1.2"
   id="Layer_1"
   viewBox="0 0 256 256"
   xml:space="preserve"
   sodipodi:docname="hot_soup.svg"
   inkscape:version="1.3.2 (091e20e, 2023-11-25)"
   xmlns:inkscape="http://www.inkscape.org/namespaces/inkscape"
   xmlns:sodipodi="http://sodipodi.sourceforge.net/DTD/sodipodi-0.dtd"
   xmlns="http://www.w3.org/2000/svg"
   xmlns:svg="http://www.w3.org/2000/svg"><defs
   id="defs1" /><sodipodi:namedview
   id="namedview1"
   pagecolor="#ffffff"
   bordercolor="#000000"
   borderopacity="0.25"
   inkscape:showpageshadow="2"
   inkscape:pageopacity="0.0"
   inkscape:pagecheckerboard="0"
   inkscape:deskcolor="#d1d1d1"
   inkscape:zoom="0.95"
   inkscape:cx="400"
   inkscape:cy="399.47368"
   inkscape:window-width="1392"
   inkscape:window-height="1212"
   inkscape:window-x="805"
   inkscape:window-y="1292"
   inkscape:window-maximized="0"
   inkscape:current-layer="Layer_1" />
<path
   id="XMLID_3_"
   d="M255.3,127c-3.1,51.4-36.3,94.5-82.3,111.7V256H83v-17.3C37,221.5,3.8,178.4,0.7,127l171.1-0.1 M163.6,79.4  c0,7.8,3.2,12,5.7,15.3c0.7,1,1.4,1.9,2,2.8c0.9,1.4,2.3,2.1,3.8,2.1c0.8,0,1.6-0.2,2.4-0.7c2.1-1.3,2.8-4.1,1.5-6.2  c-0.8-1.3-1.7-2.4-2.5-3.5c-2.2-3-3.9-5.1-3.9-9.9c0-4.8,1.6-6.9,3.9-9.9c2.5-3.3,5.7-7.5,5.7-15.3s-3.2-12-5.7-15.3l-0.5-0.6  c-1.5-2-4.3-2.4-6.3-0.9c-2,1.5-2.4,4.3-0.9,6.3l0.5,0.6c2.2,3,3.9,5.1,3.9,9.9c0,4.8-1.6,6.9-3.9,9.9  C166.7,67.4,163.6,71.6,163.6,79.4z M115.7,71c0,11.2,4.4,16.9,8.3,22c1.2,1.5,2.2,2.9,3.2,4.5c0.9,1.4,2.3,2.1,3.8,2.1  c0.8,0,1.6-0.2,2.4-0.7c2.1-1.3,2.8-4.1,1.5-6.2c-1.2-1.9-2.5-3.6-3.7-5.2c-3.4-4.5-6.4-8.4-6.4-16.5s3-12,6.4-16.5  c3.9-5.1,8.3-10.8,8.3-22c0-11.1-4.4-16.9-8.3-22l-0.7-0.9c-1.5-2-4.3-2.4-6.3-0.9c-2,1.5-2.4,4.3-0.9,6.3l0.7,1  c3.4,4.5,6.4,8.4,6.4,16.5c0,8.1-3,12-6.4,16.5C120.1,54.1,115.7,59.9,115.7,71z M72.9,79.4c0,7.8,3.2,12,5.7,15.3  c0.7,1,1.4,1.9,2,2.8c0.9,1.4,2.3,2.1,3.8,2.1c0.8,0,1.6-0.2,2.4-0.7c2.1-1.3,2.8-4.1,1.5-6.2c-0.8-1.3-1.7-2.4-2.5-3.5  c-2.2-3-3.9-5.1-3.9-9.9c0-4.8,1.6-6.9,3.9-9.9c2.5-3.3,5.7-7.5,5.7-15.3c0-7.8-3.2-12-5.7-15.3l-0.5-0.6c-1.5-2-4.3-2.4-6.3-0.9  c-2,1.5-2.4,4.3-0.9,6.3l0.5,0.6c2.2,3,3.9,5.1,3.9,9.9c0,4.8-1.6,6.9-3.9,9.9C76.1,67.4,72.9,71.6,72.9,79.4z"
   style="fill:#808080" />
</svg>
