<?xml version="1.0" encoding="UTF-8" standalone="no"?>
<!-- Uploaded to: SVG Repo, www.svgrepo.com, Generator: SVG Repo Mixer Tools -->

<svg
   fill="#000000"
   width="800px"
   height="800px"
   viewBox="0 0 24 24"
   role="img"
   version="1.1"
   id="svg1"
   sodipodi:docname="houdini-svgrepo-com.svg"
   inkscape:version="1.3.2 (091e20e, 2023-11-25)"
   xmlns:inkscape="http://www.inkscape.org/namespaces/inkscape"
   xmlns:sodipodi="http://sodipodi.sourceforge.net/DTD/sodipodi-0.dtd"
   xmlns="http://www.w3.org/2000/svg"
   xmlns:svg="http://www.w3.org/2000/svg"
   xmlns:rdf="http://www.w3.org/1999/02/22-rdf-syntax-ns#"
   xmlns:cc="http://creativecommons.org/ns#"
   xmlns:dc="http://purl.org/dc/elements/1.1/">
  <defs
     id="defs1" />
  <sodipodi:namedview
     id="namedview1"
     pagecolor="#ffffff"
     bordercolor="#000000"
     borderopacity="0.25"
     inkscape:showpageshadow="2"
     inkscape:pageopacity="0.0"
     inkscape:pagecheckerboard="0"
     inkscape:deskcolor="#d1d1d1"
     inkscape:zoom="0.95"
     inkscape:cx="400"
     inkscape:cy="399.47368"
     inkscape:window-width="1392"
     inkscape:window-height="1212"
     inkscape:window-x="1131"
     inkscape:window-y="1420"
     inkscape:window-maximized="0"
     inkscape:current-layer="svg1" />
  <title
     id="title1">Houdini icon</title>
  <path
     d="M0 19.635V24h3.824A8.662 8.662 0 0 1 0 19.635zm16.042-4.555c0-4.037-3.253-7.92-8.111-8.089C4.483 6.873 1.801 8.136 0 10.005v4.209c1.224-3.549 4.595-5.158 7.419-5.128 3.531.041 6.251 2.703 6.275 5.72 0 2.878-1.183 4.992-4.436 5.516-1.774.296-4.548-.754-4.436-3.434.065-1.381 1.138-2.162 2.366-2.106-1.207 1.618.39 2.801 1.52 2.561a2.51 2.51 0 0 0 1.966-2.502c0-1.017-.958-2.662-3.333-2.6-2.936.068-4.785 2.183-4.85 4.797-.071 3.28 3.007 5.457 6.174 5.483 4.633.059 7.395-2.984 7.377-7.441zM0 0v6.906a12.855 12.855 0 0 1 7.931-2.609c6.801 0 11.134 4.762 11.131 10.765 0 4.17-1.946 7.308-4.995 8.938H24V0H0z"
     id="path1"
     style="fill:#808080;fill-opacity:1" />
  <metadata
     id="metadata1">
    <rdf:RDF>
      <cc:Work
         rdf:about="">
        <dc:title>Houdini icon</dc:title>
      </cc:Work>
    </rdf:RDF>
  </metadata>
</svg>
