<?xml version="1.0" encoding="UTF-8" standalone="no"?>
<!-- Uploaded to: SVG Repo, www.svgrepo.com, Generator: SVG Repo Mixer Tools -->

<svg
   height="800px"
   width="800px"
   version="1.1"
   id="Capa_1"
   viewBox="0 0 20.234 20.234"
   xml:space="preserve"
   sodipodi:docname="ip-address.svg"
   inkscape:version="1.3.2 (091e20e, 2023-11-25)"
   xmlns:inkscape="http://www.inkscape.org/namespaces/inkscape"
   xmlns:sodipodi="http://sodipodi.sourceforge.net/DTD/sodipodi-0.dtd"
   xmlns="http://www.w3.org/2000/svg"
   xmlns:svg="http://www.w3.org/2000/svg"><defs
   id="defs1" /><sodipodi:namedview
   id="namedview1"
   pagecolor="#ffffff"
   bordercolor="#000000"
   borderopacity="0.25"
   inkscape:showpageshadow="2"
   inkscape:pageopacity="0.0"
   inkscape:pagecheckerboard="0"
   inkscape:deskcolor="#d1d1d1"
   inkscape:zoom="0.95"
   inkscape:cx="400"
   inkscape:cy="399.47368"
   inkscape:window-width="1392"
   inkscape:window-height="1212"
   inkscape:window-x="468"
   inkscape:window-y="1213"
   inkscape:window-maximized="0"
   inkscape:current-layer="Capa_1" />
<g
   id="g1">
	<path
   style="fill:#808080;fill-opacity:1"
   d="M6.776,4.72h1.549v6.827H6.776V4.72z M11.751,4.669c-0.942,0-1.61,0.061-2.087,0.143v6.735h1.53   V9.106c0.143,0.02,0.324,0.031,0.527,0.031c0.911,0,1.691-0.224,2.218-0.721c0.405-0.386,0.628-0.952,0.628-1.621   c0-0.668-0.295-1.234-0.729-1.579C13.382,4.851,12.702,4.669,11.751,4.669z M11.709,7.95c-0.222,0-0.385-0.01-0.516-0.041V5.895   c0.111-0.03,0.324-0.061,0.639-0.061c0.769,0,1.205,0.375,1.205,1.002C13.037,7.535,12.53,7.95,11.709,7.95z M10.117,0   C5.523,0,1.8,3.723,1.8,8.316s8.317,11.918,8.317,11.918s8.317-7.324,8.317-11.917S14.711,0,10.117,0z M10.138,13.373   c-3.05,0-5.522-2.473-5.522-5.524c0-3.05,2.473-5.522,5.522-5.522c3.051,0,5.522,2.473,5.522,5.522   C15.66,10.899,13.188,13.373,10.138,13.373z"
   id="path1" />
</g>
</svg>
