<?xml version="1.0" encoding="UTF-8" standalone="no"?>
<svg
   viewBox="0 0 128 128"
   version="1.1"
   id="svg2"
   sodipodi:docname="JavaScript.svg"
   inkscape:version="1.3.2 (091e20e, 2023-11-25)"
   xmlns:inkscape="http://www.inkscape.org/namespaces/inkscape"
   xmlns:sodipodi="http://sodipodi.sourceforge.net/DTD/sodipodi-0.dtd"
   xmlns="http://www.w3.org/2000/svg"
   xmlns:svg="http://www.w3.org/2000/svg">
  <defs
     id="defs2" />
  <sodipodi:namedview
     id="namedview2"
     pagecolor="#ffffff"
     bordercolor="#000000"
     borderopacity="0.25"
     inkscape:showpageshadow="2"
     inkscape:pageopacity="0.0"
     inkscape:pagecheckerboard="0"
     inkscape:deskcolor="#d1d1d1"
     inkscape:zoom="5.9375"
     inkscape:cx="64"
     inkscape:cy="63.915789"
     inkscape:window-width="1392"
     inkscape:window-height="1212"
     inkscape:window-x="978"
     inkscape:window-y="1278"
     inkscape:window-maximized="0"
     inkscape:current-layer="svg2" />
  <path
     id="path1"
     style="display:inline;fill:#808080;fill-opacity:1"
     d="M 1.4082031 1.4082031 L 1.4082031 126.59375 L 126.5918 126.59375 L 126.5918 1.4082031 L 1.4082031 1.4082031 z M 95.474609 58.205078 C 102.5546 58.062078 106.98147 59.931551 110.23047 63.560547 C 111.13447 64.476546 111.87291 65.464471 113.25391 67.605469 C 109.48191 70.009466 109.49184 69.986378 104.08984 73.484375 C 102.93484 70.997377 101.01909 69.439718 98.996094 68.761719 C 95.855097 67.80972 91.893265 68.844066 91.072266 72.164062 C 90.786266 73.187061 90.846829 74.138127 91.298828 75.828125 C 92.571827 78.732122 96.843785 79.994861 100.67578 81.755859 C 111.70677 86.228855 115.43066 91.025334 116.34766 96.736328 C 117.22866 101.65132 116.1318 104.83841 115.9668 105.31641 C 111.8968 119.23839 89.20471 119.69018 80.136719 110.49219 C 78.220721 108.32719 77.019952 107.19626 75.876953 104.69727 C 80.696948 101.92527 80.69677 101.92589 85.384766 99.212891 C 87.931763 103.12789 90.287442 105.28111 94.523438 106.16211 C 100.27143 106.86411 106.05481 104.8872 104.75781 98.783203 C 103.42481 93.797208 92.988759 92.585901 85.884766 87.253906 C 78.673773 82.410911 76.984162 70.641962 82.910156 63.917969 C 84.885154 61.430971 88.253113 59.576593 91.787109 58.683594 L 95.474609 58.205078 z M 57.753906 58.943359 L 69.462891 58.943359 C 69.462891 69.712349 69.520937 80.444698 69.460938 91.179688 C 69.484937 97.759681 70.056622 103.70805 67.390625 108.62305 C 65.546627 112.37204 62.025355 114.83639 57.943359 116.02539 C 51.671366 117.46539 45.674886 116.64479 41.212891 113.9668 C 38.225894 112.1348 35.893545 109.31345 34.310547 106.06445 L 43.830078 100.23438 C 43.914078 100.26937 44.163094 100.72264 44.496094 101.30664 C 45.709093 103.34064 46.757408 104.77902 48.816406 105.79102 C 50.839404 106.48101 55.277236 106.92128 56.990234 103.36328 C 58.037233 101.55428 57.705078 95.652837 57.705078 89.214844 L 57.753906 58.943359 z " />
</svg>
