<?xml version="1.0" encoding="UTF-8" standalone="no"?>
<svg
   id="Layer_1"
   data-name="Layer 1"
   viewBox="0 0 122.88 122.88"
   version="1.1"
   sodipodi:docname="library.svg"
   inkscape:version="1.3.2 (091e20e, 2023-11-25)"
   width="122.88"
   height="122.88"
   xmlns:inkscape="http://www.inkscape.org/namespaces/inkscape"
   xmlns:sodipodi="http://sodipodi.sourceforge.net/DTD/sodipodi-0.dtd"
   xmlns="http://www.w3.org/2000/svg"
   xmlns:svg="http://www.w3.org/2000/svg"
   xmlns:rdf="http://www.w3.org/1999/02/22-rdf-syntax-ns#"
   xmlns:cc="http://creativecommons.org/ns#"
   xmlns:dc="http://purl.org/dc/elements/1.1/">
  <sodipodi:namedview
     id="namedview1"
     pagecolor="#ffffff"
     bordercolor="#000000"
     borderopacity="0.25"
     inkscape:showpageshadow="2"
     inkscape:pageopacity="0.0"
     inkscape:pagecheckerboard="false"
     inkscape:deskcolor="#d1d1d1"
     inkscape:zoom="4.3733819"
     inkscape:cx="61.508464"
     inkscape:cy="59.793544"
     inkscape:window-width="1392"
     inkscape:window-height="1212"
     inkscape:window-x="706"
     inkscape:window-y="1289"
     inkscape:window-maximized="0"
     inkscape:current-layer="Layer_1" />
  <defs
     id="defs1">
    <style
       id="style1">.cls-1{fill-rule:evenodd;}</style>
  </defs>
  <title
     id="title1">library</title>
  <path
     class="cls-1"
     d="m 5.48,45.181936 55.82,-43.81 56.1,43.81 z m 37.64,46.05 0.12,-20.45 h -2.07 v 25.78 a 37.37,37.37 0 0 1 9.32,-1.12 27,27 0 0 1 8.89,1.4 19.14,19.14 0 0 0 -6.09,-3.31 22.29,22.29 0 0 0 -8.81,-0.94 1.25,1.25 0 0 1 -1.36,-1.14 0.81,0.81 0 0 1 0,-0.22 z m 33.41,-25.8 a 17.13,17.13 0 0 0 -8,1 11.76,11.76 0 0 0 -5.92,4.63 v 23.15 a 29.4,29.4 0 0 1 6.55,-3.39 16.74,16.74 0 0 1 7.41,-1.13 v -24.26 z m 3,2.83 h 3.41 a 1.26,1.26 0 0 1 1.25,1.26 v 28.92 a 1.25,1.25 0 0 1 -1.25,1.26 1.1,1.1 0 0 1 -0.41,-0.07 39,39 0 0 0 -10.43,-1.69 24.15,24.15 0 0 0 -10.1,2.060004 1.38,1.38 0 0 1 -1.43,0 24.19,24.19 0 0 0 -10.09,-2.060004 39,39 0 0 0 -10.42,1.69 1.14,1.14 0 0 1 -0.41,0.07 1.26,1.26 0 0 1 -1.25,-1.25 v -28.93 a 1.27,1.27 0 0 1 1.26,-1.26 h 3.58 v -4.19 a 1.25,1.25 0 0 1 1,-1.22 v 0 a 19.9,19.9 0 0 1 10.84,0.83 13.93,13.93 0 0 1 6.25,4.56 14.54,14.54 0 0 1 6.25,-4.36 21.91,21.91 0 0 1 10.83,-1 1.26,1.26 0 0 1 1.08,1.24 v 0 4.19 z m -15.74,28.39 a 26.87,26.87 0 0 1 8.32,-1.21 37,37 0 0 1 9.32,1.12 v -25.78 h -1.91 v 20.59 a 1.25,1.25 0 0 1 -1.25,1.26 1.36,1.36 0 0 1 -0.29,0 16,16 0 0 0 -8,0.85 27.88,27.88 0 0 0 -6.17,3.23 z m -3.73,-2.69 v -22.9 a 11.07,11.07 0 0 0 -5.84,-4.8 15.52,15.52 0 0 0 -8,-0.89 l -0.14,24.4 a 21.84,21.84 0 0 1 8,1.14 21.51,21.51 0 0 1 6,3 z m 1.38,-71.59 a 5.68,5.68 0 1 1 -5.68,5.68 5.68,5.68 0 0 1 5.68,-5.68 z m 0,-6.05 a 11.73,11.73 0 1 1 -11.73,11.74 11.73,11.73 0 0 1 11.73,-11.69 z M 6.63,105.10194 h 6 v -1 a 3.79,3.79 0 0 1 3.78,-3.78 V 59.561936 H 8.89 v -8.26 h 104.8 v 8.26 h -7.48 v 40.710004 0 a 3.79,3.79 0 0 1 3.78,3.78 v 1 h 6.24 a 2.42,2.42 0 0 1 2.4,2.41 v 5.53 h 1.82 a 2.42,2.42 0 0 1 2.41,2.4 v 3 a 2.44,2.44 0 0 1 -2.41,2.41 H 2.41 a 2.43,2.43 0 0 1 -2.41,-2.35 v -3 a 2.41,2.41 0 0 1 2.41,-2.4 h 1.82 v -5.53 a 2.42,2.42 0 0 1 2.41,-2.41 z m 27.24,0 h 54.87 v -1 c 0,-0.15 0,-0.3 0,-0.45 v 0 0 a 3.79,3.79 0 0 1 3.66,-3.28 V 59.561936 H 30.18 v 40.710004 a 3.78,3.78 0 0 1 3.69,3.78 v 1 z"
     id="path1"
     style="fill:#808080" />
  <metadata
     id="metadata1">
    <rdf:RDF>
      <cc:Work
         rdf:about="">
        <dc:title>library</dc:title>
      </cc:Work>
    </rdf:RDF>
  </metadata>
</svg>
