<?xml version="1.0" encoding="UTF-8" standalone="no"?>
<svg
   viewBox="0 0 128 128"
   version="1.1"
   id="svg2"
   sodipodi:docname="Markdown.svg"
   inkscape:version="1.3.2 (091e20e, 2023-11-25)"
   xmlns:inkscape="http://www.inkscape.org/namespaces/inkscape"
   xmlns:sodipodi="http://sodipodi.sourceforge.net/DTD/sodipodi-0.dtd"
   xmlns="http://www.w3.org/2000/svg"
   xmlns:svg="http://www.w3.org/2000/svg">
  <defs
     id="defs2" />
  <sodipodi:namedview
     id="namedview2"
     pagecolor="#ffffff"
     bordercolor="#000000"
     borderopacity="0.25"
     inkscape:showpageshadow="2"
     inkscape:pageopacity="0.0"
     inkscape:pagecheckerboard="0"
     inkscape:deskcolor="#d1d1d1"
     inkscape:zoom="5.9375"
     inkscape:cx="64"
     inkscape:cy="63.915789"
     inkscape:window-width="1392"
     inkscape:window-height="1212"
     inkscape:window-x="685"
     inkscape:window-y="1230"
     inkscape:window-maximized="0"
     inkscape:current-layer="svg2" />
  <path
     style="line-height:normal;font-variant-ligatures:normal;font-variant-position:normal;font-variant-caps:normal;font-variant-numeric:normal;font-variant-alternates:normal;font-variant-east-asian:normal;font-feature-settings:normal;font-variation-settings:normal;text-indent:0;text-align:start;text-decoration-line:none;text-decoration-style:solid;text-decoration-color:#000000;text-transform:none;text-orientation:mixed;white-space:normal;shape-padding:0;shape-margin:0;inline-size:0;display:inline;isolation:auto;mix-blend-mode:normal;solid-color:#000000;solid-opacity:1;fill:#808080;fill-opacity:1"
     d="m 11.95,24.348 c -5.836,0 -10.618,4.867 -10.618,10.681 v 57.942 c 0,5.814 4.782,10.681 10.617,10.681 h 104.102 c 5.835,0 10.617,-4.867 10.617,-10.681 V 35.03 c 0,-5.814 -4.783,-10.681 -10.617,-10.681 H 14.898 L 14.896,24.347 H 11.95 Z m -0.007,9.543 h 104.108 c 0.625,0 1.076,0.423 1.076,1.14 v 57.94 c 0,0.717 -0.453,1.14 -1.076,1.14 H 11.949 c -0.623,0 -1.076,-0.423 -1.076,-1.14 V 35.029 c 0,-0.715 0.451,-1.135 1.07,-1.138 z"
     color="#000000"
     font-weight="400"
     font-family="sans-serif"
     overflow="visible"
     id="path1" />
  <path
     d="M 20.721,84.1 V 43.9 H 32.42 L 44.117,58.68 55.81,43.9 H 67.506 V 84.1 H 55.81 V 61.044 L 44.116,75.824 32.418,61.044 V 84.1 H 20.722 Z m 73.104,0 L 76.28,64.591 H 87.977 V 43.9 h 11.698 v 20.69 h 11.698 z m 0,0"
     id="path2"
     style="display:inline;fill:#808080;fill-opacity:1" />
</svg>
