<?xml version="1.0" encoding="UTF-8" standalone="no"?>
<svg
   width="500"
   height="500"
   fill="none"
   version="1.1"
   id="svg1"
   sodipodi:docname="N8n-logo-new.svg"
   inkscape:version="1.3.2 (091e20e, 2023-11-25)"
   xmlns:inkscape="http://www.inkscape.org/namespaces/inkscape"
   xmlns:sodipodi="http://sodipodi.sourceforge.net/DTD/sodipodi-0.dtd"
   xmlns="http://www.w3.org/2000/svg"
   xmlns:svg="http://www.w3.org/2000/svg">
  <defs
     id="defs1" />
  <sodipodi:namedview
     id="namedview1"
     pagecolor="#ffffff"
     bordercolor="#000000"
     borderopacity="0.25"
     inkscape:showpageshadow="2"
     inkscape:pageopacity="0.0"
     inkscape:pagecheckerboard="0"
     inkscape:deskcolor="#d1d1d1"
     inkscape:zoom="1.52"
     inkscape:cx="250"
     inkscape:cy="257.89474"
     inkscape:window-width="1600"
     inkscape:window-height="1311"
     inkscape:window-x="687"
     inkscape:window-y="1208"
     inkscape:window-maximized="0"
     inkscape:current-layer="svg1" />
  <g
     id="g1">
    <title
       id="title1">Layer 1</title>
    <path
       id="svg_1"
       fill="#ea4b71"
       d="m 446.79085,225.41689 c -24.41311,0 -44.92729,-16.69819 -50.74295,-39.29501 h -60.05151 c -12.80582,0 -23.73419,9.25834 -25.83866,21.88951 l -2.15468,12.9215 c -2.04334,12.2666 -8.24977,22.94175 -17.02565,30.68068 8.77588,7.73893 14.98231,18.41408 17.02565,30.68068 l 2.15468,12.9215 c 2.10447,12.63117 13.03284,21.88951 25.83866,21.88951 h 7.65816 c 5.81566,-22.59682 26.32984,-39.29501 50.74296,-39.29501 28.93641,0 52.39334,23.45694 52.39334,52.39334 0,28.93642 -23.45693,52.39336 -52.39334,52.39336 -24.41312,0 -44.9273,-16.6982 -50.74296,-39.29501 h -7.65816 c -25.61162,0 -47.46839,-18.51669 -51.6795,-43.77901 l -2.15468,-12.92152 C 280.05775,273.97025 269.12936,264.7119 256.32356,264.7119 h -20.7565 c -5.81566,22.59682 -26.32984,39.29503 -50.74296,39.29503 -24.41312,0 -44.9273,-16.69821 -50.74296,-39.29503 h -29.49746 c -5.815659,22.59682 -26.329838,39.29503 -50.74296,39.29503 -28.935975,0 -52.3933516,-23.45695 -52.3933516,-52.39336 0,-28.93641 23.4573766,-52.39335 52.3933516,-52.39335 24.413122,0 44.927301,16.6982 50.74296,39.29502 h 29.49746 c 5.81566,-22.59682 26.32984,-39.29502 50.74296,-39.29502 24.41312,0 44.9273,16.6982 50.74296,39.29502 h 20.7565 c 12.8058,0 23.73419,-9.25835 25.83865,-21.88951 l 2.15468,-12.92152 c 4.21111,-25.26232 26.06788,-43.779 51.6795,-43.779 h 60.05151 c 5.81566,-22.59682 26.32984,-39.29502 50.74295,-39.29502 28.93642,0 52.39336,23.45694 52.39336,52.39336 0,28.9364 -23.45694,52.39334 -52.39336,52.39334 z m 0,-26.19667 c 14.46713,0 26.19668,-11.72956 26.19668,-26.19667 0,-14.46712 -11.72955,-26.19668 -26.19668,-26.19668 -14.46711,0 -26.19666,11.72956 -26.19666,26.19668 0,14.46711 11.72955,26.19667 26.19666,26.19667 z M 53.84072,277.81025 c 14.467114,0 26.196672,-11.72957 26.196672,-26.19668 0,-14.46711 -11.729558,-26.19668 -26.196672,-26.19668 -14.467987,0 -26.196676,11.72957 -26.196676,26.19668 0,14.46711 11.728689,26.19668 26.196676,26.19668 z m 157.18005,-26.19668 c 0,14.46711 -11.72955,26.19668 -26.19667,26.19668 -14.46712,0 -26.19667,-11.72957 -26.19667,-26.19668 0,-14.46711 11.72955,-26.19668 26.19667,-26.19668 14.46712,0 26.19667,11.72957 26.19667,26.19668 z m 209.57342,78.59002 c 0,14.46712 -11.72957,26.19668 -26.19668,26.19668 -14.46712,0 -26.19668,-11.72956 -26.19668,-26.19668 0,-14.46711 11.72956,-26.19666 26.19668,-26.19666 14.46711,0 26.19668,11.72955 26.19668,26.19666 z"
       clip-rule="evenodd"
       fill-rule="evenodd"
       style="display:inline;stroke-width:2.18306;fill:#808080;fill-opacity:1" />
  </g>
</svg>
