<?xml version="1.0" encoding="UTF-8" standalone="no"?>
<!-- Uploaded to: SVG Repo, www.svgrepo.com, Generator: SVG Repo Mixer Tools -->

<svg
   width="800px"
   height="800px"
   viewBox="0 0 32 32"
   version="1.1"
   id="svg2"
   sodipodi:docname="nginx-svgrepo-com.svg"
   inkscape:version="1.3.2 (091e20e, 2023-11-25)"
   xmlns:inkscape="http://www.inkscape.org/namespaces/inkscape"
   xmlns:sodipodi="http://sodipodi.sourceforge.net/DTD/sodipodi-0.dtd"
   xmlns="http://www.w3.org/2000/svg"
   xmlns:svg="http://www.w3.org/2000/svg"
   xmlns:rdf="http://www.w3.org/1999/02/22-rdf-syntax-ns#"
   xmlns:cc="http://creativecommons.org/ns#"
   xmlns:dc="http://purl.org/dc/elements/1.1/">
  <defs
     id="defs2" />
  <sodipodi:namedview
     id="namedview2"
     pagecolor="#ffffff"
     bordercolor="#000000"
     borderopacity="0.25"
     inkscape:showpageshadow="2"
     inkscape:pageopacity="0.0"
     inkscape:pagecheckerboard="0"
     inkscape:deskcolor="#d1d1d1"
     inkscape:zoom="1.08125"
     inkscape:cx="400"
     inkscape:cy="400"
     inkscape:window-width="1392"
     inkscape:window-height="1212"
     inkscape:window-x="1428"
     inkscape:window-y="1439"
     inkscape:window-maximized="0"
     inkscape:current-layer="svg2" />
  <title
     id="title1">file_type_nginx</title>
  <path
     id="path1"
     style="fill:#808080;fill-opacity:1"
     d="M 15.947969 2 C 15.611969 2.1559998 15.295984 2.3510002 14.973984 2.535 C 11.359321 4.6163313 7.7446631 6.6963354 4.13 8.775 A 0.693 0.693 0 0 0 3.7429688 9.445 L 3.7429688 22.607969 A 0.7 0.7 0 0 0 4.1429687 23.273984 C 7.9889649 25.491315 11.838702 27.704653 15.692031 29.913984 A 0.587 0.587 0 0 0 16.348984 29.877031 C 20.198314 27.6637 24.047353 25.448967 27.896016 23.232969 A 0.813 0.813 0 0 0 28.252031 22.726016 C 28.257031 18.33902 28.249031 13.951027 28.257031 9.5620313 A 0.792 0.792 0 0 0 27.842969 8.7739844 C 24.223639 6.6913198 20.60433 4.6093 16.985 2.5279687 A 10.418 10.418 0 0 0 16.012969 2 L 15.947969 2 z M 21.395 8.990625 A 1.582 1.582 0 0 1 22.971016 10.435 C 22.976349 14.12833 22.976349 17.822019 22.971016 21.516016 A 1.561 1.561 0 0 1 21.72 22.887031 A 2.833 2.833 0 0 1 19.12 22.105 C 16.721336 19.253003 14.327649 16.397028 11.938984 13.537031 C 11.933984 16.157029 11.938984 18.777034 11.938984 21.397031 A 1.564 1.564 0 0 1 11.253984 22.69 A 1.647 1.647 0 0 1 9.1939844 22.483984 A 1.509 1.509 0 0 1 8.7670313 21.397031 L 8.7670313 10.537969 A 1.579 1.579 0 0 1 10.17 9.0329688 A 2.817 2.817 0 0 1 12.818984 10.085 C 15.155982 12.860997 17.472987 15.651034 19.818984 18.417031 C 19.802984 15.756034 19.818984 13.096997 19.818984 10.435 A 1.582 1.582 0 0 1 21.395 8.990625 z " />
  <metadata
     id="metadata2">
    <rdf:RDF>
      <cc:Work
         rdf:about="">
        <dc:title>file_type_nginx</dc:title>
      </cc:Work>
    </rdf:RDF>
  </metadata>
</svg>
