<?xml version="1.0" encoding="UTF-8" standalone="no"?>
<!-- Uploaded to: SVG Repo, www.svgrepo.com, Generator: SVG Repo Mixer Tools -->

<svg
   width="800px"
   height="800px"
   viewBox="0 0 24 24"
   version="1.1"
   id="svg2"
   sodipodi:docname="node-tree.svg"
   inkscape:version="1.3.2 (091e20e, 2023-11-25)"
   xmlns:inkscape="http://www.inkscape.org/namespaces/inkscape"
   xmlns:sodipodi="http://sodipodi.sourceforge.net/DTD/sodipodi-0.dtd"
   xmlns="http://www.w3.org/2000/svg"
   xmlns:svg="http://www.w3.org/2000/svg">
  <defs
     id="defs2" />
  <sodipodi:namedview
     id="namedview2"
     pagecolor="#ffffff"
     bordercolor="#000000"
     borderopacity="0.25"
     inkscape:showpageshadow="2"
     inkscape:pageopacity="0.0"
     inkscape:pagecheckerboard="0"
     inkscape:deskcolor="#d1d1d1"
     inkscape:zoom="0.95"
     inkscape:cx="400"
     inkscape:cy="399.47368"
     inkscape:window-width="1392"
     inkscape:window-height="1212"
     inkscape:window-x="740"
     inkscape:window-y="1316"
     inkscape:window-maximized="0"
     inkscape:current-layer="svg2" />
  <g
     id="g2">
    <path
       fill="none"
       d="M0 0H24V24H0z"
       id="path1" />
    <path
       d="m 10,2 c 0.552,0 1,0.448 1,1 v 4 c 0,0.552 -0.448,1 -1,1 H 8 v 2 h 5 V 9 c 0,-0.552 0.448,-1 1,-1 h 6 c 0.552,0 1,0.448 1,1 v 4 c 0,0.552 -0.448,1 -1,1 h -6 c -0.552,0 -1,-0.448 -1,-1 V 12 H 8 v 6 h 5 v -1 c 0,-0.552 0.448,-1 1,-1 h 6 c 0.552,0 1,0.448 1,1 v 4 c 0,0.552 -0.448,1 -1,1 h -6 c -0.552,0 -1,-0.448 -1,-1 V 20 H 7 C 6.448,20 6,19.552 6,19 V 8 H 4 C 3.448,8 3,7.552 3,7 V 3 C 3,2.448 3.448,2 4,2 Z m 9,16 h -4 v 2 h 4 z m 0,-8 h -4 v 2 h 4 z M 9,4 H 5 v 2 h 4 z"
       id="path2"
       style="display:inline;stroke-width:0.99999;stroke-dasharray:none;fill:#808080;fill-opacity:1" />
  </g>
</svg>
