<?xml version="1.0" encoding="UTF-8" standalone="no"?>
<!--Generator: Xara Designer (www.xara.com), SVG filter version: 6.4.0.3-->

<svg
   fill="none"
   fill-rule="evenodd"
   stroke="#000000"
   stroke-width="0.501"
   stroke-linejoin="bevel"
   stroke-miterlimit="10"
   font-family="'Times New Roman'"
   font-size="16px"
   style="font-variant-ligatures:none"
   version="1.1"
   overflow="visible"
   width="255.845pt"
   height="255.845pt"
   viewBox="0 -123.322 255.845 255.845"
   id="svg14"
   sodipodi:docname="numpy.svg"
   inkscape:version="1.3.2 (091e20e, 2023-11-25)"
   xmlns:inkscape="http://www.inkscape.org/namespaces/inkscape"
   xmlns:sodipodi="http://sodipodi.sourceforge.net/DTD/sodipodi-0.dtd"
   xmlns="http://www.w3.org/2000/svg"
   xmlns:svg="http://www.w3.org/2000/svg">
  <sodipodi:namedview
     id="namedview14"
     pagecolor="#ffffff"
     bordercolor="#000000"
     borderopacity="0.25"
     inkscape:showpageshadow="2"
     inkscape:pageopacity="0.0"
     inkscape:pagecheckerboard="0"
     inkscape:deskcolor="#d1d1d1"
     inkscape:document-units="pt"
     inkscape:zoom="1.3670156"
     inkscape:cx="156.5454"
     inkscape:cy="206.65456"
     inkscape:window-width="1392"
     inkscape:window-height="1212"
     inkscape:window-x="774"
     inkscape:window-y="1291"
     inkscape:window-maximized="0"
     inkscape:current-layer="svg14" />
  <defs
     id="defs1" />
  <g
     id="Layer 1"
     transform="scale(1,-1)">
    <path
       d="m 107.188,79.018 c 0.198,-0.024 0.392,-0.078 0.574,-0.159 0.179,-0.085 0.344,-0.196 0.49,-0.33 0.188,-0.18 0.364,-0.371 0.528,-0.574 l 14.712,-18.597 c -0.06,0.592 -0.099,1.173 -0.128,1.73 -0.028,0.556 -0.042,1.088 -0.042,1.584 v 16.407 h 6.333 v -30.97 h -3.742 c -0.48,-0.014 -0.957,0.073 -1.4,0.255 -0.44,0.217 -0.82,0.538 -1.106,0.936 l -14.606,18.43 c 0.046,-0.535 0.078,-1.063 0.106,-1.581 0.029,-0.517 0.046,-1.003 0.046,-1.457 V 48.091 h -6.337 v 30.988 h 3.782 c 0.264,-0.003 0.528,-0.023 0.79,-0.061 z"
       fill="#013243"
       stroke="none"
       stroke-width="0.354"
       fill-rule="nonzero"
       stroke-linejoin="miter"
       marker-start="none"
       marker-end="none"
       id="path1"
       style="display:none" />
    <path
       d="M 138.934,70.158 V 56.172 c 0,-1.092 0.248,-1.935 0.745,-2.531 0.554,-0.618 1.361,-0.948 2.19,-0.893 0.702,-0.004 1.396,0.148 2.031,0.447 0.671,0.325 1.291,0.748 1.839,1.255 v 15.708 h 6.589 V 48.116 h -4.079 c -0.734,-0.061 -1.41,0.4 -1.62,1.106 l -0.401,1.276 c -0.414,-0.402 -0.855,-0.776 -1.318,-1.12 -0.455,-0.332 -0.944,-0.615 -1.457,-0.847 -0.54,-0.244 -1.104,-0.432 -1.683,-0.56 -0.642,-0.14 -1.297,-0.208 -1.953,-0.202 -1.096,-0.02 -2.183,0.193 -3.19,0.627 -0.904,0.401 -1.707,0.999 -2.35,1.751 -0.653,0.781 -1.145,1.685 -1.446,2.658 -0.336,1.088 -0.501,2.221 -0.489,3.36 v 13.993 z"
       fill="#013243"
       stroke="none"
       stroke-width="0.354"
       fill-rule="nonzero"
       stroke-linejoin="miter"
       marker-start="none"
       marker-end="none"
       id="path2"
       style="display:none" />
    <path
       d="m 156.578,48.109 v 22.049 h 4.083 c 0.363,0.013 0.723,-0.083 1.031,-0.277 0.286,-0.199 0.493,-0.493 0.585,-0.829 l 0.354,-1.191 c 0.358,0.379 0.74,0.735 1.145,1.063 0.399,0.321 0.83,0.598 1.287,0.83 1.004,0.509 2.117,0.768 3.243,0.755 1.188,0.046 2.355,-0.318 3.306,-1.032 0.896,-0.722 1.582,-1.672 1.985,-2.75 0.35,0.652 0.806,1.242 1.351,1.744 0.515,0.469 1.095,0.862 1.722,1.166 0.621,0.299 1.277,0.52 1.953,0.659 0.676,0.141 1.365,0.212 2.056,0.213 1.143,0.019 2.281,-0.172 3.356,-0.564 0.935,-0.347 1.776,-0.908 2.456,-1.637 0.683,-0.762 1.194,-1.661 1.499,-2.637 0.357,-1.147 0.529,-2.344 0.511,-3.545 V 48.119 h -6.593 v 13.997 c 0,2.282 -0.977,3.422 -2.931,3.42 -0.831,0.027 -1.636,-0.293 -2.222,-0.883 -0.588,-0.583 -0.882,-1.429 -0.882,-2.537 V 48.109 h -6.582 v 14.007 c 0,1.262 -0.248,2.148 -0.744,2.658 -0.497,0.51 -1.227,0.762 -2.191,0.762 -0.587,0.001 -1.166,-0.136 -1.69,-0.401 -0.551,-0.285 -1.056,-0.651 -1.5,-1.084 V 48.102 Z"
       fill="#013243"
       stroke="none"
       stroke-width="0.354"
       fill-rule="nonzero"
       stroke-linejoin="miter"
       marker-start="none"
       marker-end="none"
       id="path3"
       style="display:none" />
    <path
       d="M 199.516,58.462 V 48.109 h -7.184 v 30.97 h 10.923 c 1.904,0.042 3.803,-0.218 5.625,-0.77 1.422,-0.435 2.738,-1.159 3.867,-2.126 0.994,-0.876 1.763,-1.977 2.244,-3.211 0.485,-1.275 0.725,-2.63 0.708,-3.995 0.017,-1.451 -0.235,-2.893 -0.744,-4.253 -0.483,-1.271 -1.263,-2.408 -2.275,-3.317 -1.127,-0.983 -2.448,-1.717 -3.878,-2.155 -1.795,-0.557 -3.667,-0.823 -5.547,-0.79 z m 0,5.419 h 3.739 c 1.872,0 3.219,0.443 4.041,1.34 0.822,0.896 1.233,2.126 1.233,3.739 0.009,0.659 -0.099,1.314 -0.319,1.935 -0.203,0.567 -0.534,1.08 -0.967,1.499 -0.469,0.438 -1.028,0.768 -1.638,0.968 -0.758,0.245 -1.552,0.364 -2.35,0.354 h -3.739 z"
       fill="#013243"
       stroke="none"
       stroke-width="0.354"
       fill-rule="nonzero"
       stroke-linejoin="miter"
       marker-start="none"
       marker-end="none"
       id="path4"
       style="display:none" />
    <path
       d="m 228.466,42.388 c -0.15,-0.376 -0.394,-0.708 -0.709,-0.964 -0.412,-0.238 -0.887,-0.346 -1.361,-0.308 h -4.944 l 4.253,8.924 -8.797,20.118 h 5.823 c 0.426,0.021 0.846,-0.104 1.191,-0.355 0.27,-0.208 0.476,-0.488 0.595,-0.808 l 3.612,-9.502 c 0.334,-0.856 0.611,-1.734 0.829,-2.626 0.142,0.453 0.298,0.9 0.468,1.336 0.17,0.436 0.333,0.886 0.489,1.34 l 3.275,9.459 c 0.124,0.341 0.36,0.63 0.67,0.819 0.314,0.213 0.684,0.327 1.063,0.33 h 5.317 z"
       fill="#013243"
       stroke="none"
       stroke-width="0.354"
       fill-rule="nonzero"
       stroke-linejoin="miter"
       marker-start="none"
       marker-end="none"
       id="path5"
       style="display:none" />
    <path
       d="M 110.40278,68.785511 70.574253,88.888943 26.847321,67.069364 67.762436,46.527059 Z"
       fill="#4dabcf"
       stroke="none"
       stroke-width="1.07146"
       fill-rule="nonzero"
       stroke-linejoin="miter"
       marker-start="none"
       marker-end="none"
       id="path6"
       style="fill:#808080" />
    <path
       d="M 128.67202,59.569168 170.43462,38.479027 127.10721,16.726037 86.128534,37.298609 Z"
       fill="#4dabcf"
       stroke="none"
       stroke-width="1.07146"
       fill-rule="nonzero"
       stroke-linejoin="miter"
       marker-start="none"
       marker-end="none"
       id="path7"
       style="fill:#808080" />
    <path
       d="M 184.45435,88.589298 227.36407,67.069364 188.98232,47.801305 147.13497,68.912633 Z"
       fill="#4dabcf"
       stroke="none"
       stroke-width="1.07146"
       fill-rule="nonzero"
       stroke-linejoin="miter"
       marker-start="none"
       marker-end="none"
       id="path8"
       style="fill:#808080" />
    <path
       d="M 165.98232,97.857095 127.35237,117.23109 89.143141,98.15674 128.95048,78.086602 Z"
       fill="#4dabcf"
       stroke="none"
       stroke-width="1.07146"
       fill-rule="nonzero"
       stroke-linejoin="miter"
       marker-start="none"
       marker-end="none"
       id="path9"
       style="fill:#808080" />
    <path
       d="m 135.7848,-68.482005 v -52.716265 l 46.79299,23.354119 -0.0424,52.737455 z"
       fill="#4dabcf"
       stroke="none"
       stroke-width="1.07146"
       fill-rule="nonzero"
       stroke-linejoin="miter"
       marker-start="none"
       marker-end="none"
       id="path10"
       style="fill:#808080" />
    <path
       d="M 182.51423,-26.70125 182.45975,25.479293 135.7848,2.2734797 V -49.925224 Z"
       fill="#4dabcf"
       stroke="none"
       stroke-width="1.07146"
       fill-rule="nonzero"
       stroke-linejoin="miter"
       marker-start="none"
       marker-end="none"
       id="path11"
       style="fill:#808080" />
    <path
       d="m 238.69306,-16.927992 v -52.919061 l -39.9163,-19.909718 -0.0333,52.673893 z"
       fill="#4dabcf"
       stroke="none"
       stroke-width="1.07146"
       fill-rule="nonzero"
       stroke-linejoin="miter"
       marker-start="none"
       marker-end="none"
       id="path12"
       style="fill:#808080" />
    <path
       d="M 238.69306,1.5773354 V 53.434019 l -39.99197,-19.876428 0.0333,-52.286478 z"
       fill="#4dabcf"
       stroke="none"
       stroke-width="1.07146"
       fill-rule="nonzero"
       stroke-linejoin="miter"
       marker-start="none"
       marker-end="none"
       id="path13"
       style="fill:#808080" />
    <path
       d="M 119.26499,2.2734797 87.747826,18.130432 v -68.485449 c 0,0 -38.554278,82.023939 -42.11672,89.393987 -0.460061,0.953414 -2.34873,1.994604 -2.833004,2.251874 C 35.848768,44.916847 15.594,55.171353 15.594,55.171353 V -65.866924 l 28.021315,-15.018553 v 63.294635 c 0,0 38.136591,-73.291869 38.533091,-74.096979 0.396499,-0.80208 4.204105,-8.517169 8.302275,-11.229099 5.439004,-3.61693 28.793129,-17.65785 28.793129,-17.65785 z"
       fill="#4d77cf"
       stroke="none"
       stroke-width="1.07146"
       fill-rule="nonzero"
       stroke-linejoin="miter"
       marker-start="none"
       marker-end="none"
       id="path14"
       style="fill:#808080" />
  </g>
</svg>
