<?xml version="1.0" encoding="UTF-8" standalone="no"?>
<!-- Generator: Adobe Illustrator 16.0.0, SVG Export Plug-In . SVG Version: 6.00 Build 0)  -->

<svg
   version="1.1"
   id="svg2"
   x="0px"
   y="0px"
   width="351.45999"
   height="351.45999"
   viewBox="35.188 31.512 351.46 351.45999"
   enable-background="new 35.188 31.512 351.46 258.785"
   xml:space="preserve"
   sodipodi:docname="Nvidia.svg"
   inkscape:version="1.3.2 (091e20e, 2023-11-25)"
   xmlns:inkscape="http://www.inkscape.org/namespaces/inkscape"
   xmlns:sodipodi="http://sodipodi.sourceforge.net/DTD/sodipodi-0.dtd"
   xmlns="http://www.w3.org/2000/svg"
   xmlns:svg="http://www.w3.org/2000/svg"
   xmlns:rdf="http://www.w3.org/1999/02/22-rdf-syntax-ns#"
   xmlns:cc="http://creativecommons.org/ns#"
   xmlns:dc="http://purl.org/dc/elements/1.1/"><defs
   id="defs1" /><sodipodi:namedview
   id="namedview1"
   pagecolor="#ffffff"
   bordercolor="#000000"
   borderopacity="0.25"
   inkscape:showpageshadow="2"
   inkscape:pageopacity="0.0"
   inkscape:pagecheckerboard="0"
   inkscape:deskcolor="#d1d1d1"
   inkscape:zoom="2.1624083"
   inkscape:cx="175.73"
   inkscape:cy="129.25404"
   inkscape:window-width="1392"
   inkscape:window-height="1212"
   inkscape:window-x="548"
   inkscape:window-y="1267"
   inkscape:window-maximized="0"
   inkscape:current-layer="svg2" />
<title
   id="title4">generated by pstoedit version:3.44 from NVBadge_2D.eps</title>
<path
   id="path17"
   d="m 384.195,282.109 c 0,3.771 -2.769,6.302 -6.047,6.302 v -0.023 c -3.371,0.023 -6.089,-2.508 -6.089,-6.278 0,-3.769 2.718,-6.293 6.089,-6.293 3.279,-0.001 6.047,2.523 6.047,6.292 z m 2.453,0 c 0,-5.175 -4.02,-8.179 -8.5,-8.179 -4.511,0 -8.531,3.004 -8.531,8.179 0,5.172 4.021,8.188 8.531,8.188 4.481,0 8.5,-3.016 8.5,-8.188 m -9.91,0.692 h 0.91 l 2.109,3.703 h 2.316 l -2.336,-3.859 c 1.207,-0.086 2.2,-0.661 2.2,-2.286 0,-2.019 -1.392,-2.668 -3.75,-2.668 h -3.411 v 8.813 h 1.961 v -3.703 m 10e-4,-1.492 v -2.122 h 1.364 c 0.742,0 1.753,0.06 1.753,0.965 0,0.985 -0.523,1.157 -1.398,1.157 h -1.719"
   style="display:none" />
<path
   id="path19"
   d="m 329.406,237.027 10.598,28.993 H 318.48 Z m -11.35,-11.289 -24.423,61.88 h 17.246 l 3.863,-10.934 h 28.903 l 3.656,10.934 h 18.722 L 341.418,225.73 Z m -49.033,61.903 h 17.497 v -61.922 l -17.5,-0.004 z m -121.467,-61.926 -14.598,49.078 -13.984,-49.074 -18.879,-0.004 19.972,61.926 h 25.207 l 20.133,-61.926 z m 70.725,13.484 h 7.52 c 10.91,0 17.966,4.898 17.966,17.609 0,12.714 -7.056,17.613 -17.966,17.613 h -7.52 z m -17.35,-13.484 v 61.926 h 28.366 c 15.113,0 20.048,-2.512 25.384,-8.148 3.769,-3.957 6.207,-12.641 6.207,-22.134 0,-8.707 -2.063,-16.468 -5.66,-21.304 -6.481,-8.649 -15.817,-10.34 -29.75,-10.34 z M 35.188,225.629 v 62.012 h 17.645 v -47.086 l 13.672,0.004 c 4.527,0 7.754,1.128 9.934,3.457 2.765,2.945 3.894,7.699 3.894,16.395 v 27.23 h 17.098 v -34.262 c 0,-24.453 -15.586,-27.75 -30.836,-27.75 H 35.188 Z m 137.583,0.086 0.007,61.926 h 17.489 v -61.926 z"
   style="display:none" />
<path
   id="path21"
   fill="#77b900"
   d="m 73.220035,194.30778 c 0,0 31.326285,-46.21964 93.874465,-51.00127 v -16.76842 c -69.280047,5.56395 -129.273842,64.24089 -129.273842,64.24089 0,0 33.979503,98.22875 129.273842,107.22266 V 280.17807 C 97.162991,271.38043 73.220035,194.30778 73.220035,194.30778 Z m 93.874465,50.42359 v 16.32296 c -52.85268,-9.42266 -67.523294,-64.36338 -67.523294,-64.36338 0,0 25.376744,-28.1121 67.523294,-32.671 v 17.91128 c -0.0321,0 -0.0543,-0.0102 -0.0808,-0.0102 -22.12078,-2.65461 -39.40147,18.0101 -39.40147,18.0101 0,0 9.68577,34.78828 39.48221,44.79977 m 0,-149.121432 v 30.928902 c 2.03376,-0.15591 4.06751,-0.28815 6.11241,-0.35775 78.76395,-2.65461 130.08399,64.59863 130.08399,64.59863 0,0 -58.9428,71.67296 -120.3509,71.67296 -5.62799,0 -10.89683,-0.52201 -15.8455,-1.399 v 19.12513 c 4.23177,0.53734 8.61946,0.85332 13.19785,0.85332 57.14432,0 98.46956,-29.18395 138.48492,-63.72446 6.63443,5.3134 33.79576,18.23981 39.3792,23.89843 -38.04702,31.85385 -126.71808,57.53128 -176.98852,57.53128 -4.84566,0 -9.49923,-0.29371 -14.07345,-0.73499 V 324.8765 H 384.29605 V 95.609926 Z m 0,68.410032 v -20.71186 c 2.01287,-0.1406 4.04107,-0.24917 6.11241,-0.3146 56.639,-1.77902 93.79791,48.6724 93.79791,48.6724 0,0 -40.13508,55.74115 -83.16835,55.74115 -6.19316,0 -11.74598,-0.99531 -16.74337,-2.67548 v -62.80014 c 22.0498,2.66435 26.48759,12.40439 39.74391,34.5029 l 29.48325,-24.86031 c 0,0 -21.52221,-28.22622 -57.80274,-28.22622 -3.94364,-0.001 -7.71743,0.27562 -11.42302,0.67235"
   style="stroke-width:1.39204;fill:#808080" />
<metadata
   id="metadata1"><rdf:RDF><cc:Work
       rdf:about=""><dc:title>generated by pstoedit version:3.44 from NVBadge_2D.eps</dc:title></cc:Work></rdf:RDF></metadata></svg>
