<?xml version="1.0" encoding="UTF-8" standalone="no"?>
<svg
   viewBox="0 0 42.43 43.25"
   version="1.1"
   id="svg4"
   sodipodi:docname="opencolorio.svg"
   inkscape:version="1.3.2 (091e20e, 2023-11-25)"
   xmlns:inkscape="http://www.inkscape.org/namespaces/inkscape"
   xmlns:sodipodi="http://sodipodi.sourceforge.net/DTD/sodipodi-0.dtd"
   xmlns="http://www.w3.org/2000/svg"
   xmlns:svg="http://www.w3.org/2000/svg"
   xmlns:rdf="http://www.w3.org/1999/02/22-rdf-syntax-ns#"
   xmlns:cc="http://creativecommons.org/ns#"
   xmlns:dc="http://purl.org/dc/elements/1.1/">
  <sodipodi:namedview
     id="namedview4"
     pagecolor="#ffffff"
     bordercolor="#000000"
     borderopacity="0.25"
     inkscape:showpageshadow="2"
     inkscape:pageopacity="0.0"
     inkscape:pagecheckerboard="0"
     inkscape:deskcolor="#d1d1d1"
     showgrid="false"
     inkscape:zoom="28.508671"
     inkscape:cx="21.204075"
     inkscape:cy="21.625"
     inkscape:window-width="2528"
     inkscape:window-height="1404"
     inkscape:window-x="2758"
     inkscape:window-y="76"
     inkscape:window-maximized="0"
     inkscape:current-layer="svg4" />
  <defs
     id="defs1">
    <style
       id="style1">.cls-1{fill:#cc1e68;}</style>
  </defs>
  <title
     id="title1">ocio_dot_m</title>
  <g
     id="Layer_2"
     data-name="Layer 2">
    <g
       id="Layer_1-2"
       data-name="Layer 1">
      <path
         class="cls-1"
         d="M30,18l11.14-3.71,0-.14a21.4,21.4,0,0,0-2-4.12l-.08-.12-10,6.45A9.15,9.15,0,0,1,30,18Z"
         id="path1"
         style="fill:#7f7f7f;fill-opacity:1" />
      <path
         class="cls-1"
         d="M42.31,19.35l0-.14L30.75,20.68a9.11,9.11,0,0,1,0,1.92l11.55,1.47,0-.14a21.72,21.72,0,0,0,0-4.57Z"
         id="path2"
         style="fill:#7f7f7f;fill-opacity:1" />
      <path
         class="cls-1"
         d="M29.07,27l9.88,6.55.08-.12a21.42,21.42,0,0,0,2-4.1l0-.14L30,25.35A9.15,9.15,0,0,1,29.07,27Z"
         id="path3"
         style="fill:#7f7f7f;fill-opacity:1" />
      <circle
         class="cls-1"
         cx="21.63"
         cy="21.63"
         r="5"
         id="circle3"
         style="fill:#7f7f7f;fill-opacity:1" />
      <path
         class="cls-1"
         d="M30.47,32a13.6,13.6,0,1,1,.12-20.55l5.92-5.46a21.63,21.63,0,1,0-.11,31.47Z"
         id="path4"
         style="fill:#7f7f7f;fill-opacity:1" />
    </g>
  </g>
  <metadata
     id="metadata4">
    <rdf:RDF>
      <cc:Work
         rdf:about="">
        <dc:title>ocio_dot_m</dc:title>
      </cc:Work>
    </rdf:RDF>
  </metadata>
</svg>
