<?xml version="1.0" encoding="UTF-8" standalone="no"?>
<svg
   xml:space="preserve"
   viewBox="0 0 128 128"
   version="1.1"
   id="svg9"
   sodipodi:docname="Powershell.svg"
   inkscape:version="1.3.2 (091e20e, 2023-11-25)"
   xmlns:inkscape="http://www.inkscape.org/namespaces/inkscape"
   xmlns:sodipodi="http://sodipodi.sourceforge.net/DTD/sodipodi-0.dtd"
   xmlns="http://www.w3.org/2000/svg"
   xmlns:svg="http://www.w3.org/2000/svg"><defs
     id="defs9" /><sodipodi:namedview
     id="namedview9"
     pagecolor="#ffffff"
     bordercolor="#000000"
     borderopacity="0.25"
     inkscape:showpageshadow="2"
     inkscape:pageopacity="0.0"
     inkscape:pagecheckerboard="0"
     inkscape:deskcolor="#d1d1d1"
     inkscape:zoom="5.9375"
     inkscape:cx="64"
     inkscape:cy="63.915789"
     inkscape:window-width="1392"
     inkscape:window-height="1212"
     inkscape:window-x="776"
     inkscape:window-y="1508"
     inkscape:window-maximized="0"
     inkscape:current-layer="svg9" /><linearGradient
     id="a"
     x1="96.306"
     x2="25.454"
     y1="35.144"
     y2="98.431"
     gradientTransform="matrix(1 0 0 -1 0 128)"
     gradientUnits="userSpaceOnUse"><stop
       offset="0"
       stop-color="#a9c8ff"
       id="stop1" /><stop
       offset="1"
       stop-color="#c7e6ff"
       id="stop2" /></linearGradient><path
     fill="url(#a)"
     fill-rule="evenodd"
     d="m 7.2,110.5 c -1.7,0 -3.1,-0.7 -4.1,-1.9 -1,-1.2 -1.3,-2.9 -0.9,-4.6 L 20.8,23.5 c 0.8,-3.4 4,-6 7.4,-6 h 92.6 c 1.7,0 3.1,0.7 4.1,1.9 1,1.2 1.3,2.9 0.9,4.6 l -18.6,80.5 c -0.8,3.4 -4,6 -7.4,6 z"
     clip-rule="evenodd"
     opacity="0.8"
     id="path2"
     style="display:inline;fill:none;stroke:#808080;stroke-opacity:1;stroke-width:1.8;stroke-dasharray:none" /><linearGradient
     id="b"
     x1="25.336"
     x2="94.569"
     y1="98.33"
     y2="36.847"
     gradientTransform="matrix(1 0 0 -1 0 128)"
     gradientUnits="userSpaceOnUse"><stop
       offset="0"
       stop-color="#2d4664"
       id="stop3" /><stop
       offset=".169"
       stop-color="#29405b"
       id="stop4" /><stop
       offset=".445"
       stop-color="#1e2f43"
       id="stop5" /><stop
       offset=".79"
       stop-color="#0c131b"
       id="stop6" /><stop
       offset="1"
       id="stop7" /></linearGradient><path
     id="path7"
     style="display:inline;fill:#808080;fill-opacity:1;stroke-width:0.940775"
     d="m 30.602487,21.194737 c -2.728245,0 -5.362785,2.16305 -6.021328,4.891295 L 7.2705317,101.91397 c -0.6585419,2.72824 1.0348552,4.89129 3.7631003,4.89129 h 86.363881 c 2.728247,0 5.362787,-2.16305 6.021327,-4.89129 l 17.31063,-75.732391 c 0.65854,-2.728245 -1.03486,-4.986842 -3.7631,-4.986842 z m 15.81678,8.560685 c 1.258286,0 2.481663,0.470388 3.375398,1.411162 l 26.52912,28.223251 c 1.599316,1.693394 1.693394,4.139779 0.470387,6.021328 -0.376309,0.752619 -1.128563,1.504873 -2.445647,2.445647 L 35.400072,95.892641 c -2.16378,1.505238 -5.173162,0.940405 -6.866555,-1.317453 -1.599316,-2.257858 -1.224475,-5.363154 0.845228,-6.868392 L 64.564097,62.21216 V 61.648062 L 42.455884,38.128687 c -1.78747,-1.881548 -1.598947,-4.986477 0.376678,-6.962103 1.034852,-0.940774 2.328419,-1.411162 3.586705,-1.411162 z M 63.529612,86.39118 H 84.50963 c 2.446013,0 4.420908,1.975263 4.420908,4.327198 0,2.446012 -1.974895,4.327197 -4.420908,4.327197 H 63.529612 c -2.446012,0 -4.420907,-1.975262 -4.420907,-4.327197 0,-2.446013 1.974895,-4.327198 4.420907,-4.327198 z" /><path
     fill="#2c5591"
     fill-rule="evenodd"
     d="m 64.368422,87.121052 h 22.3 c 2.6,0 4.7,2.2 4.7,4.9 0,2.7 -2.1,4.9 -4.7,4.9 h -22.3 c -2.6,0 -4.7,-2.2 -4.7,-4.9 0,-2.7 2.1,-4.9 4.7,-4.9 z m 14.5,-21.8 c -0.4,0.8 -1.2,1.6 -2.6,2.6 l -41.5,29.8 c -2.3,1.6 -5.5,1 -7.3,-1.4 -1.7,-2.4 -1.3,-5.7 0.9,-7.3 l 37.4,-27.1 v -0.6 l -23.5,-25 c -1.9,-2 -1.7,-5.3 0.4,-7.4 2.2,-2 5.5,-2 7.4,0 l 28.2,30 c 1.7,1.9 1.8,4.5 0.6,6.4 z"
     clip-rule="evenodd"
     id="path8"
     style="display:none;fill:none;stroke:#808080;stroke-opacity:1" /></svg>
