<?xml version="1.0" encoding="UTF-8" standalone="no"?>
<svg
   viewBox="0 0 128 128"
   version="1.1"
   id="svg6"
   sodipodi:docname="pyenv.svg"
   xml:space="preserve"
   inkscape:version="1.3.2 (091e20e, 2023-11-25)"
   xmlns:inkscape="http://www.inkscape.org/namespaces/inkscape"
   xmlns:sodipodi="http://sodipodi.sourceforge.net/DTD/sodipodi-0.dtd"
   xmlns="http://www.w3.org/2000/svg"
   xmlns:svg="http://www.w3.org/2000/svg"><defs
     id="defs6" /><sodipodi:namedview
     id="namedview6"
     pagecolor="#ffffff"
     bordercolor="#000000"
     borderopacity="0.25"
     inkscape:showpageshadow="2"
     inkscape:pageopacity="0.0"
     inkscape:pagecheckerboard="0"
     inkscape:deskcolor="#d1d1d1"
     inkscape:zoom="6.0723531"
     inkscape:cx="53.685943"
     inkscape:cy="69.989342"
     inkscape:window-width="1736"
     inkscape:window-height="1195"
     inkscape:window-x="916"
     inkscape:window-y="1295"
     inkscape:window-maximized="0"
     inkscape:current-layer="svg6" /><linearGradient
     id="python-original-a"
     gradientUnits="userSpaceOnUse"
     x1="70.252"
     y1="1237.476"
     x2="170.659"
     y2="1151.089"
     gradientTransform="matrix(0.59583766,0,0,-0.56787,-44.39686,705.77491)"><stop
       offset="0"
       stop-color="#5A9FD4"
       id="stop1"
       style="stop-color:#808080;stop-opacity:1;" /><stop
       offset="1"
       stop-color="#306998"
       id="stop2"
       style="stop-color:#808080;stop-opacity:1;" /></linearGradient><linearGradient
     id="python-original-b"
     gradientUnits="userSpaceOnUse"
     x1="209.474"
     y1="1098.811"
     x2="173.62"
     y2="1149.537"
     gradientTransform="matrix(0.59583766,0,0,-0.56787,-44.39686,705.77491)"><stop
       offset="0"
       stop-color="#FFD43B"
       id="stop3" /><stop
       offset="1"
       stop-color="#FFE873"
       id="stop4" /></linearGradient><rect
     style="fill:#808080;stroke:none;stroke-width:42.0712;stroke-linecap:round"
     id="rect6"
     width="35.222961"
     x="92.387772"
     y="85.528809"
     inkscape:label="rect6"
     height="10.762417" /><path
     fill="url(#python-original-a)"
     d="M 53.610478,0.10751857 C 49.142233,0.12751413 44.877164,0.48643177 41.122239,1.114288 30.06273,2.9598648 28.056133,6.8229803 28.056133,13.948349 v 9.408839 h 26.133255 v 3.136291 H 18.247581 c -7.59455,0 -14.2450718,4.312012 -16.3257397,12.518122 -2.40028414,9.402847 -2.50611664,15.271507 0,25.090253 1.857361,7.30932 6.2938633,12.516126 13.8894747,12.516126 H 24.79756 V 65.338565 c 0,-8.149121 7.462245,-15.336486 16.325736,-15.336486 h 26.103611 c 7.266467,0 13.066095,-5.652694 13.066095,-12.545117 V 13.949341 C 80.293002,7.2578804 74.317684,2.2320324 67.226907,1.115288 62.735367,0.40944941 58.077668,0.088523 53.610478,0.10751857 Z M 39.477598,7.6747844 c 2.698733,0 4.904288,2.1165155 4.904288,4.7199236 0,2.592403 -2.204496,4.688917 -4.904288,4.688917 -2.709325,0 -4.903225,-2.096514 -4.903225,-4.688917 -0.0011,-2.6034081 2.1939,-4.7199236 4.903225,-4.7199236 z"
     id="path4"
     style="fill:url(#python-original-a);stroke-width:1.02864" /><path
     fill="url(#python-original-b)"
     d="m 83.551583,26.493479 v 10.963483 c 0,8.49805 -7.628419,15.651435 -16.325734,15.651435 h -26.10361 c -7.150059,0 -13.066106,5.781649 -13.066106,12.5461 V 89.16411 c 0,6.689467 6.157349,10.625561 13.066106,12.54413 8.271875,2.29647 16.205092,2.71237 26.10361,0 6.578544,-1.800602 13.06609,-5.421755 13.06609,-12.54413 V 79.754268 H 54.189388 v -3.137289 h 39.170756 c 7.594546,0 10.426626,-5.003848 13.068216,-12.516128 2.72836,-7.733234 2.61089,-15.170513 0,-25.090241 -1.87747,-7.143368 -5.46203,-12.518146 -13.068216,-12.518146 h -9.808561 z m -14.682161,59.53335 c 2.710371,0 4.904319,2.096519 4.904319,4.690918 0,2.601412 -2.195002,4.717928 -4.904319,4.717928 -2.698729,0 -4.903224,-2.116516 -4.903224,-4.717928 0,-2.594399 2.204495,-4.690918 4.903224,-4.690918 z"
     id="path5"
     style="fill:#808080;stroke-width:1.02864;fill-opacity:1" /><radialGradient
     id="python-original-c"
     cx="1825.678"
     cy="444.45"
     r="26.743"
     gradientTransform="matrix(0,-0.2399449,-1.116534,0,550.58766,545.31059)"
     gradientUnits="userSpaceOnUse"><stop
       offset="0"
       stop-color="#B8B8B8"
       stop-opacity=".498"
       id="stop5" /><stop
       offset="1"
       stop-color="#7F7F7F"
       stop-opacity="0"
       id="stop6" /></radialGradient></svg>
