<?xml version="1.0" encoding="UTF-8" standalone="no"?>
<svg
   viewBox="0 0 128 128"
   version="1.1"
   id="svg6"
   sodipodi:docname="Python_greyscale.svg"
   inkscape:version="1.3.2 (091e20e, 2023-11-25)"
   xmlns:inkscape="http://www.inkscape.org/namespaces/inkscape"
   xmlns:sodipodi="http://sodipodi.sourceforge.net/DTD/sodipodi-0.dtd"
   xmlns="http://www.w3.org/2000/svg"
   xmlns:svg="http://www.w3.org/2000/svg">
  <defs
     id="defs6" />
  <sodipodi:namedview
     id="namedview6"
     pagecolor="#ffffff"
     bordercolor="#000000"
     borderopacity="0.25"
     inkscape:showpageshadow="2"
     inkscape:pageopacity="0.0"
     inkscape:pagecheckerboard="0"
     inkscape:deskcolor="#d1d1d1"
     inkscape:zoom="5.9375"
     inkscape:cx="64"
     inkscape:cy="63.915789"
     inkscape:window-width="1392"
     inkscape:window-height="1212"
     inkscape:window-x="572"
     inkscape:window-y="1314"
     inkscape:window-maximized="0"
     inkscape:current-layer="svg6" />
  <linearGradient
     id="python-original-a"
     gradientUnits="userSpaceOnUse"
     x1="70.252"
     y1="1237.476"
     x2="170.659"
     y2="1151.089"
     gradientTransform="matrix(0.69914956,0,0,-0.69831522,-51.841565,868.22479)">
    <stop
       offset="0"
       stop-color="#5A9FD4"
       id="stop1" />
    <stop
       offset="1"
       stop-color="#306998"
       id="stop2" />
  </linearGradient>
  <linearGradient
     id="python-original-b"
     gradientUnits="userSpaceOnUse"
     x1="209.474"
     y1="1098.811"
     x2="173.62"
     y2="1149.537"
     gradientTransform="matrix(0.69914956,0,0,-0.69831522,-51.841565,868.22479)">
    <stop
       offset="0"
       stop-color="#FFD43B"
       id="stop3" />
    <stop
       offset="1"
       stop-color="#FFE873"
       id="stop4" />
  </linearGradient>
  <path
     fill="url(#python-original-a)"
     d="M 63.159225,0.45870879 C 57.916225,0.48329736 52.911655,0.92466206 48.505646,1.6967429 35.528536,3.9662673 33.174029,8.7167777 33.174029,17.478912 V 29.04906 h 30.664477 v 3.856716 H 21.66476 c -8.911363,0 -16.7150145,5.302524 -19.1564498,15.39367 -2.81646751,11.562772 -2.94065039,18.779515 0,30.853729 2.1794095,8.988349 7.3851555,15.391211 16.2977598,15.391211 H 29.350438 V 80.673978 c 0,-10.021069 8.756135,-18.859428 19.15645,-18.859428 h 30.629706 c 8.526396,0 15.331618,-6.951187 15.331618,-15.426865 V 17.480141 C 94.468212,9.2515789 87.456847,3.0712436 79.136594,1.6979723 73.866273,0.8299961 68.400985,0.43534966 63.159225,0.45870879 Z M 46.575845,9.7642505 c 3.166663,0 5.754634,2.6026985 5.754634,5.8041295 0,3.187908 -2.586729,5.766018 -5.754634,5.766018 -3.179082,0 -5.753393,-2.57811 -5.753393,-5.766018 -0.0012,-3.201431 2.574311,-5.8041295 5.753393,-5.8041295 z"
     id="path4"
     style="fill:#808080;stroke-width:1.23561;fill-opacity:1" />
  <path
     fill="url(#python-original-b)"
     d="m 98.291802,32.905776 v 13.481909 c 0,10.45014 -8.951101,19.246698 -19.15645,19.246698 H 48.505646 c -8.389794,0 -15.331617,7.109783 -15.331617,15.428094 v 28.910003 c 0,8.2261 7.224959,13.06637 15.331617,15.42564 9.706134,2.824 19.014882,3.33544 30.629706,0 7.719208,-2.2142 15.331618,-6.66719 15.331618,-15.42564 V 98.401102 H 63.838506 v -3.857945 h 45.962564 c 8.91136,0 12.2345,-6.153288 15.3341,-15.391211 3.20143,-9.509627 3.06359,-18.655343 0,-30.853729 -2.203,-8.784264 -6.40908,-15.39367 -15.3341,-15.39367 H 98.291802 Z m -17.22789,73.208754 c 3.180324,0 5.754635,2.57812 5.754635,5.76848 0,3.19897 -2.575553,5.80167 -5.754635,5.80167 -3.166663,0 -5.753392,-2.6027 -5.753392,-5.80167 0,-3.19036 2.586729,-5.76848 5.753392,-5.76848 z"
     id="path5"
     style="fill:#808080;stroke-width:1.23561;fill-opacity:1" />
  <radialGradient
     id="python-original-c"
     cx="1825.678"
     cy="444.45"
     r="26.743"
     gradientTransform="matrix(0 -.24 -1.055 0 532.979 557.576)"
     gradientUnits="userSpaceOnUse">
    <stop
       offset="0"
       stop-color="#B8B8B8"
       stop-opacity=".498"
       id="stop5" />
    <stop
       offset="1"
       stop-color="#7F7F7F"
       stop-opacity="0"
       id="stop6" />
  </radialGradient>
</svg>
