<?xml version="1.0" encoding="UTF-8" standalone="no"?>
<!-- Created with Inkscape (http://www.inkscape.org/) -->

<svg
   version="1.0"
   id="svg2"
   sodipodi:version="0.32"
   inkscape:version="1.3.2 (091e20e, 2023-11-25)"
   sodipodi:docname="Python-logo-notext.svg"
   width="85.501396pt"
   height="86.43383pt"
   inkscape:export-filename="python-logo-only.svg"
   inkscape:export-xdpi="232.44"
   inkscape:export-ydpi="232.44"
   xmlns:inkscape="http://www.inkscape.org/namespaces/inkscape"
   xmlns:sodipodi="http://sodipodi.sourceforge.net/DTD/sodipodi-0.dtd"
   xmlns="http://www.w3.org/2000/svg"
   xmlns:svg="http://www.w3.org/2000/svg"
   xmlns:rdf="http://www.w3.org/1999/02/22-rdf-syntax-ns#"
   xmlns:cc="http://creativecommons.org/ns#"
   xmlns:dc="http://purl.org/dc/elements/1.1/">
  <metadata
     id="metadata371">
    <rdf:RDF>
      <cc:Work
         rdf:about="">
        <dc:format>image/svg+xml</dc:format>
        <dc:type
           rdf:resource="http://purl.org/dc/dcmitype/StillImage" />
      </cc:Work>
    </rdf:RDF>
  </metadata>
  <sodipodi:namedview
     inkscape:window-height="1387"
     inkscape:window-width="1976"
     inkscape:pageshadow="2"
     inkscape:pageopacity="0.0"
     guidetolerance="10.0"
     gridtolerance="10.0"
     objecttolerance="10.0"
     borderopacity="1.0"
     bordercolor="#666666"
     pagecolor="#ffffff"
     id="base"
     inkscape:zoom="2.1461642"
     inkscape:cx="91.558698"
     inkscape:cy="85.268406"
     inkscape:window-x="2719"
     inkscape:window-y="25"
     inkscape:current-layer="svg2"
     width="210mm"
     height="40mm"
     units="mm"
     inkscape:showpageshadow="2"
     inkscape:pagecheckerboard="0"
     inkscape:deskcolor="#d1d1d1"
     inkscape:document-units="pt"
     showgrid="false"
     inkscape:window-maximized="0" />
  <defs
     id="defs4" />
  <path
     style="fill:none;fill-opacity:1;stroke:#7f7f7f;stroke-width:2.86667;stroke-dasharray:none;stroke-opacity:1"
     d="m 56.335546,1.4342547 c -4.583653,0.021298 -8.960939,0.4122177 -12.8125,1.09375 C 32.17683,4.5325085 30.116797,8.7281068 30.116796,16.465504 v 10.21875 h 26.8125 v 3.40625 h -26.8125 -10.0625 c -7.792459,0 -14.6157586,4.683717 -16.7499996,13.59375 -2.46182002,10.212966 -2.57101512,16.586023 0,27.25 1.9059283,7.937852 6.4575432,13.593748 14.2499996,13.59375 h 9.21875 v -12.25 c 0,-8.849902 7.657144,-16.656248 16.75,-16.65625 h 26.78125 c 7.454951,0 13.406253,-6.138164 13.40625,-13.625 v -25.53125 c 0,-7.2663382 -6.12998,-12.7247767 -13.40625,-13.9374993 -4.605987,-0.7667253 -9.385097,-1.1150483 -13.96875,-1.09375 z m -14.5,8.2187501 c 2.769547,0 5.03125,2.2986452 5.03125,5.1249992 -2e-6,2.816336 -2.261703,5.09375 -5.03125,5.09375 -2.779476,-1e-6 -5.03125,-2.277415 -5.03125,-5.09375 -10e-7,-2.826353 2.251774,-5.1249992 5.03125,-5.1249992 z"
     id="path1948" />
  <path
     style="fill:#7f7f7f;fill-opacity:1;stroke:#7f7f7f;stroke-width:2.86667;stroke-dasharray:none;stroke-opacity:1"
     d="m 87.054296,30.090504 v 11.90625 c 0,9.230755 -7.825895,16.999999 -16.75,17 h -26.78125 c -7.335833,0 -13.406249,6.278483 -13.40625,13.625 v 25.531247 c 0,7.266349 6.318588,11.540329 13.40625,13.625009 8.487331,2.49561 16.626237,2.94663 26.78125,0 6.750155,-1.95439 13.406253,-5.88761 13.40625,-13.625009 V 87.934254 h -26.78125 v -3.40625 H 83.710546 97.1168 c 7.79246,0 10.69625,-5.435408 13.40624,-13.59375 2.79933,-8.398886 2.68022,-16.475776 0,-27.25 -1.92578,-7.757441 -5.60387,-13.59375 -13.40624,-13.59375 z m -15.0625,64.65625 c 2.779478,3e-6 5.03125,2.277417 5.03125,5.093747 -2e-6,2.826359 -2.251775,5.125009 -5.03125,5.125009 -2.76955,0 -5.03125,-2.29865 -5.03125,-5.125009 2e-6,-2.81633 2.261697,-5.093747 5.03125,-5.093747 z"
     id="path1950" />
</svg>
