<?xml version="1.0" encoding="UTF-8" standalone="no"?>
<svg
   viewBox="0 0 128 128"
   version="1.1"
   id="svg4"
   sodipodi:docname="scikit-learn.svg"
   inkscape:version="1.4 (e7c3feb1, 2024-10-09)"
   xmlns:inkscape="http://www.inkscape.org/namespaces/inkscape"
   xmlns:sodipodi="http://sodipodi.sourceforge.net/DTD/sodipodi-0.dtd"
   xmlns="http://www.w3.org/2000/svg"
   xmlns:svg="http://www.w3.org/2000/svg">
  <defs
     id="defs4" />
  <sodipodi:namedview
     id="namedview4"
     pagecolor="#ffffff"
     bordercolor="#000000"
     borderopacity="0.25"
     inkscape:showpageshadow="2"
     inkscape:pageopacity="0.0"
     inkscape:pagecheckerboard="true"
     inkscape:deskcolor="#d1d1d1"
     inkscape:zoom="2.5592847"
     inkscape:cx="60.563798"
     inkscape:cy="26.960658"
     inkscape:window-width="1512"
     inkscape:window-height="861"
     inkscape:window-x="0"
     inkscape:window-y="39"
     inkscape:window-maximized="0"
     inkscape:current-layer="svg4" />
  <path
     fill="#3499cd"
     d="M34.04 65.56c-9.07-9.06-22.27-10.57-29.48-3.37-7.21 7.21-5.7 20.4 3.37 29.46 9.07 9.07 26.4 6.44 29.48 3.37 2.49-2.49 5.71-20.4-3.37-29.46Z"
     id="path2"
     style="fill:#808080" />
  <path
     id="path1"
     style="display:inline;fill:#808080"
     d="m 83.205078,29.505859 c -10.190786,0.191075 -21.233516,4.858282 -30.02539,13.644532 -15.630001,15.62 -11.108829,45.479296 -5.798829,50.779297 4.29,4.29 35.168829,9.821172 50.798829,-5.798829 15.630002,-15.62 18.230782,-38.36125 5.800782,-50.78125 -5.438126,-5.43375 -12.849225,-7.992363 -20.775392,-7.84375 z m -1.085937,30.164063 h 0.941406 V 60.75 h -0.941406 z m 2.361328,0 h 0.939453 v 4.349609 l 2.220703,-2.25 h 1.208984 l -2.109375,2.050781 2.330078,3.46875 h -1.160156 l -1.830078,-2.818359 -0.660156,0.628906 v 2.189453 h -0.939453 z m 5.330078,0 H 90.75 V 60.75 h -0.939453 z m 3.46875,0.179687 v 1.929688 h 0.941406 v 0.730469 h -0.941406 v 3.230468 c 0,0.26 0.02078,0.429766 0.05078,0.509766 0.03,0.07 0.09016,0.129687 0.160156,0.179688 0.07,0.05 0.180313,0.07031 0.320313,0.07031 0.09788,0 0.235246,-0.01754 0.400391,-0.03711 v -0.002 h 0.0098 c -0.0036,4.24e-4 -0.0062,0.0015 -0.0098,0.002 l 0.138671,0.826171 c -0.27,0.05 -0.498984,0.08008 -0.708984,0.08008 -0.34,0 -0.601016,-0.0482 -0.791016,-0.158203 -0.18,-0.100001 -0.308672,-0.241875 -0.388671,-0.421876 -0.07,-0.169999 -0.111329,-0.539609 -0.111329,-1.099609 v -3.179687 h -0.689453 v -0.730469 h 0.689453 v -1.369141 z m -20,1.800782 c 0.43,0 0.810625,0.05945 1.140625,0.189453 0.33,0.12 0.570469,0.289765 0.730469,0.509765 0.16,0.21 0.260312,0.501328 0.320312,0.861329 l -0.919922,0.11914 c -0.04,-0.28 -0.161328,-0.509922 -0.361328,-0.669922 -0.2,-0.16 -0.479609,-0.240234 -0.849609,-0.240234 -0.43,0 -0.739922,0.07094 -0.919922,0.210937 -0.18,0.14 -0.279297,0.31 -0.279297,0.5 0,0.12 0.03938,0.230078 0.109375,0.330079 0.08,0.1 0.199375,0.179999 0.359375,0.25 0.09,0.03 0.370078,0.108281 0.830078,0.238281 0.66,0.18 1.120625,0.32164 1.390625,0.43164 0.26,0.11 0.469141,0.278282 0.619141,0.488282 l 0.01172,0.01172 c 0.15,0.21 0.21875,0.478829 0.21875,0.798829 0,0.319999 -0.08953,0.610859 -0.269532,0.880859 -0.18,0.27 -0.441015,0.488672 -0.791015,0.638672 -0.34,0.15 -0.728204,0.230469 -1.158203,0.230469 -0.72,0 -1.260625,-0.149219 -1.640626,-0.449219 -0.379999,-0.3 -0.620703,-0.740078 -0.720703,-1.330078 L 72.029297,65.5 c 0.05,0.37 0.201641,0.659609 0.431641,0.849609 0.239999,0.2 0.569999,0.300782 1,0.300782 0.43,0 0.748984,-0.08977 0.958984,-0.259766 0.21,-0.17 0.310547,-0.381094 0.310547,-0.621094 0,-0.21 -0.09125,-0.38 -0.28125,-0.5 -0.13,-0.08 -0.448985,-0.190312 -0.958985,-0.320312 -0.69,-0.17 -1.159687,-0.319219 -1.429687,-0.449219 -0.27,-0.13 -0.46961,-0.299297 -0.599609,-0.529297 -0.13,-0.23 -0.210938,-0.470234 -0.210938,-0.740234 0,-0.25 0.05992,-0.469688 0.169922,-0.679688 0.11,-0.21 0.270937,-0.381484 0.460937,-0.521484 0.15,-0.11 0.339844,-0.199531 0.589844,-0.269531 0.25,-0.07 0.518594,-0.109375 0.808594,-0.109375 z m 5.75,0.01953 c 0.6,0 1.090703,0.149219 1.470703,0.449219 0.38,0.3 0.620469,0.731015 0.730469,1.291015 l -0.910157,0.140625 c -0.09,-0.37 -0.240937,-0.649844 -0.460937,-0.839843 -0.22,-0.190001 -0.488828,-0.28125 -0.798828,-0.28125 -0.47,0 -0.860391,0.179765 -1.150391,0.509765 -0.29,0.33 -0.439453,0.859609 -0.439453,1.599609 0,0.740001 0.149688,1.291094 0.429688,1.621094 0.28,0.33 0.649375,0.5 1.109375,0.5 0.37,0 0.669922,-0.109843 0.919922,-0.339844 v 0.01953 c 0.25,-0.23 0.400703,-0.569063 0.470703,-1.039063 l 0.919921,0.119141 c -0.1,0.63 -0.359531,1.130234 -0.769531,1.490234 -0.42,0.36 -0.93125,0.539063 -1.53125,0.539063 -0.75,0 -1.360312,-0.248282 -1.820312,-0.738281 -0.46,-0.490001 -0.689453,-1.201094 -0.689453,-2.121094 0,-0.6 0.100781,-1.120313 0.300781,-1.570313 0.19,-0.45 0.50039,-0.789765 0.900391,-1.009765 0.409999,-0.23 0.838359,-0.339844 1.318359,-0.339844 z m 3.089844,0.109375 h 0.941406 v 5.521484 h -0.941406 z m 7.691406,0 H 90.75 v 5.521484 h -0.939453 z" />
  <path
     fill="#010101"
     d="M123.82 85.68c-.58 0-.87-.35-.87-1.06 0-.53.35-1.69 1.04-3.46 1.01-2.59 1.52-4.45 1.52-5.58 0-.68-.2-1.25-.6-1.7-.4-.45-.9-.68-1.5-.68-.88 0-1.89.41-3.03 1.24-1.14.83-2.67 2.32-4.6 4.48.28-1.4.88-3.32 1.78-5.76l-4.31.83c-.98 2.12-1.69 4.03-2.13 5.73-.22.83-.38 1.69-.49 2.56-1.35 1.31-2.23 2.1-2.61 2.39-.39.29-.8.43-1.22.43-.39 0-.7-.15-.93-.44-.23-.29-.34-.69-.34-1.18 0-.53.1-1.14.3-1.83s.64-1.99 1.33-3.9l1.64-4.52-1.61.07c-1.46 2.78-3.17 4.28-5.13 4.49.53-1.38.8-2.44.8-3.18 0-.94-.46-1.41-1.38-1.41-1.09 0-1.94.51-2.55 1.54-.62 1.03-.93 2-.93 2.91s.51 1.55 1.52 2c-.66.97-1.4 1.88-2.2 2.74-.95.94-1.69 1.66-2.23 2.13-.55.49-1.06.73-1.52.73-.72 0-1.08-.51-1.08-1.52s.4-2.75 1.2-5.35l1.56-5.18h-.99l-3.61 2c-.59-1.35-1.62-2.03-3.09-2.03-1.17 0-2.51.5-4.03 1.49-1.52.99-2.77 2.28-3.74 3.89-.75 1.24-1.21 2.54-1.38 3.88-1.36 1.36-2.38 2.24-3.06 2.65-.71.42-1.45.63-2.23.63-1.99 0-3.22-1.15-3.69-3.45 5.19-1.52 7.78-3.5 7.78-5.94 0-.92-.33-1.66-.99-2.23-.66-.57-1.54-.85-2.63-.85-2.11 0-4.03 1.01-5.76 3.03-1.57 1.83-2.42 3.86-2.57 6.09-1.43 1.41-2.51 2.34-3.21 2.79-.72.46-1.4.69-2.03.69s-1.13-.3-1.5-.9c-.38-.6-.57-1.41-.57-2.44 0-.46.05-1.3.14-2.53 2.36-2.56 4.09-4.96 5.2-7.21 1.11-2.25 1.66-4.58 1.66-6.98 0-.85-.11-1.52-.33-2.02-.22-.5-.5-.75-.84-.75-.07 0-.18.02-.32.07l-4.49 1.66c-1.53 2.92-2.84 6.11-3.91 9.58-1.07 3.46-1.61 6.43-1.61 8.9 0 1.65.38 2.96 1.16 3.94.77.98 1.79 1.47 3.05 1.47 1.1 0 2.25-.35 3.46-1.05 1.21-.7 2.61-1.79 4.22-3.26s0-.02 0-.02c.19 1.11.65 2.04 1.37 2.8.99 1.02 2.28 1.54 3.88 1.54 1.44 0 2.75-.35 3.94-1.05 1.15-.67 2.44-1.72 3.88-3.11.12 1.04.46 1.94 1.03 2.71.73.97 1.61 1.46 2.64 1.46s2.09-.4 3.09-1.2c1-.8 2.08-2.05 3.26-3.73-.11 3.29.77 4.93 2.63 4.93.74 0 1.52-.27 2.33-.81s2.16-1.71 4.05-3.5c1.64-1.62 2.84-3.14 3.61-4.56 1.04-.18 1.99-.49 2.86-.94-1.78 2.79-2.67 5.02-2.67 6.68 0 .9.25 1.65.74 2.25.49.6 1.1.91 1.82.91 1.57 0 3.8-1.41 6.68-4.2 0 .22-.02.43-.02.65 0 .78.07 1.96.19 3.55l3.91-.92c0-1.06.02-1.9.05-2.53.06-.84.18-1.76.35-2.76.11-.59.38-1.15.81-1.68l.99-1.15c.36-.42.71-.8 1.02-1.13.37-.39.7-.72.99-.99.33-.29.62-.53.87-.69.27-.16.49-.25.65-.25.29 0 .44.19.44.57s-.28 1.26-.83 2.65c-1.04 2.59-1.56 4.52-1.56 5.78 0 .93.24 1.67.73 2.23.48.55 1.12.83 1.91.83 1.94 0 4.28-1.44 7-4.31V82.3c-1.93 2.27-3.32 3.41-4.18 3.41Zm-65.26-8.29c.8-3.91 1.62-6.94 2.45-9.11.83-2.17 1.47-3.26 1.9-3.26.2 0 .37.13.5.4.13.26.19.62.19 1.05 0 1.49-.46 3.26-1.4 5.33-.93 2.06-2.15 3.93-3.64 5.59Zm11.79-.98c.71-1.19 1.45-1.78 2.23-1.78.82 0 1.24.57 1.24 1.7 0 2.29-1.51 3.85-4.53 4.7 0-1.9.35-3.44 1.06-4.62Zm17.48 5.85c-1.04 2.01-2.16 3.01-3.33 3.01-.48 0-.88-.2-1.19-.59-.31-.39-.47-.91-.47-1.55 0-1.68.53-3.53 1.58-5.53 1.05-2 2.17-3 3.35-3 .49 0 .89.18 1.18.56.29.37.44.89.44 1.55 0 1.7-.52 3.55-1.56 5.56Z"
     id="path3"
     style="fill:#000000" />
</svg>
