<?xml version="1.0" encoding="UTF-8" standalone="no"?>
<svg
   id="SVGRoot"
   version="1.1"
   viewBox="0 0 48 48"
   height="48px"
   width="48px"
   inkscape:version="1.4 (e7c3feb1, 2024-10-09)"
   sodipodi:docname="solaris.svg"
   xmlns:inkscape="http://www.inkscape.org/namespaces/inkscape"
   xmlns:sodipodi="http://sodipodi.sourceforge.net/DTD/sodipodi-0.dtd"
   xmlns="http://www.w3.org/2000/svg"
   xmlns:svg="http://www.w3.org/2000/svg"
   xmlns:rdf="http://www.w3.org/1999/02/22-rdf-syntax-ns#"
   xmlns:cc="http://creativecommons.org/ns#"
   xmlns:dc="http://purl.org/dc/elements/1.1/">
  <defs
     id="defs7051" />
  <sodipodi:namedview
     id="base"
     pagecolor="#ffffff"
     bordercolor="#666666"
     borderopacity="1.0"
     inkscape:pageopacity="0.0"
     inkscape:pageshadow="2"
     inkscape:zoom="12.299124"
     inkscape:cx="23.091076"
     inkscape:cy="25.286354"
     inkscape:document-units="px"
     inkscape:current-layer="layer1"
     inkscape:document-rotation="0"
     showgrid="false"
     inkscape:window-width="1440"
     inkscape:window-height="877"
     inkscape:window-x="0"
     inkscape:window-y="39"
     inkscape:window-maximized="0"
     inkscape:grid-bbox="true"
     inkscape:showpageshadow="2"
     inkscape:pagecheckerboard="0"
     inkscape:deskcolor="#d1d1d1" />
  <metadata
     id="metadata7054">
    <rdf:RDF>
      <cc:Work
         rdf:about="">
        <dc:format>image/svg+xml</dc:format>
        <dc:type
           rdf:resource="http://purl.org/dc/dcmitype/StillImage" />
      </cc:Work>
    </rdf:RDF>
  </metadata>
  <g
     inkscape:label="Layer 1"
     inkscape:groupmode="layer"
     id="layer1"
     style="display:inline">
    <g
       id="g8621"
       style="display:inline">
      <rect
         style="color:#000000;display:inline;overflow:visible;mix-blend-mode:normal;fill:none;stroke-width:0.5;stroke-linecap:round"
         id="rect8617"
         width="47.070312"
         height="47.072266"
         x="0.59960938"
         y="0.52148438" />
      <path
         id="path134"
         style="display:inline;opacity:1;fill:#808080;fill-opacity:1;fill-rule:nonzero;stroke:none;stroke-width:0.133333;stop-opacity:1"
         d="M 0.59960938,0.52148438 V 7.2871094 L 11.320312,13.921875 c 0.298741,0.06021 0.565545,-0.191295 0.521485,-0.492187 L 6.2011719,4.4492188 13,12.4375 c 0.300884,0.132176 0.635848,-0.103883 0.613281,-0.431641 L 11.603516,0.52148438 Z m 11.32031262,0 3.535156,10.99804662 c 0.142919,0.297661 0.549444,0.338545 0.746094,0.07422 l 3.044922,-6.7851562 -1.548828,7.0761722 c 0.109612,0.283693 0.468377,0.369796 0.697265,0.169922 L 25.003906,3.7285166 19.929688,12.94922 c -0.06126,0.298741 0.192374,0.565545 0.492187,0.521484 l 7.638672,-4.7031249 -6.646485,5.8613279 c -0.132175,0.301964 0.101738,0.63692 0.431641,0.613282 L 47.669922,9.1757812 V 0.52148438 Z M 0.59960938,7.5234375 V 20.746094 L 9.890625,18.396484 c 0.296588,-0.142918 0.337726,-0.549441 0.072266,-0.746093 l -7.181641,-2.585938 7.474609,1.089844 c 0.283694,-0.111757 0.369798,-0.468377 0.169922,-0.697266 z M 47.669922,9.4785156 22.330078,17.083984 c -0.296588,0.142919 -0.335578,0.548364 -0.07227,0.746094 l 10.123047,2.09375 -10.414062,-0.597656 c -0.281549,0.109612 -0.370678,0.468377 -0.171875,0.697266 L 34.179684,28.199219 20.90234,21.558594 c -0.296589,-0.06126 -0.564474,0.192375 -0.521485,0.492187 l 4.533203,5.878907 -5.691406,-4.886719 c -0.303036,-0.132175 -0.636728,0.10388 -0.615234,0.43164 L 25.146484,47.59375 H 47.669922 Z M 10.376953,20.238281 0.59960938,21.46875 v 26.125 H 24.90625 L 16.767578,23.958984 c -0.142919,-0.296588 -0.549443,-0.336659 -0.746094,-0.07227 L 13.578125,35.216797 14.525391,23.595703 C 14.414707,23.31308 14.057013,23.225024 13.828125,23.423828 L 5.4804688,36.027344 12.292969,22.529297 c 0.06126,-0.296589 -0.192176,-0.563592 -0.494141,-0.519531 l -7.5781249,4.300781 6.5878909,-5.458985 c 0.132176,-0.301964 -0.102811,-0.636919 -0.431641,-0.613281 z" />
    </g>
  </g>
</svg>
