<?xml version="1.0" encoding="UTF-8" standalone="no"?>
<svg
   viewBox="0 0 128 128"
   version="1.1"
   id="svg14"
   sodipodi:docname="Azure SQL Database.svg"
   inkscape:version="1.3.2 (091e20e, 2023-11-25)"
   xmlns:inkscape="http://www.inkscape.org/namespaces/inkscape"
   xmlns:sodipodi="http://sodipodi.sourceforge.net/DTD/sodipodi-0.dtd"
   xmlns="http://www.w3.org/2000/svg"
   xmlns:svg="http://www.w3.org/2000/svg">
  <sodipodi:namedview
     id="namedview14"
     pagecolor="#ffffff"
     bordercolor="#000000"
     borderopacity="0.25"
     inkscape:showpageshadow="2"
     inkscape:pageopacity="0.0"
     inkscape:pagecheckerboard="0"
     inkscape:deskcolor="#d1d1d1"
     inkscape:zoom="5.9375"
     inkscape:cx="64"
     inkscape:cy="63.915789"
     inkscape:window-width="1392"
     inkscape:window-height="1212"
     inkscape:window-x="1114"
     inkscape:window-y="1244"
     inkscape:window-maximized="0"
     inkscape:current-layer="svg14" />
  <defs
     id="defs10">
    <radialGradient
       id="b"
       cx="9.36"
       cy="10.57"
       fx="9.36"
       fy="10.57"
       r="7.07"
       gradientTransform="matrix(73.03125 0 0 37.1875 29.797 56.535)">
      <stop
         offset="0"
         style="stop-color:#f2f2f2;stop-opacity:1"
         id="stop1" />
      <stop
         offset=".58"
         style="stop-color:#eee;stop-opacity:1"
         id="stop2" />
      <stop
         offset="1"
         style="stop-color:#e6e6e6;stop-opacity:1"
         id="stop3" />
    </radialGradient>
    <linearGradient
       id="a"
       gradientUnits="userSpaceOnUse"
       x1="2.59"
       y1="10.16"
       x2="15.41"
       y2="10.16"
       gradientTransform="scale(7.11111)">
      <stop
         offset="0"
         style="stop-color:#005ba1;stop-opacity:1"
         id="stop4" />
      <stop
         offset=".07"
         style="stop-color:#0060a9;stop-opacity:1"
         id="stop5" />
      <stop
         offset=".36"
         style="stop-color:#0071c8;stop-opacity:1"
         id="stop6" />
      <stop
         offset=".52"
         style="stop-color:#0078d4;stop-opacity:1"
         id="stop7" />
      <stop
         offset=".64"
         style="stop-color:#0074cd;stop-opacity:1"
         id="stop8" />
      <stop
         offset=".82"
         style="stop-color:#006abb;stop-opacity:1"
         id="stop9" />
      <stop
         offset="1"
         style="stop-color:#005ba1;stop-opacity:1"
         id="stop10" />
    </linearGradient>
  </defs>
  <path
     id="path10"
     style="display:inline;fill:#808080;fill-opacity:1;fill-rule:nonzero;stroke:none"
     d="m 18.417969,20.054688 v 87.890622 c 0,9.03199 20.055431,16.356 44.941406,16.5 H 64 c 25.171975,0 45.58203,-7.11301 45.58203,-16.5 V 20.054688 c 0,9.17199 -20.410055,16.496093 -45.58203,16.496093 -25.171975,0 -45.582031,-7.110103 -45.582031,-16.496093 z m 22.117187,36.480468 a 18.236,18.236 0 0 1 7.109375,1.136719 v 6.113281 a 11.533,11.533 0 0 0 -7.109375,-2.0625 4.847,4.847 0 0 0 -2.988281,0.855469 2.418,2.418 0 0 0 -1.066406,2.132813 3.13,3.13 0 0 0 0.851562,2.277343 13.064,13.064 0 0 0 3.628907,2.203125 17.225,17.225 0 0 1 5.902343,4.054688 7.458,7.458 0 0 1 1.777344,4.976562 7.681,7.681 0 0 1 -2.347656,6.46875 c -2.456998,1.699999 -5.410628,2.523656 -8.390625,2.347656 A 15.411,15.411 0 0 1 30.292969,85.332031 V 78.71875 a 11.801,11.801 0 0 0 7.75,2.988281 5.786,5.786 0 0 0 3.203125,-0.78125 c 0.710999,-0.507999 1.136718,-1.328032 1.136718,-2.207031 a 2.982,2.982 0 0 0 -1.066406,-2.273438 c -1.359998,-1.034998 -2.840158,-1.8945 -4.410156,-2.5625 -4.836995,-2.132997 -7.109375,-4.976566 -7.109375,-8.601562 a 7.68,7.68 0 0 1 2.984375,-6.332031 11.67,11.67 0 0 1 7.753906,-2.414063 z m 25.597656,0.28125 A 14.228,14.228 0 0 1 73.246094,58.667969 12.87,12.87 0 0 1 78.222656,64 a 16.509,16.509 0 0 1 2.347656,7.539062 16.634,16.634 0 0 1 -2.347656,8.957032 12.736,12.736 0 0 1 -7.113281,5.40625 l 8.75,7.820312 H 71.253906 L 65.136719,86.613281 A 14.679,14.679 0 0 1 58.027344,84.480469 12.526,12.526 0 0 1 53.121094,79.21875 16.06,16.06 0 0 1 51.414062,72.105469 17.48,17.48 0 0 1 53.261719,64 a 13.217,13.217 0 0 1 5.191406,-5.261719 15.015,15.015 0 0 1 7.679687,-1.921875 z m 19.199219,0.07422 h 6.402344 v 24.175781 h 11.093745 v 5.191406 H 85.332031 Z m -19.484375,4.90625 a 7.104,7.104 0 0 0 -5.546875,2.628906 10.903,10.903 0 0 0 -2.0625,7.113281 10.842,10.842 0 0 0 2.0625,7.109376 6.538,6.538 0 0 0 5.40625,2.558593 6.673,6.673 0 0 0 5.402344,-2.488281 10.353,10.353 0 0 0 1.992187,-7.179688 11.533,11.533 0 0 0 -1.917968,-7.113281 6.181,6.181 0 0 0 -5.335938,-2.628906 z" />
  <path
     id="path11"
     style="display:inline;fill:#a0a0a0;fill-opacity:1;fill-rule:nonzero;stroke:none"
     d="M 64 3.5546875 C 38.828025 3.5546875 18.417969 10.667697 18.417969 20.054688 C 18.417969 29.440678 38.828025 36.550781 64 36.550781 C 89.171975 36.550781 109.58203 29.226678 109.58203 20.054688 C 109.58203 10.667697 89.171975 3.5546875 64 3.5546875 z M 64 8.25 C 83.269962 8.25 98.988281 12.941137 98.988281 18.703125 C 98.988281 23.004953 90.422574 26.6787 78.201172 28.314453 A 79.334 79.334 0 0 0 91.664062 25.101562 A 84.332 84.332 0 0 0 64 21.332031 A 82.193 82.193 0 0 0 36.695312 25.283203 C 31.89509 23.483686 29.011719 21.197921 29.011719 18.703125 C 29.011719 12.871137 44.730038 8.25 64 8.25 z " />
</svg>
