<?xml version="1.0" encoding="UTF-8" standalone="no"?>
<svg
   width="109"
   height="113"
   viewBox="0 0 109 113"
   fill="none"
   version="1.1"
   id="svg6"
   sodipodi:docname="supabase-logo-icon.svg"
   inkscape:version="1.4 (e7c3feb1, 2024-10-09)"
   xmlns:inkscape="http://www.inkscape.org/namespaces/inkscape"
   xmlns:sodipodi="http://sodipodi.sourceforge.net/DTD/sodipodi-0.dtd"
   xmlns="http://www.w3.org/2000/svg"
   xmlns:svg="http://www.w3.org/2000/svg">
  <sodipodi:namedview
     id="namedview6"
     pagecolor="#ffffff"
     bordercolor="#000000"
     borderopacity="0.25"
     inkscape:showpageshadow="2"
     inkscape:pageopacity="0.0"
     inkscape:pagecheckerboard="0"
     inkscape:deskcolor="#d1d1d1"
     inkscape:zoom="2.9860483"
     inkscape:cx="92.76474"
     inkscape:cy="55.759311"
     inkscape:window-width="1552"
     inkscape:window-height="810"
     inkscape:window-x="0"
     inkscape:window-y="39"
     inkscape:window-maximized="0"
     inkscape:current-layer="svg6" />
  <path
     d="M63.7076 110.284C60.8481 113.885 55.0502 111.912 54.9813 107.314L53.9738 40.0627L99.1935 40.0627C107.384 40.0627 111.952 49.5228 106.859 55.9374L63.7076 110.284Z"
     fill="url(#paint0_linear)"
     id="path1"
     style="fill:#808080;fill-opacity:1" />
  <path
     d="M63.7076 110.284C60.8481 113.885 55.0502 111.912 54.9813 107.314L53.9738 40.0627L99.1935 40.0627C107.384 40.0627 111.952 49.5228 106.859 55.9374L63.7076 110.284Z"
     fill="url(#paint1_linear)"
     fill-opacity="0.2"
     id="path2"
     style="fill:#808080;fill-opacity:1" />
  <path
     d="M45.317 2.07103C48.1765 -1.53037 53.9745 0.442937 54.0434 5.041L54.4849 72.2922H9.83113C1.64038 72.2922 -2.92775 62.8321 2.1655 56.4175L45.317 2.07103Z"
     fill="#3ECF8E"
     id="path3"
     style="fill:#808080;fill-opacity:1" />
  <defs
     id="defs6">
    <linearGradient
       id="paint0_linear"
       x1="53.9738"
       y1="54.974"
       x2="94.1635"
       y2="71.8295"
       gradientUnits="userSpaceOnUse">
      <stop
         stop-color="#249361"
         id="stop3" />
      <stop
         offset="1"
         stop-color="#3ECF8E"
         id="stop4" />
    </linearGradient>
    <linearGradient
       id="paint1_linear"
       x1="36.1558"
       y1="30.578"
       x2="54.4844"
       y2="65.0806"
       gradientUnits="userSpaceOnUse">
      <stop
         id="stop5" />
      <stop
         offset="1"
         stop-opacity="0"
         id="stop6" />
    </linearGradient>
  </defs>
</svg>
