<?xml version="1.0" encoding="UTF-8" standalone="no"?>
<svg
   viewBox="0 0 286 286"
   version="1.1"
   id="svg8"
   sodipodi:docname="tensorflow.svg"
   width="286"
   height="286"
   inkscape:version="1.3.2 (091e20e, 2023-11-25)"
   xmlns:inkscape="http://www.inkscape.org/namespaces/inkscape"
   xmlns:sodipodi="http://sodipodi.sourceforge.net/DTD/sodipodi-0.dtd"
   xmlns:xlink="http://www.w3.org/1999/xlink"
   xmlns="http://www.w3.org/2000/svg"
   xmlns:svg="http://www.w3.org/2000/svg">
  <defs
     id="defs8" />
  <sodipodi:namedview
     id="namedview8"
     pagecolor="#ffffff"
     bordercolor="#000000"
     borderopacity="0.25"
     inkscape:showpageshadow="2"
     inkscape:pageopacity="0.0"
     inkscape:pagecheckerboard="0"
     inkscape:deskcolor="#d1d1d1"
     inkscape:zoom="1.3286713"
     inkscape:cx="136.97895"
     inkscape:cy="129.82895"
     inkscape:window-width="1392"
     inkscape:window-height="1212"
     inkscape:window-x="796"
     inkscape:window-y="1291"
     inkscape:window-maximized="0"
     inkscape:current-layer="svg8" />
  <g
     id="g4"
     transform="matrix(5.3211927,0,0,5.3211927,17.407825,-20.741725)"
     style="fill:#808080">
    <g
       id="g3"
       style="fill:#808080">
      <defs
         id="defs1">
        <path
           id="SVGID_1_"
           d="M 47.5,17.6 25,4.8 v 52.6 l 9,-5.2 V 37.4 L 40.8,41.3 40.7,31.2 34,27.3 v -5.9 l 13.5,7.9 z" />
      </defs>
      <clipPath
         id="SVGID_2_">
        <use
           xlink:href="#SVGID_1_"
           overflow="visible"
           id="use1" />
      </clipPath>
      <g
         clip-path="url(#SVGID_2_)"
         id="g2"
         style="fill:#808080">
        <linearGradient
           id="SVGID_3_"
           gradientUnits="userSpaceOnUse"
           x1="-1.6"
           y1="335.04999"
           x2="53.599998"
           y2="335.04999"
           gradientTransform="translate(0,-304)">
          <stop
             offset="0"
             stop-color="#ff6f00"
             id="stop1" />
          <stop
             offset="1"
             stop-color="#ffa800"
             id="stop2" />
        </linearGradient>
        <path
           d="M -1.6,4.6 H 53.6 V 57.5 H -1.6 Z"
           fill="url(#SVGID_3_)"
           id="path2"
           style="fill:#808080" />
      </g>
    </g>
  </g>
  <g
     id="g7"
     transform="matrix(5.3211927,0,0,5.3211927,17.407825,-20.741725)"
     style="fill:#808080">
    <g
       id="g6"
       style="fill:#808080">
      <defs
         id="defs4">
        <path
           id="SVGID_4_"
           d="M 0.5,17.6 23,4.8 V 57.4 L 14,52.2 V 21.4 L 0.5,29.3 Z" />
      </defs>
      <clipPath
         id="SVGID_5_">
        <use
           xlink:href="#SVGID_4_"
           overflow="visible"
           id="use4" />
      </clipPath>
      <g
         clip-path="url(#SVGID_5_)"
         id="g5"
         style="fill:#808080">
        <linearGradient
           id="SVGID_6_"
           gradientUnits="userSpaceOnUse"
           x1="-1.9"
           y1="335.04999"
           x2="53.299999"
           y2="335.04999"
           gradientTransform="translate(0,-304)">
          <stop
             offset="0"
             stop-color="#ff6f00"
             id="stop4" />
          <stop
             offset="1"
             stop-color="#ffa800"
             id="stop5" />
        </linearGradient>
        <path
           d="M -1.9,4.6 H 53.3 V 57.5 H -1.9 Z"
           fill="url(#SVGID_6_)"
           id="path5"
           style="fill:#808080" />
      </g>
    </g>
  </g>
  <path
     style="display:none;fill:#425066"
     d="m 88.2,21.1 h -10 V 48.8 H 72.6 V 21.1 h -10 v -4.5 h 25.6 z"
     id="path7" />
  <path
     style="display:none;fill:#425066"
     d="m 94.9,49.2 c -3.4,0 -6.2,-1.1 -8.3,-3.2 -2.1,-2.1 -3.2,-5 -3.2,-8.6 v -0.7 c 0,-2.2 0.4,-4.4 1.4,-6.4 0.9,-1.8 2.2,-3.3 3.9,-4.4 1.7,-1.1 3.6,-1.6 5.6,-1.6 3.3,0 5.8,1 7.6,3.1 1.8,2.1 2.7,5 2.7,8.8 v 2.2 H 88.9 c 0.1,1.8 0.8,3.4 2,4.7 1.2,1.2 2.7,1.8 4.4,1.7 2.4,0.1 4.6,-1.1 6,-3 l 2.9,2.8 c -1,1.4 -2.3,2.6 -3.8,3.3 -1.8,1 -3.6,1.4 -5.5,1.3 z M 94.3,28.7 c -1.4,-0.1 -2.7,0.5 -3.6,1.5 -1,1.2 -1.6,2.7 -1.7,4.3 h 10.3 v -0.4 c -0.1,-1.8 -0.6,-3.2 -1.4,-4.1 -1,-0.8 -2.3,-1.4 -3.6,-1.3 z m 19.4,-3.9 0.2,2.8 c 1.7,-2.1 4.3,-3.3 7,-3.2 5,0 7.5,2.9 7.6,8.6 v 15.8 h -5.4 V 33.3 c 0,-1.5 -0.3,-2.6 -1,-3.4 -0.7,-0.7 -1.7,-1.1 -3.2,-1.1 -2.1,-0.1 -4,1.1 -4.9,2.9 v 17 h -5.4 v -24 z m 32.2,17.5 c 0,-0.9 -0.4,-1.7 -1.2,-2.2 -1.2,-0.7 -2.6,-1.1 -3.9,-1.3 -1.6,-0.3 -3.1,-0.8 -4.6,-1.5 -2.7,-1.3 -4,-3.2 -4,-5.6 0,-2 1,-4 2.6,-5.2 1.7,-1.4 4,-2.1 6.6,-2.1 2.9,0 5.2,0.7 6.9,2.1 1.7,1.3 2.7,3.4 2.6,5.5 h -5.4 c 0,-1 -0.4,-1.9 -1.2,-2.6 -0.9,-0.7 -1.9,-1.1 -3.1,-1 -1,0 -2,0.2 -2.9,0.8 -0.7,0.5 -1.1,1.3 -1.1,2.2 0,0.8 0.4,1.5 1,1.9 0.7,0.5 2.1,0.9 4.2,1.4 1.7,0.3 3.4,0.9 5,1.7 1.1,0.5 2,1.3 2.7,2.3 0.6,1 0.9,2.1 0.9,3.3 0,2.1 -1,4 -2.7,5.2 -1.8,1.3 -4.1,2 -7,2 -1.8,0 -3.6,-0.3 -5.2,-1.1 -1.4,-0.6 -2.7,-1.6 -3.6,-2.9 -0.8,-1.2 -1.3,-2.6 -1.3,-4 h 5.2 c 0,1.1 0.5,2.2 1.4,2.9 1,0.7 2.3,1.1 3.5,1 1.4,0 2.5,-0.3 3.2,-0.8 1,-0.4 1.4,-1.2 1.4,-2 z m 8.1,-5.7 c 0,-2.2 0.4,-4.4 1.4,-6.3 0.9,-1.8 2.2,-3.3 3.9,-4.3 1.8,-1 3.8,-1.6 5.8,-1.5 3.2,0 5.9,1 7.9,3.1 2,2.1 3.1,4.8 3.3,8.3 v 1.3 c 0,2.2 -0.4,4.3 -1.4,6.3 -0.8,1.8 -2.2,3.3 -3.9,4.3 -1.8,1 -3.8,1.6 -5.9,1.5 -3.4,0 -6.1,-1.1 -8.1,-3.4 -2,-2.2 -3,-5.2 -3.1,-9 z m 5.3,0.5 c 0,2.5 0.5,4.4 1.5,5.8 1.8,2.3 5.1,2.8 7.5,1 0.4,-0.3 0.7,-0.6 1,-1 1,-1.4 1.5,-3.5 1.5,-6.2 0,-2.4 -0.5,-4.3 -1.6,-5.8 -1.7,-2.3 -5,-2.8 -7.4,-1.1 -0.4,0.3 -0.8,0.7 -1.1,1 -0.8,1.4 -1.4,3.5 -1.4,6.3 z m 33.1,-7.3 c -0.7,-0.1 -1.5,-0.2 -2.2,-0.2 -2.5,0 -4.1,0.9 -5,2.8 v 16.4 h -5.4 v -24 h 5.1 l 0.1,2.7 c 1.3,-2.1 3.1,-3.1 5.4,-3.1 0.6,0 1.3,0.1 1.9,0.3 z m 22.5,5.3 h -13 v 13.7 h -5.6 V 16.6 h 20.5 v 4.5 h -14.9 v 9.6 h 13 z m 10.7,13.7 h -5.4 V 16.5 h 5.4 z m 3.9,-12.2 c 0,-2.2 0.4,-4.4 1.4,-6.3 0.9,-1.8 2.2,-3.3 3.9,-4.3 1.8,-1 3.8,-1.6 5.8,-1.5 3.2,0 5.9,1 7.9,3.1 2,2.1 3.1,4.8 3.3,8.3 v 1.3 c 0,2.2 -0.4,4.3 -1.3,6.3 -0.8,1.8 -2.2,3.3 -3.9,4.3 -1.8,1 -3.8,1.6 -5.9,1.5 -3.4,0 -6.1,-1.1 -8.1,-3.4 -2,-2.2 -3.1,-5.2 -3.1,-9 z m 5.4,0.5 c 0,2.5 0.5,4.4 1.5,5.8 1,1.4 2.6,2.2 4.3,2.1 1.7,0.1 3.3,-0.7 4.2,-2.1 1,-1.4 1.5,-3.5 1.5,-6.2 0,-2.4 -0.5,-4.3 -1.6,-5.8 -1.7,-2.3 -5,-2.8 -7.4,-1.1 -0.4,0.3 -0.8,0.7 -1.1,1 -0.9,1.4 -1.4,3.5 -1.4,6.3 z m 41.2,4.3 3.8,-16.5 h 5.2 l -6.5,24 h -4.4 L 269.1,32.4 264,48.9 h -4.4 l -6.6,-24 h 5.3 l 3.9,16.4 4.9,-16.4 h 4.1 z"
     id="path8" />
</svg>
