<?xml version="1.0" encoding="UTF-8" standalone="no"?>
<!-- Uploaded to: SVG Repo, www.svgrepo.com, Generator: SVG Repo Mixer Tools -->

<svg
   width="800px"
   height="800px"
   viewBox="0 -0.5 17 17"
   version="1.1"
   class="si-glyph si-glyph-tool-box"
   id="svg4"
   sodipodi:docname="tool-box.svg"
   inkscape:version="1.4 (e7c3feb1, 2024-10-09)"
   xmlns:inkscape="http://www.inkscape.org/namespaces/inkscape"
   xmlns:sodipodi="http://sodipodi.sourceforge.net/DTD/sodipodi-0.dtd"
   xmlns="http://www.w3.org/2000/svg"
   xmlns:svg="http://www.w3.org/2000/svg"
   xmlns:rdf="http://www.w3.org/1999/02/22-rdf-syntax-ns#"
   xmlns:cc="http://creativecommons.org/ns#"
   xmlns:dc="http://purl.org/dc/elements/1.1/">
  <sodipodi:namedview
     id="namedview4"
     pagecolor="#ffffff"
     bordercolor="#000000"
     borderopacity="0.25"
     inkscape:showpageshadow="2"
     inkscape:pageopacity="0.0"
     inkscape:pagecheckerboard="0"
     inkscape:deskcolor="#d1d1d1"
     inkscape:zoom="0.26978973"
     inkscape:cx="559.69513"
     inkscape:cy="926.64757"
     inkscape:window-width="1440"
     inkscape:window-height="831"
     inkscape:window-x="0"
     inkscape:window-y="39"
     inkscape:window-maximized="0"
     inkscape:current-layer="svg4" />
  <title
     id="title1">1017</title>
  <defs
     id="defs1" />
  <g
     stroke="none"
     stroke-width="1"
     fill="none"
     fill-rule="evenodd"
     id="g4">
    <g
       transform="translate(1.000000, 1.000000)"
       fill="#434343"
       id="g3">
      <path
         d="M11.988,8.031 L11.988,7 L4.031,7 L4.031,8.031 L1.938,8.031 L1.938,7 L0.0139770486,7 L0.0139770486,13 L16,13 L16,7 L14.031,7 L14.031,8.031 L11.988,8.031 Z"
         class="si-glyph-fill"
         id="path1"
         style="fill:#808080;fill-opacity:1" />
      <path
         d="M4,4.9855957 L4,5.96789551 L12,5.96789551 L12,4.9855957 L14,4.9855957 L14,5.96789551 L15.9873047,5.96789551 L15.9873045,3 L0,3 L2.21252548e-07,5.96789551 L1.97381592,5.96789551 L1.97381606,4.9855957 L4,4.9855957 Z"
         class="si-glyph-fill"
         id="path2"
         style="fill:#808080;fill-opacity:1" />
      <path
         d="M6.0029298,1.943 L5.01,1.943 L5.01,0.031 L10.969,0.031 L10.969,1.94299991 L10.0092771,1.94299994 L10.009277,0.986999997 L6.0029297,0.98699997 L6.0029298,1.943 Z"
         class="si-glyph-fill"
         id="path3"
         style="fill:#808080;fill-opacity:1" />
    </g>
  </g>
  <metadata
     id="metadata4">
    <rdf:RDF>
      <cc:Work
         rdf:about="">
        <dc:title>1017</dc:title>
      </cc:Work>
    </rdf:RDF>
  </metadata>
</svg>
