<?xml version="1.0" encoding="UTF-8" standalone="no"?>
<!-- Uploaded to: SVG Repo, www.svgrepo.com, Generator: SVG Repo Mixer Tools -->

<svg
   width="800px"
   height="800px"
   viewBox="0 0 32 32"
   version="1.1"
   id="svg1"
   sodipodi:docname="ubuntu-svgrepo-com.svg"
   inkscape:version="1.3.2 (091e20e, 2023-11-25)"
   xmlns:inkscape="http://www.inkscape.org/namespaces/inkscape"
   xmlns:sodipodi="http://sodipodi.sourceforge.net/DTD/sodipodi-0.dtd"
   xmlns="http://www.w3.org/2000/svg"
   xmlns:svg="http://www.w3.org/2000/svg">
  <defs
     id="defs1" />
  <sodipodi:namedview
     id="namedview1"
     pagecolor="#ffffff"
     bordercolor="#000000"
     borderopacity="0.25"
     inkscape:showpageshadow="2"
     inkscape:pageopacity="0.0"
     inkscape:pagecheckerboard="0"
     inkscape:deskcolor="#d1d1d1"
     inkscape:zoom="1.08125"
     inkscape:cx="410.17341"
     inkscape:cy="400"
     inkscape:window-width="1392"
     inkscape:window-height="1212"
     inkscape:window-x="1217"
     inkscape:window-y="1407"
     inkscape:window-maximized="0"
     inkscape:current-layer="svg1" />
  <path
     fill="#444444"
     d="m 16,0.31172832 c -8.6588995,0 -15.67831792,7.01941838 -15.67831792,15.67831768 0,8.6589 7.01941842,15.678318 15.67831792,15.678318 8.6589,0 15.678318,-7.019418 15.678318,-15.678318 C 31.678318,7.3311467 24.6589,0.31172832 16,0.31172832 Z M 19.517331,5.7110677 C 20.095238,4.7104714 21.37578,4.3667763 22.376376,4.944683 23.376972,5.5225897 23.720667,6.8031312 23.141375,7.8037275 22.563468,8.8043237 21.284312,9.1480188 20.28233,8.5687263 19.280348,7.9894337 18.938039,6.7116639 19.515946,5.7110677 Z M 16,6.8959843 c 0.842607,0 1.656112,0.1164129 2.429426,0.3298364 0.135815,0.8412216 0.636113,1.6159214 1.431601,2.0760294 0.795487,0.4601081 1.714318,0.5044561 2.509805,0.2037225 1.548014,1.5216824 2.55554,3.5921684 2.702442,5.8982514 l -2.982387,0.04435 c -0.274402,-3.123745 -2.896463,-5.5725728 -6.089501,-5.5725728 -0.920216,0 -1.793313,0.2051078 -2.574942,0.5682058 L 11.971283,7.8369883 c 1.215406,-0.6014665 2.583257,-0.941004 4.030103,-0.941004 z M 5.3385221,18.082706 c -1.1571993,0 -2.0940457,-0.936847 -2.0940457,-2.09266 0,-1.155813 0.9368464,-2.094046 2.0940457,-2.094046 1.1558134,0 2.0926598,0.936847 2.0926598,2.094046 0,1.157199 -0.9368464,2.09266 -2.0926598,2.09266 z m 1.8556764,0.187092 c 0.6610588,-0.539103 1.0837483,-1.359536 1.0837483,-2.279752 0,-0.920216 -0.4226895,-1.740649 -1.0837483,-2.279752 C 7.7610183,11.519238 9.123326,9.648317 10.954057,8.4245961 l 1.529997,2.5638549 c -1.572959,1.107308 -2.5998868,2.933881 -2.5998868,5.002981 0,2.0691 1.0269278,3.895673 2.5998868,5.001595 l -1.529997,2.563855 C 9.1219401,22.333161 7.7596324,20.46224 7.1941985,18.269798 Z m 15.1835635,8.764225 c -1.001982,0.577907 -2.281138,0.235598 -2.859045,-0.766384 -0.577906,-1.001982 -0.235597,-2.279752 0.766385,-2.859045 1.000596,-0.577907 2.281138,-0.234211 2.857659,0.766385 0.57652,1.000596 0.235597,2.281138 -0.766385,2.859044 z m -0.0069,-4.560889 c -0.795487,-0.300734 -1.714318,-0.255 -2.509805,0.203722 -0.795488,0.460108 -1.294401,1.234808 -1.431601,2.07603 -0.773314,0.214809 -1.588204,0.331222 -2.429426,0.331222 -1.446846,0 -2.814697,-0.339538 -4.030102,-0.94239 l 1.45516,-2.606817 c 0.783015,0.364484 1.654726,0.568206 2.574942,0.568206 3.194424,0 5.8151,-2.448828 6.089501,-5.572573 l 2.983773,0.04435 c -0.146902,2.306083 -1.154428,4.376569 -2.702442,5.898252 z"
     id="path1"
     style="fill:#808080;fill-opacity:1;stroke-width:1.38587" />
</svg>
