<?xml version="1.0" encoding="UTF-8" standalone="no"?>
<!-- Uploaded to: SVG Repo, www.svgrepo.com, Generator: SVG Repo Mixer Tools -->

<svg
   width="800px"
   height="800px"
   viewBox="0 0 512 512"
   version="1.1"
   id="svg1"
   sodipodi:docname="vertical-banner-svgrepo-com.svg"
   inkscape:version="1.3.2 (091e20e, 2023-11-25)"
   xmlns:inkscape="http://www.inkscape.org/namespaces/inkscape"
   xmlns:sodipodi="http://sodipodi.sourceforge.net/DTD/sodipodi-0.dtd"
   xmlns="http://www.w3.org/2000/svg"
   xmlns:svg="http://www.w3.org/2000/svg">
  <defs
     id="defs1" />
  <sodipodi:namedview
     id="namedview1"
     pagecolor="#ffffff"
     bordercolor="#000000"
     borderopacity="0.25"
     inkscape:showpageshadow="2"
     inkscape:pageopacity="0.0"
     inkscape:pagecheckerboard="0"
     inkscape:deskcolor="#d1d1d1"
     inkscape:zoom="0.95"
     inkscape:cx="400"
     inkscape:cy="399.47368"
     inkscape:window-width="1392"
     inkscape:window-height="1212"
     inkscape:window-x="547"
     inkscape:window-y="1281"
     inkscape:window-maximized="0"
     inkscape:current-layer="svg1" />
  <path
     fill="#000000"
     d="M279 25v30h-46V25h46zm178 35.396c3.485 1.262 7.267 2.717 11.195 4.55 5.553 2.589 10.945 5.739 14.409 8.742C486.067 76.69 487 78.936 487 80c0 1.063-.933 3.31-4.396 6.313-3.464 3.002-8.856 6.152-14.409 8.742-3.928 1.832-7.71 3.287-11.195 4.549V60.396zm-402 0v39.208c-3.485-1.262-7.267-2.717-11.195-4.55-5.553-2.589-10.945-5.739-14.409-8.742C25.933 83.31 25 81.064 25 80c0-1.063.933-3.31 4.396-6.313 3.464-3.002 8.856-6.152 14.409-8.742 3.928-1.832 7.71-3.287 11.195-4.549zM439 73v14h-46V73h46zm-64 0v291.578L256 498.453 137 364.578V73h238zm-256 0v14H73V73h46zm210 23h-18v252.844l-55 68.75-55-68.75V96h-18v259.156l73 91.25 73-91.25V96z"
     id="path1"
     style="fill:#808080;fill-opacity:1" />
</svg>
