<?xml version="1.0" encoding="UTF-8" standalone="no"?>
<!-- Uploaded to: SVG Repo, www.svgrepo.com, Generator: SVG Repo Mixer Tools -->

<svg
   width="800px"
   height="800px"
   viewBox="0 0 24 24"
   version="1.1"
   id="svg1"
   sodipodi:docname="virtual_storage.svg"
   inkscape:version="1.3.2 (091e20e, 2023-11-25)"
   xmlns:inkscape="http://www.inkscape.org/namespaces/inkscape"
   xmlns:sodipodi="http://sodipodi.sourceforge.net/DTD/sodipodi-0.dtd"
   xmlns="http://www.w3.org/2000/svg"
   xmlns:svg="http://www.w3.org/2000/svg">
  <defs
     id="defs1" />
  <sodipodi:namedview
     id="namedview1"
     pagecolor="#ffffff"
     bordercolor="#000000"
     borderopacity="0.25"
     inkscape:showpageshadow="2"
     inkscape:pageopacity="0.0"
     inkscape:pagecheckerboard="0"
     inkscape:deskcolor="#d1d1d1"
     inkscape:zoom="0.95"
     inkscape:cx="400"
     inkscape:cy="399.47368"
     inkscape:window-width="1392"
     inkscape:window-height="1212"
     inkscape:window-x="675"
     inkscape:window-y="1318"
     inkscape:window-maximized="0"
     inkscape:current-layer="svg1" />
  <path
     fill="none"
     stroke="#000000"
     stroke-width="2"
     d="M12,22 C16.9705627,22 21,19.7614237 21,17 C21,14.2385763 16.9705627,12 12,12 C7.02943725,12 3,14.2385763 3,17 C3,19.7614237 7.02943725,22 12,22 Z M12,17.5 C16.9705627,17.5 21,15.2614237 21,12.5 C21,9.73857625 16.9705627,7.5 12,7.5 C7.02943725,7.5 3,9.73857625 3,12.5 C3,15.2614237 7.02943725,17.5 12,17.5 Z M12,12 C16.9705627,12 21,9.76142375 21,7 C21,4.23857625 16.9705627,2 12,2 C7.02943725,2 3,4.23857625 3,7 C3,9.76142375 7.02943725,12 12,12 Z"
     id="path1"
     style="stroke:#808080;stroke-opacity:1" />
</svg>
