<?xml version="1.0" encoding="UTF-8" standalone="no"?>
<svg
   viewBox="0 0 54 50.8"
   version="1.1"
   id="svg9"
   sodipodi:docname="W3Schools.svg"
   inkscape:version="1.4 (e7c3feb1, 2024-10-09)"
   xmlns:inkscape="http://www.inkscape.org/namespaces/inkscape"
   xmlns:sodipodi="http://sodipodi.sourceforge.net/DTD/sodipodi-0.dtd"
   xmlns="http://www.w3.org/2000/svg"
   xmlns:svg="http://www.w3.org/2000/svg">
  <sodipodi:namedview
     id="namedview9"
     pagecolor="#ffffff"
     bordercolor="#000000"
     borderopacity="0.25"
     inkscape:showpageshadow="2"
     inkscape:pageopacity="0.0"
     inkscape:pagecheckerboard="0"
     inkscape:deskcolor="#d1d1d1"
     inkscape:zoom="5.5367457"
     inkscape:cx="37.205971"
     inkscape:cy="24.743777"
     inkscape:window-width="1568"
     inkscape:window-height="823"
     inkscape:window-x="0"
     inkscape:window-y="39"
     inkscape:window-maximized="0"
     inkscape:current-layer="svg9" />
  <defs
     id="defs1">
    <clipPath
       id="clip0">
      <rect
         width="37.2768"
         height="35"
         fill="white"
         id="rect1" />
    </clipPath>
  </defs>
  <g
     clip-path="url(#clip0)"
     transform="matrix(1.451231002808, 0, 0, 1.451231002808, -0.053854331374, -2.645e-9)"
     style=""
     id="g9">
    <path
       d="m 31.3987,11.970868 c 0,0 0.9375,1.00447 2.2471,1.00447 1.0342,0 1.7857,-0.625 1.7857,-1.48066 0,-1.04911 -0.9599,-1.53274 -2.1206,-1.53274 h -0.6845 l -0.4092,-0.9226198 1.8155,-2.15029 c 0.3869,-0.46131 0.7142,-0.75149 0.7142,-0.75149 0,0 -0.2901,0.01488 -0.8779,0.01488 h -2.9539 v -1.54762 h 6.0491 v 1.13095 l -2.4256,2.80506 c 1.3691,0.19345 2.7083,1.1681598 2.7083,2.8869098 0,1.68899 -1.2797,3.25148 -3.4895,3.25148 -2.1057,0 -3.2738,-1.3244 -3.2738,-1.3244 z"
       fill="#04aa6d"
       id="path1"
       style="fill:#808080" />
    <path
       d="m 19.5981,14.061748 7.9911,14.22615 3.9434,-7.0312 L 23.988,7.8266282 H 15.2082 L 11.5698,14.307288 7.93146,7.8266282 H 0.0371094 L 11.5252,28.287898 l 0.0446,-0.0744 0.0447,0.0744 z"
       fill="#04aa6d"
       id="path2"
       style="fill:#808080" />
    <g
       id="g10"
       style="display:none">
      <path
         d="M 0.118958,33.3257 H 1.28711 c 0,0.3423 0.29762,0.6697 0.8259,0.6697 0.49107,0 0.81845,-0.2456 0.81845,-0.573 0,-0.2827 -0.21578,-0.4092 -0.5878,-0.491 L 1.67402,32.7602 C 0.543065,32.4626 0.252886,31.8599 0.252886,31.2201 c 0,-0.7813 0.773814,-1.4956 1.867564,-1.4956 0.89285,0 1.90476,0.4539 1.88988,1.57 H 2.82729 c 0,-0.3423 -0.3125,-0.5581 -0.66964,-0.5581 -0.38691,0 -0.65476,0.2232 -0.65476,0.5357 0,0.2605 0.24553,0.4093 0.53571,0.4762 l 0.80357,0.2158 c 1.13095,0.2902 1.33185,0.997 1.33185,1.4583 0,1.0194 -1.01935,1.5774 -2.03869,1.5774 -0.98959,0 -1.994051,-0.6027 -2.016372,-1.6741 z"
         fill="#04aa6d"
         id="path3" />
      <path
         d="m 5.20837,32.3584 c 0,-1.5922 1.27977,-2.6339 2.73066,-2.6339 0.87053,0 1.57738,0.3869 2.03869,0.9673 l -0.87798,0.6994 c -0.26041,-0.3125 -0.68452,-0.506 -1.13839,-0.506 -0.87054,0 -1.49554,0.625 -1.49554,1.4732 0,0.8408 0.625,1.4807 1.49554,1.4807 0.45387,0 0.87798,-0.1934 1.13839,-0.5059 l 0.87798,0.6994 c -0.46131,0.5803 -1.16816,0.9672 -2.03869,0.9672 -1.45089,0 -2.73066,-1.0491 -2.73066,-2.6414 z"
         fill="#04aa6d"
         id="path4" />
      <path
         d="m 15.9895,32.0535 v 2.8125 h -1.25 v -2.7232 c 0,-0.8036 -0.4836,-1.2351 -1.0416,-1.2351 -0.573,0 -1.2798,0.3348 -1.2798,1.3095 v 2.6563 h -1.25 v -7.753 h 1.2574 v 3.4896 c 0.2456,-0.6102 1.0566,-0.8929 1.5551,-0.8929 1.2946,0.0074 2.0089,0.878 2.0089,2.3363 z"
         fill="#04aa6d"
         id="path5" />
      <path
         d="m 17.299,32.3584 c 0,-1.5922 1.2351,-2.6339 2.6636,-2.6339 1.4286,0 2.6786,1.0417 2.6786,2.6339 0,1.5923 -1.25,2.6414 -2.6786,2.6414 -1.4285,0 -2.6636,-1.0491 -2.6636,-2.6414 z m 4.0848,0 c 0,-0.863 -0.6474,-1.4732 -1.4212,-1.4732 -0.7738,0 -1.4062,0.6102 -1.4062,1.4732 0,0.878 0.6324,1.4807 1.4062,1.4807 0.7738,0 1.4212,-0.6027 1.4212,-1.4807 z"
         fill="#04aa6d"
         id="path6" />
      <path
         d="m 23.7053,32.3584 c 0,-1.5922 1.2351,-2.6339 2.6637,-2.6339 1.4285,0 2.6785,1.0417 2.6785,2.6339 0,1.5923 -1.25,2.6414 -2.6785,2.6414 -1.4212,0 -2.6637,-1.0491 -2.6637,-2.6414 z m 4.0848,0 c 0,-0.863 -0.6473,-1.4732 -1.4211,-1.4732 -0.7739,0 -1.4063,0.6102 -1.4063,1.4732 0,0.878 0.6324,1.4807 1.4063,1.4807 0.7812,0 1.4211,-0.6027 1.4211,-1.4807 z"
         fill="#04aa6d"
         id="path7" />
      <path
         d="m 30.4314,34.8735 v -7.753 h 1.25 v 7.753 z"
         fill="#04aa6d"
         id="path8" />
      <path
         d="m 33.0431,33.3257 h 1.1681 c 0,0.3423 0.2977,0.6697 0.8259,0.6697 0.4911,0 0.8185,-0.2456 0.8185,-0.573 0,-0.2827 -0.2158,-0.4092 -0.5878,-0.491 l -0.6696,-0.1712 c -1.131,-0.2976 -1.4212,-0.9003 -1.4212,-1.5401 0,-0.7813 0.7738,-1.4956 1.8676,-1.4956 0.8928,0 1.9047,0.4539 1.8899,1.57 H 35.744 c 0,-0.3423 -0.3125,-0.5581 -0.6697,-0.5581 -0.3869,0 -0.6547,0.2232 -0.6547,0.5357 0,0.2605 0.2455,0.4093 0.5357,0.4762 l 0.8036,0.2158 c 1.1309,0.2902 1.3318,0.997 1.3318,1.4583 0,1.0194 -1.0193,1.5774 -2.0387,1.5774 -0.9896,0 -1.9866,-0.6027 -2.0089,-1.6741 z"
         fill="#04aa6d"
         id="path9" />
    </g>
  </g>
</svg>
