<?xml version="1.0" encoding="UTF-8" standalone="no"?>
<!-- Uploaded to: SVG Repo, www.svgrepo.com, Generator: SVG Repo Mixer Tools -->

<svg
   fill="#000000"
   width="800px"
   height="800px"
   viewBox="-1 0 19 19"
   class="cf-icon-svg"
   version="1.1"
   id="svg1"
   sodipodi:docname="web-round-svgrepo-com.svg"
   inkscape:version="1.3.2 (091e20e, 2023-11-25)"
   xmlns:inkscape="http://www.inkscape.org/namespaces/inkscape"
   xmlns:sodipodi="http://sodipodi.sourceforge.net/DTD/sodipodi-0.dtd"
   xmlns="http://www.w3.org/2000/svg"
   xmlns:svg="http://www.w3.org/2000/svg">
  <defs
     id="defs1" />
  <sodipodi:namedview
     id="namedview1"
     pagecolor="#ffffff"
     bordercolor="#000000"
     borderopacity="0.25"
     inkscape:showpageshadow="2"
     inkscape:pageopacity="0.0"
     inkscape:pagecheckerboard="0"
     inkscape:deskcolor="#d1d1d1"
     inkscape:zoom="0.95"
     inkscape:cx="400"
     inkscape:cy="399.47368"
     inkscape:window-width="1392"
     inkscape:window-height="1212"
     inkscape:window-x="743"
     inkscape:window-y="1307"
     inkscape:window-maximized="0"
     inkscape:current-layer="svg1" />
  <path
     d="M 17.925,9.5125 A 9.4875,9.4625 0 1 1 8.4375,0.05 9.4875,9.4625 0 0 1 17.925,9.5125 Z M 14.402765,9.51965 A 5.9652657,5.9495468 0 1 0 8.4375,15.469143 5.9652657,5.9495468 0 0 0 14.402765,9.5195967 Z M 5.646989,9.0464718 H 3.4435172 A 5.0248172,5.0115765 0 0 1 6.4854468,4.9089937 Q 6.6040407,4.8593157 6.7226343,4.8155515 A 9.1340907,9.1100218 0 0 0 5.646989,9.0464718 Z m 0,0.9462499 A 9.1317187,9.1076562 0 0 0 6.7238203,14.223642 Q 6.6028547,14.179878 6.4854468,14.1302 A 5.010586,4.9973828 0 0 1 3.4435172,9.9927217 Z M 6.595739,9.0464718 A 10.720875,10.692625 0 0 1 6.7890468,7.3881687 7.3101187,7.2908562 0 0 1 7.316789,5.714489 C 7.659525,4.9870593 8.0995078,4.5163 8.4375,4.5163 c 0.3379922,0 0.777975,0.4707593 1.1207109,1.198189 a 7.3290937,7.3097812 0 0 1 0.5277421,1.6736797 10.765941,10.737572 0 0 1 0.193308,1.6583031 z m 3.683522,0.9462499 A 10.760011,10.731658 0 0 1 10.085953,11.651025 7.3373953,7.318061 0 0 1 9.5582109,13.324704 C 9.215475,14.053317 8.7754922,14.522893 8.4375,14.522893 c -0.3379922,0 -0.777975,-0.469576 -1.120711,-1.198189 A 7.3196062,7.3003187 0 0 1 6.7890468,11.651025 10.716131,10.687894 0 0 1 6.595739,9.9927217 Z m 1.705378,-4.010917 a 4.9939828,4.9808235 0 0 1 1.446844,3.0646671 H 11.228011 A 9.1293468,9.1052907 0 0 0 10.151179,4.8155515 q 0.120967,0.043764 0.238374,0.094625 a 4.990425,4.977275 0 0 1 1.595086,1.0716282 z m -0.756628,4.010917 h 2.203472 A 5.0260032,5.0127593 0 0 1 10.389553,14.1302 q -0.118593,0.05086 -0.237188,0.09462 a 9.128161,9.1041078 0 0 0 1.075646,-4.2321037 z"
     id="path1"
     style="stroke-width:1.18437;fill:#808080;fill-opacity:1" />
</svg>
