<?xml version="1.0" encoding="UTF-8" standalone="no"?>
<!-- Generator: Adobe Illustrator 15.0.0, SVG Export Plug-In . SVG Version: 6.00 Build 0)  -->

<svg
   version="1.1"
   id="Layer_1"
   x="0px"
   y="0px"
   width="512px"
   height="512px"
   viewBox="0 0 512 512"
   enable-background="new 0 0 512 512"
   xml:space="preserve"
   sodipodi:docname="World_IPv6_launch_logo.svg"
   inkscape:version="1.3.2 (091e20e, 2023-11-25)"
   xmlns:inkscape="http://www.inkscape.org/namespaces/inkscape"
   xmlns:sodipodi="http://sodipodi.sourceforge.net/DTD/sodipodi-0.dtd"
   xmlns="http://www.w3.org/2000/svg"
   xmlns:svg="http://www.w3.org/2000/svg"><defs
   id="defs3" /><sodipodi:namedview
   id="namedview3"
   pagecolor="#ffffff"
   bordercolor="#000000"
   borderopacity="0.25"
   inkscape:showpageshadow="2"
   inkscape:pageopacity="0.0"
   inkscape:pagecheckerboard="0"
   inkscape:deskcolor="#d1d1d1"
   inkscape:zoom="1.6894531"
   inkscape:cx="256"
   inkscape:cy="256"
   inkscape:window-width="1392"
   inkscape:window-height="1212"
   inkscape:window-x="976"
   inkscape:window-y="1373"
   inkscape:window-maximized="0"
   inkscape:current-layer="Layer_1" />
<g
   id="g3">
	<path
   id="path1"
   style="fill:#808080;fill-opacity:1"
   d="M 255.52148 13.5 C 187.29862 13.604 128.43745 57.407936 115.23047 117.75781 C 115.05247 118.51781 105.85594 160.00283 105.71094 160.67383 C 105.55794 161.37683 80.988656 272.01795 80.847656 272.62695 C 80.685656 273.30795 80.040531 276.22517 79.894531 276.95117 C 79.894531 276.95117 79.531139 278.5353 79.369141 279.2793 C 76.597145 292.04226 75.217516 305.07955 75.228516 318.01953 C 75.380514 417.70533 156.59745 498.655 256.28125 498.5 C 355.95505 498.364 436.92753 417.12102 436.76953 317.44922 C 436.74653 304.50924 435.32367 291.5006 432.51367 278.76562 C 432.34167 277.94164 432.15675 277.13922 431.96875 276.32422 L 431.02148 272.18945 C 430.86948 271.43345 430.69044 270.67597 430.52344 269.91797 C 430.52344 269.91797 401.65028 141.72759 401.48828 141.05859 C 401.31928 140.30259 396.32916 118.12355 396.16016 117.43555 C 382.81718 57.053664 323.80136 13.39 255.52148 13.5 z M 255.90039 49.654297 C 307.48634 49.654297 351.76403 81.727388 361.16602 125.90234 L 366.87109 151.39062 C 368.32609 157.89862 364.23513 164.32939 357.74414 165.77539 C 351.23815 167.26139 344.8038 163.14815 343.3418 156.66016 L 337.61133 131.03906 C 330.53634 97.806096 296.1913 73.771484 255.90234 73.771484 C 215.64038 73.771484 181.31752 97.697299 174.26953 130.69727 C 174.06553 131.56226 164.80183 172.98874 155.71484 213.5957 C 181.72382 188.57973 217.04338 173.12109 255.90234 173.12109 C 335.63526 173.12109 400.51567 237.99031 400.51367 317.74023 C 400.51367 397.47615 335.63231 462.34961 255.90039 462.34961 C 176.15747 462.34961 111.29492 397.47615 111.29492 317.74023 C 111.29492 315.12124 111.36572 312.54665 111.51172 309.97266 C 111.51172 309.70466 111.54469 309.43887 111.55469 309.17188 C 111.70169 306.82188 111.89539 304.47811 112.15039 302.16211 C 112.16539 301.95311 112.20056 301.73758 112.22656 301.51758 C 112.49756 299.14458 112.82745 296.78173 113.18945 294.42773 C 113.24245 294.15873 113.30566 293.89223 113.34766 293.61523 C 113.71566 291.36224 114.14177 289.12273 114.63477 286.92773 C 114.65577 286.76673 114.67894 286.62508 114.71094 286.45508 C 114.71094 286.45508 115.33493 283.672 150.71289 125.53516 C 160.09788 81.6302 204.33144 49.654297 255.90039 49.654297 z M 255.90234 197.23633 C 198.2984 197.23633 150.03611 237.86543 138.20312 291.98438 C 137.77213 293.90037 137.40984 295.8503 137.08984 297.7793 C 137.05184 297.9213 137.01981 298.09033 137.00781 298.23633 C 136.67281 300.28333 136.37825 302.32796 136.15625 304.37695 C 136.15625 304.48895 136.13109 304.6017 136.12109 304.7207 C 135.89409 306.7047 135.74205 308.6996 135.62305 310.68359 C 135.62305 310.87159 135.58327 311.06248 135.57227 311.27148 C 135.46027 313.41448 135.40625 315.57433 135.40625 317.73633 C 135.40625 384.18026 189.45941 438.23828 255.90234 438.23828 C 322.35428 438.23828 376.40039 384.18226 376.40039 317.73633 C 376.40039 251.29539 322.35328 197.23633 255.90234 197.23633 z M 255.90234 244.08984 C 296.51126 244.08984 329.54492 277.14203 329.54492 317.75195 C 329.54492 358.35187 296.51026 391.38086 255.90234 391.38086 C 215.30042 391.38086 182.25586 358.35187 182.25586 317.75195 C 182.25586 277.14203 215.29942 244.08984 255.90234 244.08984 z M 261.14258 255.82031 L 261.14258 278.30078 L 277.77734 278.30078 C 273.40936 266.7118 267.31856 258.76231 261.14258 255.82031 z M 250.67383 255.82227 C 244.47083 258.76425 238.40142 266.71277 234.02344 278.30273 L 250.67383 278.30273 L 250.67383 255.82227 z M 231.9668 259.26758 C 221.96882 263.35656 213.24331 269.97375 206.57031 278.30273 L 222.86523 278.30273 C 225.29123 270.95675 228.3738 264.51556 231.9668 259.26758 z M 279.8125 259.26758 C 283.4265 264.51556 286.50297 270.95675 288.91797 278.30273 L 305.21289 278.30273 C 298.55091 269.97375 289.82048 263.35656 279.8125 259.26758 z M 199.76562 288.76562 C 196.04164 295.99562 193.63759 303.99974 192.93359 312.51172 L 217.0918 312.51172 C 217.3948 304.08974 218.40839 296.11062 220.02539 288.76562 L 199.76562 288.76562 z M 230.78125 288.76562 C 229.04825 295.86162 227.90017 303.84574 227.57617 312.51172 L 250.67383 312.51172 L 250.67383 288.76562 L 230.78125 288.76562 z M 261.14258 288.76562 L 261.14258 312.51172 L 284.22266 312.51172 C 283.89366 303.84574 282.73909 295.86162 280.99609 288.76562 L 261.14258 288.76562 z M 291.76367 288.76562 C 293.39667 296.11062 294.40355 304.08974 294.68555 312.51172 L 318.85938 312.51172 C 318.16738 303.99974 315.76928 295.99562 312.0293 288.76562 L 291.76367 288.76562 z M 192.93359 322.97852 C 193.63759 331.4565 196.04164 339.49438 199.76562 346.69336 L 220.02539 346.69336 C 218.40739 339.37938 217.3948 331.3915 217.0918 322.97852 L 192.93359 322.97852 z M 227.57617 322.97852 C 227.90017 331.6375 229.03725 339.60238 230.78125 346.69336 L 250.67383 346.69336 L 250.67383 322.97852 L 227.57617 322.97852 z M 261.14258 322.97852 L 261.14258 346.69336 L 280.99609 346.69336 C 282.74009 339.60238 283.89366 331.6375 284.22266 322.97852 L 261.14258 322.97852 z M 294.68555 322.97852 C 294.40355 331.3915 293.39667 339.38038 291.76367 346.69336 L 312.0293 346.69336 C 315.77028 339.49438 318.16738 331.4565 318.85938 322.97852 L 294.68555 322.97852 z M 206.5625 357.17773 C 213.24248 365.47873 221.96882 372.08822 231.9668 376.19922 C 228.3738 370.96522 225.29123 364.53173 222.86523 357.17773 L 206.5625 357.17773 z M 234.01758 357.17773 C 238.40256 368.75671 244.46483 376.7035 250.67383 379.64648 L 250.67383 357.17773 L 234.01758 357.17773 z M 261.14258 357.17773 L 261.14258 379.64648 C 267.31756 376.7025 273.40797 368.75671 277.79297 357.17773 L 261.14258 357.17773 z M 288.91797 357.17773 C 286.50297 364.53173 283.4265 370.96522 279.8125 376.19922 C 289.82048 372.08822 298.55163 365.47873 305.22461 357.17773 L 288.91797 357.17773 z " />
	
	
</g>
</svg>
