<?xml version="1.0" encoding="UTF-8" standalone="no"?>
<!-- Uploaded to: SVG Repo, www.svgrepo.com, Generator: SVG Repo Mixer Tools -->

<svg
   fill="#000000"
   width="800px"
   height="800px"
   viewBox="0 0 24 24"
   role="img"
   version="1.1"
   id="svg1"
   sodipodi:docname="xcode.svg"
   inkscape:version="1.3.2 (091e20e, 2023-11-25)"
   xmlns:inkscape="http://www.inkscape.org/namespaces/inkscape"
   xmlns:sodipodi="http://sodipodi.sourceforge.net/DTD/sodipodi-0.dtd"
   xmlns="http://www.w3.org/2000/svg"
   xmlns:svg="http://www.w3.org/2000/svg"
   xmlns:rdf="http://www.w3.org/1999/02/22-rdf-syntax-ns#"
   xmlns:cc="http://creativecommons.org/ns#"
   xmlns:dc="http://purl.org/dc/elements/1.1/">
  <defs
     id="defs1" />
  <sodipodi:namedview
     id="namedview1"
     pagecolor="#ffffff"
     bordercolor="#000000"
     borderopacity="0.25"
     inkscape:showpageshadow="2"
     inkscape:pageopacity="0.0"
     inkscape:pagecheckerboard="0"
     inkscape:deskcolor="#d1d1d1"
     inkscape:zoom="0.95"
     inkscape:cx="400"
     inkscape:cy="399.47368"
     inkscape:window-width="1392"
     inkscape:window-height="1212"
     inkscape:window-x="647"
     inkscape:window-y="1296"
     inkscape:window-maximized="0"
     inkscape:current-layer="svg1" />
  <title
     id="title1">Xcode icon</title>
  <path
     d="M20 4.8c.4-.2.6-.4.9-.4.5 0 .8.3.9.5.2.3.9.5 1.2.5.2 0 .5-.7.7-1.3s.2-1.3.1-1.4c-.1-.1-.9-.3-1.1-.3-.1.1-.3.2-.7.2s-.8-.3-1.1-.6c-.5-.5-1.1-.7-1.7-.9-.6-.2-1.3-.2-1.9-.2-.9-.1-1.9-.1-2.8.2-.4.1-.7.2-1.1.4-.1.1-.4.2-.5.2-.1.1-.1.2 0 .2s.5-.1.5-.1-.5.2-.5.4c0 .1.1.1.1.1s.3-.1.5-.1c.4 0 1-.2 1.5-.2.6 0 1.2.2 1.8.8.9 1.1.8 2.5.8 2.8-.2 2.1-4.9 14.9-5.1 15.8-.2.9-.2 1.4.9 1.7s1.5 0 1.7-.4c.1-.7 3.1-16.5 4.9-17.9zM16.1 3.8L0 6.3 2.6 23l8.6-1.4c-.1-.7 2.2-6.7 2.6-7.8l-4.4.7.6-1.8 3.1-.5.8 1s.2-.5.2-.7L9.8 7.2c-.2-.3-.2-.7.1-.9l.2-.2c.3-.2.7-.2.9.1l3.8 4.4c.8-2.4 1.5-4.5 1.5-5.2.1-.2.1-.9-.2-1.6zm-12 9.9l2.7-.5-.7 1.8-1.8.3-.2-1.6zm5.8-5.1l.3.1c.4.1.5.5.4.9l-3 8L5.8 20l.2-3 3-8c.1-.4.5-.5.9-.4zM20.7 5.8c-.4.4-.9 1.7-1.9 5.5h.1l.3 1.6-.8.1c-.1.5-.2 1-.4 1.6 1.7.9.8 3.1.7 3.1-.1 0-.1 0-.1-.1s.1-.4-.2-.5c-.2-.1-.6-.2-.9-.4-.3 1.2-.6 2.6-.9 4.1l6.3-1-2.1-14.1-.1.1z"
     id="path1"
     style="fill:#808080;fill-opacity:1" />
  <metadata
     id="metadata1">
    <rdf:RDF>
      <cc:Work
         rdf:about="">
        <dc:title>Xcode icon</dc:title>
      </cc:Work>
    </rdf:RDF>
  </metadata>
</svg>
